<svg height="32" viewBox="0 0 35 32" width="35" xmlns="http://www.w3.org/2000/svg">
    <path d="m419.914062 129.71875c-.023437.164062-.09375.257812-.210937.328125-.09375.046875-.140625.140625-.164063.234375-.070312.375-.304687.65625-.609374.890625-.445313.28125-.890626.585937-1.335938.914063-.1875.117187-.375.234374-.585938.28125-.398437.117187-.773437.09375-1.101562-.140626-.070312-.046874-.117188-.117187-.164062-.210937-.09375-.257813-.09375-.492187.070312-.726563.117188-.164062.257812-.304687.445312-.398437.234376-.117187.46875-.234375.703126-.351563.515624-.257812.890624-.65625 1.125-1.171874.046874-.09375.070312-.1875.117187-.257813.257813-.632813.515625-1.242187.679687-1.875.117188-.5625.445313-.9375.9375-1.21875.28125-.164063.5625-.375.84375-.5625.632813-.46875 1.242188-.914063 1.851563-1.382813.304687-.210937.585937-.46875.84375-.726562.234375-.257812.445313-.515625.585937-.820312.164063-.375.1875-.75.023438-1.148438-.046875-.140625-.117188-.28125-.164062-.421875-.164063-.46875-.070313-.796875.304687-1.125.117187-.09375.257813-.1875.375-.28125.28125-.210937.539063-.421875.75-.703125.117187-.117188.1875-.257812.257813-.398438.046874-.117187.070312-.257812.070312-.375 0-.140624-.09375-.234374-.257812-.234374-.117188-.023438-.257813 0-.351563.09375-.117187.070312-.234375.140624-.328125.234374-.164062.164063-.28125.351563-.421875.492188-.210937.28125-.421875.539062-.65625.796875-.28125.304687-.632813.492187-1.054687.539063-.164063.023437-.328126.023437-.492188.046874-.515625.070313-.960938.304688-1.3125.726563-.117188.164063-.234375.328125-.328125.515625-.117187.140625-.210937.304688-.304687.46875-.140626.210938-.304688.445312-.515626.632812-.1875.164063-.375.28125-.609374.351563-.351563.117187-.679688.046875-.960938-.1875-.28125-.210937-.304688-.5625-.070312-.820313.070312-.070312.140624-.117187.234374-.1875.351563-.234374.539063-.585937.703126-.960937.070312-.164063.070312-.351563.046874-.539063-.046874-.351562-.210937-.539062-.539062-.632812-.070312 0-.140625 0-.1875-.046875-.070312-.023437-.164062-.070313-.210938-.117187-.140624-.117188-.1875-.328126-.09375-.46875.023438-.046876.070313-.09375.117188-.09375.328125-.046876.65625-.140626.984375-.117188.117187.023438.234375.023438.351563.023438.445312.023437.820312-.140626 1.125-.46875.070312-.070313.140624-.140626.1875-.234376.351562-.515624.726562-1.03125 1.078124-1.546874.117188-.1875.234376-.398438.328126-.609376.046874-.117187.070312-.257812.070312-.375.023438-.328124-.234375-.46875-.515625-.304687-.09375.046875-.1875.140625-.257813.234375-.09375.117188-.164062.257812-.234374.375-.070313.140625-.140626.304688-.1875.445312-.398438.84375-1.007813 1.289063-1.945313 1.289063-.140625 0-.304687 0-.445313.023437-.65625.046876-1.265624.609376-1.335937 1.265626-.023437.164062-.046875.351562-.046875.539062.023438.375-.117188.632812-.46875.796875-.117188.023437-.210938.09375-.304688.164063-.328124.28125-.726562.328124-1.101562.210937-.46875-.164063-.65625-.421875-.65625-.914063 0-.234374.09375-.445312.1875-.65625.117188-.28125.257812-.539062.375-.820312.445312-.890625.914062-1.804688 1.359375-2.695312.117187-.28125.234375-.5625.28125-.867188.023437-.117188.046875-.28125.046875-.398438 0-.070312-.023438-.164062-.070312-.234374-.117188-.234376-.351563-.28125-.539063-.09375-.09375.09375-.164063.210937-.210937.351562-.070313.164062-.140626.351562-.164063.539062-.117187.515626-.28125.984376-.5625 1.40625-.234375.445313-.515625.867188-.773437 1.289063-.5625.984375-.796876 2.039063-.796876 3.164063 0 .070312.023438.1875.046876.28125.09375.398437.328124.585937.726562.5625.164062 0 .304688-.046876.445312-.070313.375-.070313.726563 0 1.054688.1875.140625.070313.1875.164063.164062.328125-.046874.117188-.09375.1875-.1875.257812-.164062.117188-.328124.1875-.515624.234376-.210938.023437-.398438.023437-.609376.046874-.210937 0-.421874-.023437-.632812-.023437-.632812.023437-1.078125.351563-1.265625.960937-.140625.421876-.140625.867188-.023437 1.3125.09375.46875.28125.914063.492187 1.359376.140625.234374.304687.421874.515625.609374.1875.164063.398438.351563.585938.539063.1875.140625.210937.328125.140624.539063-.046874.117187-.117187.234374-.1875.304687-.117187.117187-.257812.234375-.375.351563-.375.28125-.585937.632812-.679687 1.078124-.023437.09375-.023437.164063-.046875.234376-.046875.140624-.09375.304687-.164062.445312-.28125.515625-.914063.632812-1.359376.257812-.09375-.046874-.140624-.140624-.1875-.234374-.070312-.210938-.070312-.445313-.023437-.65625.046875-.351563.210937-.65625.398437-.9375.117188-.1875.257813-.375.351563-.585938.257813-.515625.164063-1.007812-.1875-1.476562-.046875-.023438-.070313-.070313-.09375-.117188-.1875-.1875-.328125-.375-.398437-.609375-.164063-.445313-.398438-.867187-.609376-1.289063-.070312-.164062-.140624-.328124-.1875-.515624-.070312-.351563-.023437-.65625.28125-.890626.1875-.117187.351563-.257812.492188-.421874.492188-.539063.65625-1.171876.445312-1.898438-.023437-.117188-.070312-.210938-.09375-.304688-.257812-.5625-.328124-1.125-.328124-1.734374 0-.726563.023437-1.453126 0-2.179688 0-.585938.046874-1.148438.140624-1.710938.023438-.117187.046876-.28125.046876-.421874.023437-.164063.023437-.351563 0-.539063-.023438-.140625-.070313-.28125-.164063-.398437-.140625-.164063-.304687-.164063-.445313 0-.117187.117187-.164062.257812-.1875.398437-.023437.1875-.046874.375-.046874.5625 0 .492187 0 .960937-.023438 1.429687-.046875.609376-.117188 1.21875-.140625 1.828126-.070313.820312-.046875 1.640624.070313 2.460937.070312.445313.117187.890625.164062 1.3125.023438.164063 0 .304687-.023438.46875-.09375.515625-.632812.796875-1.125.632813-.234374-.09375-.421874-.234376-.5625-.421876-.210937-.234374-.351562-.492187-.445312-.773437-.304688-1.054687-.539062-2.132813-.515625-3.234375.023437-.257812 0-.492188-.070313-.726562-.046874-.210938-.164062-.398438-.304687-.5625-.210937-.1875-.46875-.164063-.632813.046874-.09375.117188-.117187.234376-.140624.375-.023438.210938 0 .421876.070312.632813.046875.257813.117188.492187.1875.75.09375.351563.140625.703125.164062 1.078125.046876.5625.140626 1.101562.28125 1.640625.09375.398437.28125.75.492188 1.078125.117188.210938.257812.398438.492188.515625.1875.09375.351562.1875.5625.304687.117187.070313.257812.117188.398437.1875.210937.140626.28125.351563.210937.609376-.09375.351562-.351562.515624-.679687.5625-.234375.023437-.492187.023437-.726563-.046876-.515624-.164062-.984374-.398437-1.429687-.726562-.164063-.140625-.304687-.304688-.445313-.492188-.164062-.28125-.328124-.5625-.515624-.796874-.257813-.328126-.492188-.679688-.726563-1.03125-.070313-.117188-.117187-.28125-.164063-.421876-.046874-.09375-.117187-.210937-.164062-.304687-.09375-.210937-.164062-.421875-.257812-.632813-.070313-.117187-.140626-.257812-.1875-.398437-.046876-.140625-.09375-.257813-.140626-.398437-.09375-.28125-.1875-.585938-.28125-.867188-.023437-.09375-.070312-.210938-.1875-.28125-.046874-.023438-.070312-.09375-.09375-.140625 0-.210937-.117187-.328125-.257812-.421875-.257812-.210938-.539062-.09375-.585938.234375v.1875c.023438.1875.070313.375.164063.5625.09375.164063.1875.351563.28125.515625.1875.351562.351563.703125.46875 1.078125.070313.210937.164063.445313.234375.679687.257812.84375.65625 1.640626 1.289062 2.296876.070313.070312.117188.164062.1875.257812.046876.070312.09375.140625.140626.210938.140624.28125.140624.5625-.046876.820312-.09375.140625-.1875.257812-.304687.375s-.257813.234375-.351563.351562c-.328124.375-.375.773438-.210937 1.21875.070313.140626.140625.28125.257813.398438.164062.234375.375.445312.609374.609375.257813.164063.515626.375.796876.539063.304687.210937.632812.398437.960937.585937.1875.09375.375.117187.585937.09375.1875-.046875.328126-.140625.421876-.304687.070312-.140626.09375-.28125.070312-.421876-.023438-.328124-.210938-.539062-.46875-.703124-.1875-.117188-.375-.140626-.5625-.1875-.164062-.023438-.328125-.046876-.492188-.070313-.351562-.023437-.632812-.1875-.914062-.375s-.351562-.46875-.304688-.773437c.023438-.117188.070313-.210938.140626-.304688.398437-.375.84375-.585938 1.382812-.445312.1875.046874.351562.09375.515625.1875.210937.140624.421875.328124.632813.492187.234374.164063.445312.351563.703124.515625.140626.09375.304688.140625.46875.210938.210938.046874.46875.117187.703126.164062.210937.046875.375.140625.539062.28125.140625.117188.210938.257812.210938.445312 0 .257813-.09375.515626-.234376.726563-.09375.164063-.210937.328125-.304687.492187-.257813.398438-.304687.84375-.140625 1.335938.046875.164062.140625.328125.210938.492188.117187.210937.257812.421874.375.632812.117187.210938.210937.421875.304687.632812.070313.164063.117187.328126.117187.515626 0 .539062-.421874.9375-.960937.9375-.328125-.023438-.609375-.1875-.84375-.375-.046875-.046876-.070313-.140626-.09375-.210938-.070313-.257812-.117187-.515625-.117187-.796875.023437-.375-.070313-.75-.210938-1.125-.09375-.257813-.28125-.46875-.46875-.679687-.070312-.046876-.164062-.070313-.234375-.09375-.609375-.164063-1.242187-.210938-1.875 0-.210937.070312-.445313.140624-.65625.1875-.585937.140624-1.101563 0-1.546875-.375-.09375-.09375-.164062-.1875-.210938-.28125-.046874-.09375-.070312-.1875-.09375-.28125-.09375-.257813-.140624-.515626-.257812-.75-.28125-.539063-.585938-1.054688-1.078125-1.453126-.375-.304687-.773437-.585937-1.242187-.773437-.210938-.117187-.445313-.1875-.679688-.257813-.117188-.046874-.257812-.046874-.375-.046874-.351562.046874-.492188.375-.351562.679687.070312.164063.1875.28125.328124.351563.210938.117187.421876.234374.609376.328124.234374.117188.445312.1875.65625.28125.679687.28125 1.148437.773438 1.382812 1.476563.046875.117187.070312.210937.117188.328125.046874.140625.070312.257812.117187.375.070313.1875.117187.398438.210937.5625.375.703125.9375 1.148438 1.757813 1.148438.234375 0 .445313-.070313.65625-.140626.234375-.09375.445313-.164062.65625-.257812.398437-.117188.796875-.140625 1.21875-.070312.140625.023437.304687.070312.421875.1875.46875.398437.585938 1.148437.140625 1.640624-.117187.140626-.28125.257813-.421875.351563-.210938.140625-.46875.257813-.703125.398437-.421875.234376-.84375.445313-1.265625.679688-.398438.210938-.820312.421875-1.242188.585938-.164062.046874-.328124.09375-.46875.1875-.140624.070312-.257812.164062-.351562.28125-.210938.257812-.164062.585937.09375.796874.046875.046876.09375.070313.164062.09375.304688.164063.632813.117188.914063-.046874.210937-.09375.398437-.210938.585937-.328126.351563-.210937.703126-.421874 1.054688-.609374.445312-.257813.867188-.539063 1.265625-.890626.140625-.140624.328125-.257812.492187-.375.375-.234374.796876-.304687 1.242188-.234374.234375.046874.46875.164062.632812.328124.632813.632813.5625 1.664063-.140624 2.179688-.1875.140625-.351563.234375-.539063.351562-.46875.328126-.773437.75-.820313 1.3125-.023437.09375-.023437.1875-.023437.257813-.046875.46875-.09375.9375-.140625 1.382813v.726562c0 .140625.023438.28125.117188.421875.117187.210937.304687.351563.539062.351563.28125.023437.46875-.117188.585938-.351563.09375-.164063.117187-.328125.140624-.515625 0-.234375-.046874-.445312-.09375-.679688-.046874-.140624-.09375-.304687-.117187-.46875-.117187-.492187-.070313-1.007812.140625-1.476562.140625-.28125.351562-.515625.609375-.679688.328125-.210937.890625-.257812 1.242187.1875.09375.117188.164063.234376.234376.351563.09375.117187.164062.257813.234374.398437.304688.539063.796876.914063 1.40625 1.101563.234376.070313.492188.117187.726563.164063.398437.070312.796875.117187 1.21875.1875.5625.09375 1.125.304687 1.640625.609374.140625.070313.28125.1875.398438.304688.304687.304688.609374.632812.914062.9375.1875.1875.398438.328125.632812.421875.210938.070313.375.046875.5625-.046875.257813-.164062.304688-.421875.140626-.65625-.210938-.304688-.46875-.5625-.820313-.773438-.398437-.234374-.796875-.492187-1.125-.796874-.046875-.046876-.09375-.070313-.140625-.09375-.75-.398438-1.523438-.75-2.367188-.890626-.257812-.046874-.539062-.09375-.796874-.140624-.421876-.046876-.796876-.1875-1.101563-.421876-.234375-.164062-.445313-.328124-.65625-.539062-.328125-.328125-.632813-.679688-1.007813-.984375-.140624-.117187-.257812-.28125-.328124-.445313-.328126-.960937-.375-1.875.257812-2.742187.023438-.023437.046875-.046875.070312-.070313.65625-1.007812 1.335938-1.992187 1.945313-3.023437.304687-.46875.65625-.890625 1.078125-1.289063.140625-.117187.257812-.234374.375-.375.140625-.140624.257812-.304687.328125-.492187.09375-.257813.070313-.539063-.140625-.773437-.09375-.09375-.210938-.1875-.328125-.257813-.140625-.117187-.328125-.1875-.492187-.304687-.46875-.304688-.867188-.703126-1.101563-1.21875-.070313-.1875-.140625-.375-.1875-.5625-.070313-.375.070313-.609376.398437-.773438.1875-.09375.398438-.164062.609376-.210938.515624-.164062 1.03125-.375 1.523437-.632812.445313-.234375.84375-.070312 1.078125.234375.09375.117187.164062.257813.257812.398437.070313.070313.140626.1875.234376.257813.28125.28125.609374.375.984374.210937.210938-.09375.421876-.234374.609376-.375.445312-.421874.84375-.867187 1.21875-1.359374.117187-.1875.234374-.351563.375-.515626.09375-.117187.210937-.234374.328124-.328124.304688-.257813.679688-.398438 1.078126-.328126.65625.09375.960937.65625.703124 1.242188-.09375.164062-.210937.328125-.328124.46875-.140626.164062-.304688.28125-.445313.421875-.164063.117187-.328125.234375-.492187.351563-.75.539062-1.476563 1.054687-2.226563 1.570312-.140625.09375-.304687.1875-.445313.257812-.492187.210938-.9375.140626-1.359374-.164062-.164063-.117188-.304688-.257812-.445313-.421875-.140625-.117187-.257813-.28125-.375-.398437-.117187-.09375-.257813-.210938-.398437-.28125-.375-.1875-.820313-.070313-1.03125.28125-.1875.28125-.210938.890624.140624 1.171874.1875.140626.398438.257813.632813.304688.234375.070312.46875.117188.703125.164062.304688.070313.585938.210938.820312.421876.164063.164062.210938.351562.140626.5625-.046876.140624-.117188.28125-.1875.421874-.1875.351563-.398438.679688-.585938 1.03125-.257812.445313-.5625.820313-.9375 1.148438-.140625.117188-.28125.234375-.398438.351562-.375.351563-.679687.703126-.867187 1.148438-.304687.679688-.679687 1.265625-1.171875 1.804688-.1875.1875-.304688.398437-.421875.609374-.304687.632813-.210937 1.242188.257813 1.757813.445312.46875.960937.773437 1.546874 1.03125.539063.234375 1.101563.234375 1.6875.046875.140626-.046875.304688-.09375.492188-.140625.421875-.140625.84375-.09375 1.265625.070313.1875.09375.351563.1875.515625.28125.421875.257812.867188.492187 1.335938.65625.539062.210937 1.054687.492187 1.546874.796874.1875.117188.375.234376.5625.351563.1875.070313.375.140625.539063.1875.1875.046875.398437.023437.5625-.070313.257813-.164062.304687-.421874.140625-.65625-.140625-.1875-.28125-.328124-.492188-.445312-.1875-.09375-.398437-.1875-.585937-.304688-.585937-.328124-1.195313-.585937-1.828125-.773437-.257812-.070313-.539062-.164063-.84375-.164063-.046875 0-.09375-.023437-.140625-.046874-.09375-.023438-.164063-.070313-.257813-.117188-.164062-.070312-.328124-.164062-.492187-.234375-.070313-.046875-.140625-.117187-.164063-.1875-.164062-.375-.140624-.726563.257813-.984375.09375-.09375.210937-.140625.351563-.1875.1875-.070312.398437-.09375.632812-.070312.304688.023437.585938.070312.914062.117187.398438.046875.820313.140625 1.21875.1875 1.382813.140625 2.765626.117187 4.125-.046875.375-.046875.75-.117188 1.148438-.09375.210938 0 .421875.023438.632812.023438.304688.023437.609376.023437.914063.023437.210937 0 .421875-.070313.5625-.210937.140625-.140626.164063-.304688.046875-.46875-.140625-.164063-.304688-.257813-.515625-.257813-.234375 0-.46875 0-.726563 0-.890624.070313-1.757812.117187-2.648437.164063-1.335937.070312-2.671875-.023438-3.984375-.28125-.375-.070313-.773438-.117188-1.148438-.164063-.351562-.023437-.679687 0-.984374.117187-.445313.164063-.796876.421876-1.101563.773438-.140625.164062-.28125.328125-.398437.492188-.328126.398437-.726563.632812-1.21875.703124-.914063.164063-1.757813-.023437-2.53125-.539062-.117188-.09375-.257813-.1875-.28125-.375-.023438-.09375-.046876-.210938-.070313-.304688-.117187-.609374.28125-1.078124.890625-1.078124.234375 0 .46875.046874.679688.140624.164062.046876.304687.09375.445312.164063.492188.1875.960938.140625 1.382812-.140625.164063-.117188.328126-.257812.46875-.375.234376-.210938.445313-.421875.679688-.609375.117188-.117187.257812-.234375.398438-.328125.304687-.210938.65625-.328125 1.054687-.28125.234375.046875.46875.070312.726563.117188.375.046874.75.09375 1.148437.09375.445313 0 .890625.023437 1.335937.023437.234376 0 .46875 0 .703126-.023437.234374-.023438.46875-.070313.679687-.164063.140625-.09375.257813-.1875.351563-.328125.09375-.164062.070312-.328125-.046876-.492188-.09375-.117187-.257812-.1875-.398437-.210937-.1875 0-.375 0-.539063.046875-.609374.09375-1.195312.164062-1.804687.164062-.210937-.023437-.46875 0-.679687 0-.234376 0-.445313 0-.65625-.023437-.234376 0-.421876-.09375-.609376-.234375-.070312-.070312-.140624-.117188-.164062-.1875-.351562-.679688.234375-1.40625.773438-1.359375.1875 0 .351562.023437.515624.046875.210938.046875.421876.117188.609376.1875.304687.070312.585937.117188.890624.09375.609376-.046875 1.195313-.164062 1.804688-.304688.796875-.1875 1.570312-.375 2.367188-.492187.257812-.046875.492187-.140625.75-.234375.1875-.046875.328124-.1875.445312-.351562.234375-.28125.117188-.632813-.257812-.703126-.117188-.023437-.28125-.023437-.398438 0-.234375.046876-.445312.09375-.65625.164063-.375.117187-.726562.234375-1.101562.328125-.867188.210938-1.757813.398438-2.625.585938-.210938.023437-.445313.046874-.65625.070312-.257813 0-.515626-.070312-.75-.1875-.257813-.164062-.351563-.585938-.140626-.84375.117188-.117188.234376-.234375.375-.304688.1875-.070312.375-.164062.5625-.210937.984376-.375 1.898438-.820313 2.742188-1.40625.5625-.351563 1.125-.679687 1.734375-.960937.1875-.09375.351563-.1875.515625-.304688.140625-.070312.257812-.1875.351562-.28125.070313-.09375.140626-.1875.1875-.304688.09375-.28125-.046874-.515624-.351562-.5625-.1875 0-.351562.023438-.492188.117188-.234374.117188-.46875.257812-.679687.421875-1.054687.703125-2.109375 1.335937-3.234375 1.875-.328125.164063-.632812.304687-.960938.46875-.679687.351563-1.242187.84375-1.640624 1.5-.1875.328125-.445313.609375-.703126.914063-.140624.164062-.257812.328124-.398437.492187-.140625.234375-.257813.492187-.304687.773437 0 .046876.023437.070313.023437.09375.070313.023438.140625.023438.210937.023438zm-2.0625-9.210938c-.070312.09375-.117187.1875-.164062.28125-.046875.070313-.140625.070313-.1875.023438-.046875-.070312-.117188-.140625-.140625-.210938-.046875-.070312 0-.140624.046875-.1875.046875-.070312.09375-.09375.140625-.070312.09375.046875.234375.023438.304687.164062zm-.5625.632813c-.023437 0-.09375 0-.140624-.023437-.023438-.023438-.070313-.070313-.070313-.09375 0-.023438.046875-.070313.070313-.09375.046874-.023438.117187-.046876.1875-.023438.09375 0 .1875.070312.164062.140625-.046875.09375-.117188.09375-.210938.09375zm-6.960937 4.3125c-.046875-.023437-.09375-.046875-.140625-.070313-.023438-.023437 0-.09375.023438-.117187.09375-.046875.1875-.070313.28125-.046875.023437.023438.070312.046875.070312.09375.023438.046875-.023438.09375-.070312.117188-.046876 0-.09375.023437-.164063.023437zm.328125-.445313c-.09375 0-.140625-.070312-.117188-.117187.023438-.023437.046876-.046875.070313-.046875.070313 0 .117187.070312.09375.117188 0 .023437-.023437.046874-.046875.046874zm1.898438 6.023438c-.070313.023438-.09375.046875-.117188.046875-.023438-.023437-.046875-.046875-.070312-.046875.023437-.023438.023437-.070312.046874-.070312.023438 0 .046876.023437.140626.070312zm-6.070313-14.742188c.1875-.351562.117187-.679687-.09375-.984374-.046875-.070313-.117187-.117188-.210937-.140626-.09375-.046874-.164063.023438-.164063.140626 0 .070312.023437.117187-.023437.164062-.09375.070312-.070313.164062-.070313.257812.070313.234376.164063.421876.304687.585938.09375 0 .1875 0 .257813-.023438zm19.6875 21.117188c.1875 0 .328125-.046875.445313-.164062.09375-.09375.09375-.210938.023437-.328126-.070313-.09375-.164063-.164062-.257813-.1875-.140624-.023437-.304687-.023437-.445312.046876-.070312.023437-.140625.09375-.1875.140624-.117188.140626-.09375.304688.070312.375.117188.070313.234376.117188.351563.117188zm-.351563-15.632812c0 .1875.117188.257812.304688.1875.210938-.09375.351562-.257813.421875-.492188.023437-.046875.023437-.09375.023437-.140625-.023437-.140625-.117187-.210937-.234374-.1875-.28125.070313-.515626.351563-.515626.632813zm-26.53125 3.164062c0-.046875-.046874-.140625-.117187-.234375-.09375-.070313-.1875-.140625-.257813-.210937-.09375-.070313-.1875-.070313-.28125 0-.09375.070312-.140624.164062-.117187.28125.070313.210937.234375.375.445313.46875.1875.046874.328124-.046876.328124-.304688zm29.742188 5.320312c.234375-.023437.421875-.117187.539062-.328124.09375-.140626.023438-.28125-.140624-.328126-.023438 0-.070313 0-.09375 0-.234376.023438-.421876.140626-.539063.328126-.09375.140624-.023437.28125.140625.328124zm-26.226562-7.78125c-.023438-.234374-.117188-.421874-.351563-.539062-.140625-.09375-.351563.023438-.304687.210938.023437.1875.09375.375.257812.515624.070312.070313.164062.09375.257812.046876.09375-.046876.140626-.140626.140626-.234376zm-.515626 8.953126c.210938 0 .351563-.164063.28125-.375-.023437-.046876-.070312-.117188-.117187-.164063s-.09375-.070313-.140625-.09375c-.117188-.070313-.234375-.046875-.328125.023437-.09375.070313-.140625.210938-.09375.328126.070313.140624.234375.28125.398437.28125zm2.625 6.398437c.210938 0 .328126-.09375.375-.210937.046876-.140626 0-.234376-.117187-.328126-.046875-.023437-.070313-.046874-.09375-.070312-.140625-.070312-.328125-.023438-.421875.117188-.070312.140624-.046875.304687.09375.398437.046875.046875.140625.070313.164062.09375zm-3.820312-8.671875c0-.023438-.023438-.070312-.023438-.09375-.070312-.1875-.210937-.257812-.375-.304688-.140624-.023437-.28125.117188-.28125.28125.023438.164063.210938.351563.398438.375.164062.023438.28125-.09375.28125-.257812zm-.28125 1.757812c0-.140624-.117188-.257812-.234375-.328124-.140625-.09375-.28125-.070313-.398437.046874-.070313.070313-.09375.140626-.046876.234376.070313.164062.257813.304687.445313.304687.140625 0 .234375-.070313.234375-.257813zm-1.570312-.9375c0-.023437 0-.046874-.023438-.070312-.070312-.1875-.234375-.28125-.398438-.328125-.1875-.023437-.328124.1875-.257812.351563.070312.164062.257812.304687.421875.304687.140625 0 .257813-.117187.257813-.257813zm28.828124 1.804688c.1875 0 .304688-.046875.421876-.164062.046874-.070313.09375-.140626.070312-.210938-.046875-.09375-.09375-.210938-.234375-.210938-.140625-.023437-.304687.023438-.351563.164063-.023437.070313-.070312.09375-.117187.117187-.070313.09375-.046875.234376.046875.28125.070312 0 .117188.023438.164062.023438zm-26.414062-10.710938c-.023438-.210937-.117188-.375-.328125-.492187-.117187-.070313-.257813.023437-.257813.164063 0 .210937.117188.375.257813.515624.046875.046876.117187.070313.210937.023438.070313-.023438.117188-.117188.117188-.210938zm2.53125 3.492188c.023438-.164062-.117188-.398438-.28125-.46875-.117188-.046875-.304688.046875-.304688.1875.023438.164062.070313.328125.210938.445312.070312.09375.1875.09375.257812.070313.09375-.046875.117188-.140625.117188-.234375zm24.84375 1.640625c.210938 0 .445312-.210937.492188-.398437 0-.117188-.070313-.210938-.1875-.210938-.1875.023438-.398438.210938-.445313.398438-.023437.117187.046875.210937.140625.210937zm-2.4375 5.671875c.140625 0 .28125-.09375.375-.1875.046875-.070312.070312-.140625.023438-.234375-.023438-.070313-.09375-.117187-.1875-.140625-.164063 0-.351563.117188-.421876.257812-.046874.164063.046876.28125.210938.304688zm-23.273438.492188c.09375.023437.1875-.046876.234376-.140626.046874-.09375.023437-.210937-.046876-.28125-.046874-.070312-.117187-.09375-.1875-.140624-.09375-.046876-.164062 0-.234374.046874-.070313.070313-.117188.140626-.09375.234376.023437.140624.1875.28125.328124.28125zm3.609376-.046876c0-.09375-.046876-.164062-.164063-.234374-.09375-.070313-.210937-.070313-.304687 0-.09375.09375-.117188.210937-.046876.328124.046876.046876.09375.117188.164063.140626.070313.046874.164063.070312.234375.023437.09375-.070313.117188-.140625.117188-.257813zm-6.65625-9.632812c0-.234375-.117188-.375-.28125-.445312-.070313-.023438-.117188-.070313-.1875 0-.070313.046874-.09375.117187-.070313.1875.046875.164062.140625.304687.28125.375.046875.046874.117187.046874.164063.023437.046874-.023437.070312-.09375.09375-.140625zm3.28125 14.039062c0-.140624-.117188-.210937-.234376-.257812-.09375-.046875-.164062-.023438-.234374.023438-.117188.046874-.140626.1875-.09375.304687.046874.140625.210937.210937.351562.1875s.210938-.117187.210938-.257813zm-3.960938-8.4375c.023438-.210937-.210938-.421874-.421875-.398437-.117187.023437-.1875.140625-.117187.257813.046874.070312.117187.164062.1875.234374.046874.046876.140624.046876.1875.046876.09375.023437.164062-.070313.164062-.140626zm3.304688 5.085938c-.023438 0-.070313 0-.09375.023438-.070313.046874-.140626.140624-.117188.234374.023438.164063.1875.28125.328125.28125.117187 0 .1875-.070312.210937-.1875.046876-.164062-.117187-.351562-.328124-.351562zm12.914062 7.59375c0-.140625-.140625-.304688-.28125-.304688-.140625.023438-.257812.140626-.257812.28125 0 .140626.164062.28125.304687.257813.140625 0 .257813-.117187.234375-.234375zm-14.578125-17.15625c.070313.023438.164063-.046875.164063-.140625.023437-.117187-.023438-.210937-.09375-.304687-.09375-.117188-.257813-.164063-.328126-.117188-.070312.070312-.09375.210938 0 .351562.046876.117188.117188.210938.257813.210938zm8.203125 11.460938c0-.140626-.140625-.28125-.257812-.28125-.140626 0-.257813.09375-.257813.234374-.023437.164063.117187.304688.28125.304688.117187-.023438.234375-.140625.234375-.257812zm12.585938 4.734374c-.046876-.164062-.09375-.304687-.140626-.421874-.1875 0-.257812.023437-.328124.09375-.070313.070312-.070313.234374.023437.28125.117187.023437.234375.070312.351563.09375.023437 0 .046874-.023438.09375-.046876zm7.78125-8.179687c.164062 0 .28125-.070313.351562-.164063.023438-.046874.023438-.117187.023438-.164062-.023438-.070312-.09375-.09375-.140626-.09375-.164062 0-.304687.070312-.375.1875-.046874.09375-.023437.1875.070313.210938.023437 0 .046875.023437.070313.023437zm-31.335938-5.320313c-.023438.046876-.070312.09375-.070312.140626 0 .140624.117187.28125.257812.328124.117188.023438.234375-.046874.210938-.164062-.023438-.164062-.210938-.304688-.398438-.304688zm6.867188 6.398438c.117187 0 .210937-.09375.1875-.1875 0-.140625-.117188-.257812-.257813-.257812-.09375 0-.1875.09375-.1875.1875.023437.140624.140625.257812.257813.257812zm2.578124 4.5c0-.117188-.140624-.234375-.257812-.234375s-.210938.117187-.1875.234375c0 .117188.117188.234375.257812.210938.117188 0 .1875-.09375.1875-.210938zm-7.171874-1.476562c0-.09375-.070313-.164063-.1875-.210938-.117188-.046875-.1875-.023438-.234376.046875-.046874.046875-.046874.09375-.046874.140625.023437.164062.1875.257812.328124.210938.070313-.023438.140626-.09375.140626-.1875zm7.40625.46875c.117187 0 .210937-.070313.210937-.1875.023437-.117188-.09375-.234376-.234375-.257813-.09375 0-.210938.09375-.210938.210937 0 .117188.117188.234376.234376.234376zm6.398437 6.140624c0-.117187-.117187-.234374-.234375-.234374-.117188-.023438-.210938.09375-.210938.210937s.117188.210937.234376.210937c.117187 0 .210937-.09375.210937-.1875zm-7.546875-3.09375c0-.117187-.117188-.210937-.234375-.1875-.09375 0-.1875.09375-.164063.1875 0 .117188.117188.210938.234376.1875.09375 0 .1875-.09375.164062-.1875zm17.648438-3c.023437 0 .070312-.023437.117187-.023437.070313-.046875.117187-.117187.117187-.1875-.023437-.070313-.09375-.140625-.1875-.140625-.117187-.023438-.1875.023438-.257812.09375-.046875.070312-.046875.1875.046875.210938.046875.023437.09375.046874.164063.046874zm-22.21875 2.15625c-.140626-.023437-.210938.070313-.210938.164063.023438.09375.070312.164063.140625.1875.09375.046875.1875.023437.257813-.046875.046874-.070312.046874-.1875-.023438-.234375s-.140625-.070313-.164062-.070313zm-2.015626-6.1875c0-.140624-.164062-.28125-.304687-.234374-.046875.023437-.09375.070312-.09375.117187-.023437.117187.070313.234375.210937.28125.09375 0 .1875-.070313.1875-.164063zm3.09375 7.851563c.09375 0 .1875-.070313.1875-.164063.023438-.070312-.070312-.1875-.1875-.210937-.09375 0-.1875.070313-.210937.164063 0 .117187.09375.210937.210937.210937zm-3.1875-2.789063c.023438-.117187-.046874-.1875-.164062-.234374-.09375-.046876-.1875-.023438-.234375.046874-.023437.023438-.023437.070313-.023437.117188.023437.140625.210937.234375.328124.164062.046876-.023437.070313-.070312.09375-.09375zm27.75-.09375c.023438-.023437.09375-.023437.140626-.046874.046874-.023438.09375-.070313.09375-.117188.023437-.070312-.023438-.117188-.09375-.140625-.09375-.023437-.164063-.023437-.257813.023437-.070313.046876-.117187.117188-.09375.164063 0 .070313.09375.117187.210937.117187zm-22.054687-8.671874c0-.164063-.070313-.234376-.1875-.257813-.046875-.023437-.09375.023437-.117187.046875-.070313.070312-.046876.1875.023437.257812 0 .023438.023437.023438.023437.023438.046876.046875.117188.070312.164063.046875s.070313-.09375.09375-.117187zm12.773437 9.210937c.09375 0 .164063-.09375.164063-.1875s-.09375-.164063-.1875-.164063c-.117187 0-.1875.09375-.1875.1875s.09375.164063.210937.164063zm11.765626-9.234375c-.023438-.023438-.023438-.046875-.070313-.070312-.023437 0-.046875-.023438-.070313 0-.140624 0-.257812.09375-.28125.210937 0 .046875.046876.09375.070313.117187.09375.046876.234375-.023437.328125-.140624 0-.023438.023438-.070313.023438-.117188zm-24.117188 8.648438c.070312-.023438.140625-.09375.140625-.1875s-.117187-.210938-.234375-.1875c-.070312.023437-.140625.117187-.140625.1875.023437.09375.117187.1875.234375.1875zm-6.65625-3.65625c0-.046876 0-.046876 0-.070313-.046875-.09375-.210938-.1875-.328125-.140625-.023437 0-.046875.046875-.046875.09375-.023438.140625.140625.28125.28125.210938.046875 0 .070312-.070313.09375-.09375zm14.578125 6.585937c0-.117187-.09375-.210937-.1875-.210937-.09375-.023438-.1875.070312-.1875.164062s.070313.1875.164063.1875c.117187.023438.210937-.046875.210937-.140625zm-8.53125-1.476563c.117187 0 .1875-.070312.1875-.164062 0-.117188-.09375-.210938-.210937-.210938-.070313.023438-.140626.09375-.140626.164063-.023437.09375.070313.1875.164063.210937zm-3.75-14.132812c0-.140625-.046875-.234375-.140625-.257812-.046875-.023438-.09375-.023438-.117188 0-.023437.023437-.046874.070312-.046874.09375-.023438.117187.023437.1875.117187.257812.023437 0 .070313.023438.117187 0 .023438-.023438.070313-.070312.070313-.09375zm28.6875 2.203125c.023437-.046875-.023437-.117187-.09375-.117187-.164063.023437-.304687.140624-.28125.257812 0 .023438.023437.070312.046875.070312.09375.046876.234375-.023437.304688-.140624.023437-.023438.023437-.046876.023437-.070313zm-32.601563 4.476563c-.117187 0-.1875.09375-.140624.164062.046874.09375.117187.164062.234374.164062.023438 0 .09375-.023437.117188-.070312.023438-.023438.023438-.117188-.023438-.140625-.070312-.046875-.140624-.09375-.1875-.117187zm2.8125 1.875c-.070312 0-.140624.046874-.164062.117187 0 .09375.09375.210937.210938.210937.070312 0 .140624-.046874.140624-.117187.023438-.117187-.070312-.210937-.1875-.210937zm1.265626-.421876c0-.140624-.164063-.234374-.28125-.210937-.023438.023437-.046876.046875-.046876.070313-.070312.140624.070313.28125.210938.257812.046875-.023438.09375-.09375.117188-.117188zm1.617187-9.539062c0-.164062-.046875-.257812-.140625-.28125-.070312-.023438-.140625.023438-.164062.070312 0 .09375.046874.1875.09375.234376.023437.046874.09375.09375.140624.070312.023438-.023438.046876-.070312.070313-.09375zm9.1875 16.5c0-.09375-.09375-.1875-.1875-.164062-.09375 0-.164063.09375-.140625.164062 0 .09375.09375.164062.1875.164062.070312 0 .164062-.09375.140625-.164062zm-11.414063-4.453125c.070313.023437.140626-.046875.164063-.117187 0-.09375-.09375-.1875-.210937-.1875-.070313 0-.140626.046874-.140626.09375-.023437.117187.070313.210937.1875.210937zm3.023438 4.195313c-.070312 0-.140625.070312-.140625.140624 0 .09375.070313.1875.164063.1875s.1875-.09375.164062-.164062c0-.070312-.09375-.140625-.1875-.164062zm-2.484375-9.703126c-.023437-.140624-.210937-.234374-.304687-.164062-.023438 0-.023438.046875-.023438.070312-.023438.09375.023438.140626.09375.1875.023438.023438.09375 0 .140625 0 .046875-.023437.070313-.070312.09375-.09375zm7.804687 14.039063c0-.09375-.09375-.164063-.1875-.164063-.070312 0-.140624.09375-.117187.1875 0 .09375.09375.140626.1875.140626.070313-.023438.117187-.09375.117187-.164063zm-6.257812-5.742187c-.023438-.117188-.140625-.210938-.234375-.1875-.070313 0-.117187.09375-.117187.164062.023437.09375.140624.164062.234374.117188.046876-.023438.070313-.070313.117188-.09375zm14.367188 4.570312c0-.117188-.09375-.1875-.1875-.1875-.09375.023438-.164063.09375-.140626.164062.023438.09375.117188.164063.234376.140626.046874-.023438.070312-.070313.09375-.117188zm8.015624-12.257812c.117188 0 .1875-.046876.234376-.117188 0-.046875 0-.09375 0-.117188-.023438-.046874-.070313-.070312-.117188-.070312-.09375 0-.164062.046875-.1875.140625-.023438.023437-.023438.070313 0 .117187 0 .023438.070312.046876.070312.046876zm-16.03125-2.367188c-.023437-.023438-.023437-.046875-.023437-.070312 0-.070313-.070313-.117188-.140625-.117188s-.117188.046875-.117188.117188c0 .117187.070313.210937.140626.210937.023437 0 .070312-.023437.070312-.046875.023438-.023438.046875-.070312.070312-.09375zm-3.609374 13.570312c.070312-.023437.140624-.070312.140624-.164062-.023437-.070312-.117187-.140625-.1875-.117188-.070312 0-.117187.070313-.117187.117188 0 .09375.070313.164062.164063.164062zm-3.5625-6.539062c-.070313-.023438-.117188.046875-.117188.09375 0 .09375.070312.1875.164062.1875.070313 0 .117188-.046875.140626-.117188 0-.09375-.070313-.164062-.1875-.164062zm7.734374 7.21875c0-.09375-.070312-.164062-.164062-.164062-.070312 0-.117188.070312-.117188.140624 0 .070313.070313.140626.140626.164063.070312 0 .140624-.070313.140624-.140625zm2.976563-26.460938c0-.023437 0-.046874-.023437-.070312-.023438-.046875-.046876-.070312-.070313-.070312s-.070313.023437-.09375.070312c-.023437.023438-.023437.046875-.023437.070312-.023438.140626.023437.210938.09375.234376.070312.023437.117187-.09375.117187-.234376zm-1.757813 22.875c-.070312-.023437-.140624.070313-.140624.140626 0 .046874.070312.117187.140624.140624.070313 0 .117188-.046874.140626-.117187 0-.070313-.070313-.164063-.140626-.164063zm-7.945312-5.859374c-.023438.023437-.070312.070312-.070312.09375 0 .117187.09375.1875.1875.164062.070312 0 .09375-.046875.09375-.117188-.023438-.09375-.09375-.140624-.210938-.140624zm7.453125 8.414062c-.023437.023438-.09375.070312-.09375.140625s.070313.117187.140625.117187c.070312.023438.140625-.046874.140625-.117187s-.070313-.140625-.1875-.140625zm12.28125-1.125c.023437-.023438.09375-.046875.117187-.09375.023438-.070312-.046874-.140625-.140624-.164062-.09375 0-.164063.046874-.164063.117187s.070313.117187.1875.140625zm-21.210937-2.578125c0-.070313-.09375-.140625-.164063-.140625s-.117187.046875-.117187.09375c0 .09375.070312.164062.164062.164062.046875 0 .117188-.046874.117188-.117187zm22.664062 1.710937c-.023438-.023437-.023438-.070312-.046875-.09375-.070313-.070312-.210937-.046874-.257813.046876 0 .023437 0 .09375.023438.117187.070312.046875.164062.046875.234375 0 .023437 0 .023437-.046875.046875-.070313zm-22.429688-15.351562c.046876-.023438.070313-.023438.070313-.046875.023437-.046875.023437-.09375.023437-.140625-.023437-.09375-.117187-.140625-.164062-.09375-.070312.023438-.070312.09375-.046875.164062.023437.046876.09375.070313.117187.117188zm4.898438 14.625c-.023438-.117188-.117188-.1875-.1875-.164062-.046875.023437-.09375.09375-.09375.117187 0 .09375.09375.140625.164062.140625.046876-.023438.09375-.070312.117188-.09375zm4.96875 2.34375c.023438-.070312-.046875-.140625-.117188-.164062-.070312-.023438-.140624.023437-.164062.117187 0 .070313.046875.117187.117188.140625.070312.023438.164062-.023438.164062-.09375zm-2.882812-11.90625c-.023438-.117188-.070313-.164062-.140626-.140625-.070312 0-.09375.046875-.09375.09375 0 .09375.09375.164063.140626.140625.046874-.023438.070312-.070312.09375-.09375zm-4.992188 4.6875c.023438-.09375-.023438-.164062-.117188-.1875-.046874 0-.09375.046875-.09375.09375-.023437.09375.046876.164062.117188.164062.046875 0 .070312-.046874.09375-.070312zm21.140625-1.125c.117187 0 .1875-.046875.1875-.140625 0-.046875-.046875-.09375-.09375-.09375-.09375.023437-.164063.09375-.164063.164063.023438.023437.046876.046874.070313.070312zm-19.734375 8.039062c.070312 0 .117188-.070312.09375-.140624 0-.070313-.070312-.117188-.140625-.09375-.070313 0-.09375.046874-.09375.09375 0 .09375.070313.140624.140625.140624zm6.9375 2.34375c-.070312-.046874-.09375-.09375-.164062-.117187-.046876-.023437-.117188.070313-.09375.117187 0 .070313.070312.117188.140624.09375.046876 0 .070313-.046874.117188-.09375zm-11.320312-2.8125c-.046876 0-.117188.046876-.117188.117188s.046875.09375.117188.117188c.070312 0 .140624-.046876.164062-.09375 0-.070313-.070312-.140626-.164062-.140626zm19.96875 3.75c0-.09375-.046876-.140624-.117188-.140624s-.09375.023437-.117188.09375c0 .070312.046876.117187.140626.117187.046874-.023437.070312-.070313.09375-.070313zm-21.304688-19.40625c-.023438.023438-.046875.070313-.046875.09375 0 .09375.046875.164063.117187.164063.046876 0 .09375-.070313.09375-.117187-.023437-.09375-.09375-.140626-.164062-.140626zm8.578125 17.273438c-.070313-.023438-.117187.046875-.117187.117188 0 .070312.046874.117187.117187.117187.070313.023437.117187-.023437.117187-.09375.023438-.070313-.046874-.140625-.117187-.140625zm-7.078125-7.523438c0-.023437.046875-.046874.046875-.09375.023437-.070312-.046875-.140624-.117187-.140624-.046876-.023438-.117188.023437-.117188.09375.023438.070312.09375.140624.1875.140624zm-1.59375.632813c0-.023437.046875-.070313.070312-.117187 0-.046876-.070312-.09375-.164062-.117188-.046875 0-.09375.046875-.09375.09375 0 .070312.070312.140625.1875.140625zm1.078125 2.390625c.023437-.023438.070313-.046875.09375-.09375 0-.046875-.046875-.117188-.140625-.117188-.023438 0-.070312.046876-.09375.070313-.023438.070313.046875.117187.140625.140625zm-1.429687 1.617188c-.070313-.046876-.117188-.070313-.164063-.09375-.046875 0-.09375.070312-.070313.117187.023438.070313.09375.09375.140626.070313.046874-.023438.070312-.046876.09375-.09375zm2.34375-2.90625c0 .023437-.046876.046874-.070313.070312-.023437.046875.046875.117188.117187.117188.023438 0 .070313-.023438.070313-.070313.023437-.046875-.023437-.117187-.117187-.117187zm22.078124 5.625c.023438-.046876.070313-.070313.070313-.09375.023437-.070313-.023437-.117188-.070313-.117188-.070312 0-.140624.046875-.117187.09375.023437.023438.070313.070312.117187.117188zm-23.8125-.046876c-.046874.046876-.070312.070313-.070312.09375-.023438.070313.046875.117188.117188.117188.046874 0 .09375-.070312.070312-.117188-.023438-.046874-.070312-.046874-.117188-.09375zm26.742188-11.039062c-.070312-.046875-.09375-.070312-.117188-.070312-.070312 0-.117187.046874-.140624.117187 0 .046875.070312.09375.117187.070313.046875-.023438.070313-.070313.140625-.117188zm.65625-.398438c-.046875.046876-.09375.09375-.09375.140626-.023438.046874.023438.070312.070312.070312.070313 0 .140626-.046875.117188-.117188 0-.023437-.046875-.046874-.09375-.09375zm-30.140625-1.359374c0-.09375-.070313-.140626-.117187-.117188-.023438 0-.070313.046875-.070313.070312 0 .046876.046875.117188.117187.117188.023438 0 .070313-.046875.070313-.070312zm18.9375 13.382812c.046875-.046875.09375-.046875.09375-.09375.046875-.046875-.023437-.117188-.09375-.140625-.046875 0-.117187.046875-.09375.09375 0 .046875.046875.09375.09375.140625zm-11.53125-.679688c.046875-.046874.09375-.046874.117187-.09375 0-.046874-.023437-.117187-.09375-.117187-.023437.023437-.070312.046875-.070312.070313 0 .046874.023438.070312.046875.140624zm8.34375 3.140626c-.070313-.046876-.09375-.070313-.140625-.09375 0 0-.070312.046874-.070312.070312-.023438.046875.023437.09375.070312.09375s.070312-.023438.140625-.070312zm-14.671875-8.882813c-.046875.046875-.070312.070313-.070312.117187 0 .046876.046874.09375.09375.070313.046874 0 .070312-.070313.070312-.070313-.023438-.046874-.046875-.070312-.09375-.117187zm12.984375 4.3125c-.046875-.023437-.070313-.046875-.117187-.046875 0 0-.046876.023438-.046876.046875 0 .046875.046876.09375.09375.070313.023438 0 .046876-.023438.070313-.070313zm-3.960937 0c-.046876-.023437-.09375-.070313-.117188-.070313s-.046875.046876-.046875.070313c0 .046875.046875.09375.09375.070313.023437 0 .046875-.046876.070313-.070313zm-.703126-3.585937c-.046874-.023438-.09375-.046876-.117187-.046876-.046875 0-.09375.023438-.070313.070313.023438.023437.046876.070313.09375.070313.023438 0 .046876-.046876.09375-.09375zm9.773438-1.992188c-.070312-.070312-.09375-.09375-.117188-.09375-.023437 0-.046874.023438-.070312.046875 0 .023437.023438.070313.046875.070313s.070313-.023438.140625-.023438zm-8.789062 8.320312c.046874-.046874.070312-.070312.070312-.09375 0-.046874-.023438-.09375-.046875-.09375-.046875-.023437-.117187.023438-.117187.070313.023437.046875.046874.070313.09375.117187zm-9.1875-10.359374c-.046876.046874-.070313.070312-.070313.09375.023437.023437.046875.070312.070313.070312.046874.023438.09375-.023438.070312-.070312-.023438-.023438-.046875-.046876-.070312-.09375zm6.820312 11.71875c-.046875-.023438-.070312-.046876-.09375-.046876-.023438-.023437-.046875.023438-.070312.046876.023437.023437.046874.046874.09375.070312 0 0 .046874-.023438.070312-.070312zm20.53125-5.273438c-.046875-.046875-.070312-.070312-.09375-.070312-.023438-.023438-.046875 0-.070312.023437 0 .023437 0 .070313.023437.070313s.070313-.023438.140625-.023438zm-18.609375 2.90625c-.023437-.023438-.046875-.070312-.09375-.070312 0 0-.023437.023437-.046875.046874.023438.023438.023438.070313.070312.070313 0 .023437.046876-.023437.070313-.046875zm-6.28125-9.585938c-.046875-.046874-.046875-.09375-.09375-.09375 0-.023437-.046875 0-.070313.023438.023438.023438.023438.070312.046876.09375.023437 0 .046874 0 .117187-.023438zm30-.84375c-.023437-.046874-.046875-.09375-.046875-.09375-.046875-.023437-.070312 0-.117188 0 0 .023438 0 .070313.023438.070313.023438.023437.070312.023437.140625.023437zm-3.84375-1.804687c.023437.023437.046875.046875.070313.046875.023437 0 .046874-.023438.070312-.046875-.023438-.023437-.046875-.046875-.070312-.046875-.023438 0-.046876.023438-.070313.046875zm-17.929687-2.25c.046874.023437.09375.046875.117187.070313.023437 0 .046875-.070313.046875-.070313 0-.046875-.046875-.070313-.070312-.09375-.023438 0-.046876.046875-.09375.09375zm-3.210938 15.117187c-.023438.023438-.070312.046876-.046875.070313 0 .023437.023437.046875.046875.046875s.046875-.023438.046875-.046875-.023437-.046875-.046875-.070313zm1.664062 1.476563c-.023437-.046875-.023437-.09375-.046874-.09375-.023438 0-.046876 0-.070313.023437 0 .023438 0 .046876.023437.070313zm-5.132812-18.679687c-.046875-.023438-.070312-.046876-.117188-.070313 0 .023437-.023437.046875-.023437.070313.023437.023437.046875.046874.070313.070312 0-.023438.023437-.046875.070312-.070312zm.65625 13.804687c-.023438.046875-.046875.070313-.046875.09375-.023437.023437.023437.046875.046875.070313.046875 0 .070312-.023438.070312-.070313 0-.023437-.023437-.046875-.070312-.09375zm-4.5-4.195313c-.023438-.046874-.046875-.070312-.046875-.09375-.023437 0-.070313 0-.09375.023438 0 .023438 0 .046875.023437.070312zm4.6875-9.09375c-.023438.023438-.046875.046876-.046875.046876.023437.023437.046875.046874.046875.070312.023438-.023438.046875-.046875.046875-.070312 0-.023438-.046875-.023438-.046875-.046876zm-5.8125 9.164063c0 .023437-.023438.046875-.046875.070313.023437 0 .046875.023437.070313.046874.023437 0 .046874-.046874.046874-.046874-.023437-.023438-.046874-.046876-.070312-.070313zm16.289062 6.492187c-.023437.046876-.046874.046876-.070312.070313 0 .023437.023438.046875.046875.046875s.046875 0 .070313-.023438c-.023438-.023437-.023438-.046874-.046876-.09375zm-13.453124-2.976562c-.046876-.023438-.070313-.046875-.09375-.046875 0-.023437-.046876 0-.046876 0 .023438.046875.023438.070313.046876.070313 0 .023437.046874 0 .09375-.023438zm22.171874 2.765625c.023438-.046875.023438-.046875.046876-.070313 0-.023437-.046876-.046874-.046876-.046874-.023437.023437-.046874.046874-.070312.046874.023438.023438.046875.046876.070312.070313zm-17.367187-1.546875c0 .046875-.023437.070312-.023437.09375.023437.023438.046874.023438.070312.023438 0 0 .046875-.046876.046875-.046876-.023437-.023437-.046875-.046874-.09375-.070312zm-5.765625.539062c-.023438 0-.070312 0-.09375 0 0 0-.023438.023438 0 .023438.023438.023438.046875.023438.070312.046875 0 0 0-.046875.023438-.070313z"
          fill="#0a0a0a" transform="translate(-397 -113)"/>
</svg>