<svg height="36" viewBox="0 0 38 36" width="38" xmlns="http://www.w3.org/2000/svg"><path d="m294.296875 186.421875c-.09375-.09375-.1875-.117187-.304687-.117187-.070313 0-.117188 0-.1875 0-.773438-.046875-1.523438-.140625-2.25-.398438-.398438-.140625-.820313-.210937-1.242188-.28125-.28125-.023437-.5625-.070312-.84375-.140625-.257812-.023437-.492188-.117187-.75-.164062-.164062-.023438-.375-.023438-.5625-.023438-.140625 0-.28125.046875-.398438.117188-.257812.164062-.351562.539062-.046874.773437.09375.070313.210937.140625.328124.1875.234376.09375.46875.140625.703126.140625.328124 0 .632812 0 .9375-.023437.445312 0 .867187.023437 1.289062.140625.445312.117187.84375.210937 1.265625.328125.609375.140625 1.171875.257812 1.78125.257812.375-.023437.75-.023437 1.101563-.023437.515624 0 1.03125.046875 1.523437.210937.304687.070313.609375.1875.914063.28125.210937.070313.445312.117188.65625.09375.304687-.023437.585937-.09375.890624-.164062.46875-.09375.867188-.328125 1.265626-.539063.398437-.1875.773437-.398437 1.148437-.585937.257813-.09375.492187-.1875.75-.28125.304687-.09375.609375-.117188.9375-.046875.46875.09375.773437.421875.796875.890625.023438.117187.023438.234375 0 .375 0 .421875-.070312.820312-.1875 1.21875-.117188.398437-.28125.75-.515625 1.078125-.234375.351562-.585937.539062-.984375.65625-.140625.023437-.257812.070312-.375.117187-.328125.140625-.703125.210938-1.054688.210938-.890624.023437-1.78125.046875-2.671874.070312-.375 0-.75 0-1.125-.070312-.234376-.046875-.515626-.070313-.75-.09375-.234376-.023438-.46875 0-.703126.070312-.679687.234375-1.265624.632813-1.734374 1.195313-.1875.234375-.328126.492187-.351563.796875-.046875.257812-.070313.492187-.070313.773437 0 .5625.070313 1.148438.234376 1.6875.09375.351563.210937.703125.304687 1.03125.210937.679688.164063 1.289063-.164063 1.875-.070312.117188-.140624.210938-.1875.328125-.070312.09375-.117187.234375-.1875.351563-.023437.09375-.070312.210937-.070312.328125 0 .28125.1875.492187.46875.515625.09375 0 .210938-.023438.304688-.046875.234374-.09375.421874-.28125.539062-.515625.257812-.515625.375-1.078125.421875-1.664063.023437-.09375 0-.1875-.023437-.28125-.070313-.515625-.210938-1.007812-.351563-1.523437-.046875-.257813-.164063-.539063-.210937-.796875-.117188-.351563-.1875-.726563-.1875-1.078125.023437-.796875.375-1.382813 1.03125-1.804688.117187-.070312.234374-.140625.375-.164062.398437-.164063.796874-.257813 1.242187-.234375h.820313c.234374 0 .492187-.023438.726562-.09375.28125-.070313.539062-.117188.820312-.164063.1875-.023437.421876-.046875.632813-.070312.328125-.046875.632813-.070313.960937-.046875.117188.023437.234376.023437.328126.070312.351562.164063.445312.5625.210937.867188-.140625.117187-.28125.234375-.445313.257812-.1875.070313-.375.09375-.5625.09375-.210937.023438-.421874 0-.632812.023438-.257812 0-.539062.046875-.773438.234375-.09375.046875-.164062.09375-.257812.046875-.046875-.023438-.117188.070312-.070312.09375.070312.09375.023437.140625-.023438.210937-.421875.609375-.84375 1.171875-1.382812 1.6875-.117188.117188-.234376.257813-.328126.398438-.117187.140625-.1875.28125-.210937.46875-.046875.304687.164063.585937.46875.609375.164063 0 .304687-.023438.421875-.140625.09375-.09375.1875-.1875.257812-.304688.117188-.164062.1875-.328125.304688-.492187.1875-.398438.445312-.773438.726562-1.125.445313-.5625 1.007813-.9375 1.6875-1.101563.140626-.023437.257813-.070312.375-.09375.1875-.046875.375-.070312.539063-.164062.351563-.1875.703125-.445313.984375-.75.257812-.28125.515625-.585938.773438-.867188.09375-.070312.140624-.164062.164062-.28125.117188-.445312.304688-.84375.585938-1.195312.257812-.304688.328124-.679688.328124-1.078125 0-.070313 0-.164063 0-.257813.023438-.375.023438-.75.046876-1.101562.023437-.375.164062-.703125.351562-1.03125.09375-.140625.1875-.28125.328125-.375.539063-.421875 1.101563-.75 1.757813-.914063.046874 0 .09375-.023437.140624-.046875.703126-.210937 1.40625-.46875 2.085938-.773437.1875-.070313.375-.164063.539062-.28125.726563-.492188 1.335938-1.148438 1.710938-1.945313.28125-.609375.515625-1.242187.773438-1.828125.140624-.375.234374-.75.375-1.101562.164062-.445313.304687-.867188.421874-1.335938.09375-.328125.1875-.632812.351563-.9375.070313-.140625.164063-.257812.28125-.398437.164063-.140625.328125-.304688.445313-.492188.070312-.070312.117187-.1875.164062-.304687.023438-.070313-.023438-.140625-.117188-.164063-.117187 0-.210937.023438-.304687.09375-.140625.117188-.28125.234375-.398437.351563-.140626.1875-.304688.398437-.421876.609375-.210937.351562-.375.703125-.445312 1.101562-.070312.28125-.09375.539063-.164062.820313 0 .046875-.023438.09375-.046876.140625-.164062.445312-.375.867187-.445312 1.359375-.046875.1875-.117188.375-.1875.539062-.117188.304688-.234375.585938-.375.84375-.304688.609375-.65625 1.195313-1.101562 1.6875-.257813.28125-.515626.5625-.84375.75-.328126.234375-.703126.421875-1.101563.539063-.703125.210937-1.40625.398437-2.085937.585937-.1875.046875-.398438.070313-.609376.070313-.140624-.023438-.28125-.046875-.445312-.046875-.046875-.164063-.1875-.28125-.304688-.398438-.023437-.023437-.046874-.046875-.070312-.09375-.28125-.328125-.351562-.703125-.234375-1.101562.046875-.117188.09375-.210938.117187-.304688.140626-.328125.304688-.65625.445313-.960937.070313-.140625.140625-.28125.234375-.421875.117188-.164063.28125-.304688.492188-.375.234374-.046875.46875-.09375.703124-.140625h.070313c.28125.070312.5625-.023438.820313 0 .164062-.140625.304687-.257813.46875-.398438.023437-.140625.09375-.28125.164062-.421875.140625-.234375.28125-.492187.398438-.726562.164062-.304688.304687-.609375.539062-.867188.164062-.210937.304688-.445312.421875-.679687.117187-.210938.210937-.421875.328125-.65625.140625-.304688.1875-.679688.1875-1.03125-.023438-.679688.1875-1.289063.421875-1.898438.070313-.140625.164063-.28125.304687-.398437.304688-.257813.609376-.515625.890626-.773438.117187-.117187.234374-.234375.328124-.375.117188-.164062.1875-.375.140626-.585937 0-.046875-.046876-.117188-.09375-.140625-.023438-.023438-.09375 0-.164063.023437-.023437-.023437-.070313-.070312-.117187-.117187-.070313.023437-.140626.070312-.1875.09375-.117188.140625-.257813.1875-.398438.257812-.1875.09375-.351562.117188-.539062.070313-.117188-.023438-.234376-.023438-.351563-.023438-.164063.023438-.304687.117188-.375.28125-.046875.140625-.070313.28125-.070313.445313.023438.164062.023438.328125.046876.492187.046874.304688.046874.609375-.046876.890625-.023437.164063-.070312.304688-.117187.445313-.117187.351562-.140625.679687-.117187 1.007812v.679688c0 .09375-.023438.210937-.070313.28125-.070313.234375-.234375.351562-.46875.351562-.070313-.023437-.140625 0-.210937 0-.070313-.117187-.164063-.234375-.210938-.351562-.164062-.445313-.328125-.890625-.398438-1.359375-.070312-.375-.09375-.75-.117187-1.125-.023437-.492188-.046875-.984375-.304687-1.429688-.117188-.210937-.234376-.421875-.445313-.585937-.1875-.164063-.375-.28125-.5625-.421875-.257813-.164063-.5625-.257813-.867187-.140625-.257813.09375-.398438.257812-.445313.515625-.023437.164062-.023437.28125.070313.421875.117187.234375.140624.492187.070312.773437-.09375.398438-.398438.585938-.796875.492188-.046875-.023438-.09375-.023438-.140625-.023438-.070312-.023437-.09375-.070312-.140625-.117187-.1875-.234375-.28125-.46875-.328125-.75-.023438-.210938-.046875-.398438-.117188-.609375-.070312-.09375-.140624-.1875-.234374-.234375-.164063-.09375-.28125-.070313-.375.070312-.09375.164063-.09375.304688-.070313.46875 0 .1875.070313.351563.09375.539063s.070313.375.09375.5625c.046875.257812.070313.539062.09375.796875.023437.140625.09375.1875.210937.164062.28125-.070312.539063.023438.773438.140625.164062.046875.351562.164063.515625.257813.09375.046875.234375.117187.351563.164062.140624.070313.28125.023438.375-.09375.070312-.070312.09375-.140625.140624-.210937.070313-.210938.09375-.421875.046876-.65625-.023438-.164063-.046876-.351563-.070313-.539063s-.023437-.351562.023437-.539062c.117188-.398438.5625-.585938.914063-.398438.117187.070313.234375.140625.304687.257813.234376.28125.28125.585937.304688.9375.023438.28125.070312.585937.070312.867187.023438.492188.140626.9375.351563 1.382813.140625.375.304687.75.539063 1.078125.023437.046875.046874.117187.070312.140625.09375.164062.117188.351562.09375.539062 0 .164063-.070312.328125-.117188.492188-.070312.210937-.210937.375-.304687.5625-.164063.257812-.328125.539062-.492187.796875-.210938.304687-.46875.46875-.820313.46875-.328125 0-.65625-.023438-.984375-.046875-.304688 0-.515625-.164063-.632812-.46875-.140626-.398438-.304688-.773438-.445313-1.148438-.09375-.257812-.164063-.515625-.234375-.796875-.070312-.1875-.09375-.398437-.164062-.585937-.09375-.304688-.304688-.5625-.539063-.796875-.328125-.328125-.65625-.632813-.914063-1.007813-.140624-.210937-.28125-.398437-.398437-.632812-.234375-.421875-.351563-.890625-.375-1.382813 0-.140625-.023437-.28125-.023437-.445312-.046876-.09375-.070313-.210938-.117188-.304688-.023438-.09375-.117188-.1875-.234375-.234375-.234375-.140625-.46875-.046875-.515625.210938-.117188.375-.046875.726562.09375 1.078125.117188.375.257812.75.421875 1.101562.164063.375.351563.75.515625 1.125.117188.28125.328125.492188.585938.679688.492187.328125.867187.773437 1.125 1.3125.210937.46875.421874.960937.445312 1.476562.023438.210938.09375.375.210938.5625.28125.375.351562.820313.164062 1.289063-.023438.023437-.046875.070312-.046875.09375-.164063.351562-.328125.703125-.46875 1.03125-.140625.375-.398437.609375-.703125.796875-.164062.09375-.304688.140625-.46875.09375-.117188 0-.210938 0-.328125-.023438-.023437-.046875-.046875-.117187-.09375-.164062-.140625-.210938-.1875-.445313-.210937-.703125-.023438-.234375-.046876-.445313-.09375-.679688-.023438-.117187-.046876-.234375-.09375-.351562-.070313-.164063-.164063-.328125-.328126-.421875-.140624-.070313-.257812-.140625-.375-.210938-.46875-.304687-.9375-.585937-1.453124-.726562-.351563-.117188-.679688-.210938-1.03125-.328125-.257813-.117188-.539063-.210938-.796876-.328125-.398437-.1875-.75-.445313-1.054687-.773438-.351563-.351562-.679687-.726562-1.148437-.984375-.023438-.023437-.046876-.046875-.070313-.046875-.234375-.210937-.492187-.304687-.796875-.304687-.1875-.023438-.398438-.023438-.609375 0-.632813.09375-1.242187.257812-1.851563.421875-.398437.09375-.796874.1875-1.21875.234375-.585937.117187-1.21875.09375-1.828124-.070313-.234376-.046875-.46875-.046875-.703126-.070312-.140624-.023438-.28125.023437-.421874.09375-.210938.09375-.304688.28125-.257813.515625.023437.09375.070313.164062.117187.257812.140626.234375.375.375.609376.46875.445312.210938.890624.304688 1.359374.375.210938.046875.445313.046875.632813-.09375 0-.023437.046875-.046875.070313-.023437.1875.046875.375-.046875.539062-.09375.398438-.117188.820312-.257813 1.21875-.421875.375-.117188.726562-.257813 1.078125-.375.328125-.09375.65625-.164063.984375-.1875.46875 0 .890625.117187 1.265625.375.28125.1875.46875.421875.703125.632812.234375.210938.46875.445313.703125.632813.140625.117187.28125.1875.421875.257812.46875.210938.960938.351563 1.476562.46875.398438.070313.773438.1875 1.148438.351563.375.164062.679688.421875.9375.75.210938.234375.328125.515625.375.820312.09375.539063-.023438 1.007813-.421875 1.359375-.375.351563-.796875.609375-1.242187.820313-.304688.117187-.609376.117187-.914063.023437-.140625-.046875-.257813-.09375-.375-.164062-.234375-.070313-.46875-.164063-.726563-.234375-.140624-.070313-.28125-.09375-.304687-.257813 0-.023437 0-.046875-.023437-.070312-.234376-.304688-.46875-.632813-.703126-.9375-.140624-.1875-.28125-.375-.539062-.46875-.046875 0-.070312-.023438-.09375-.070313-.117188-.117187-.28125-.164062-.445312-.1875-.234376-.046875-.46875-.070312-.703126-.117187-.164062-.023438-.328124-.023438-.46875-.046875-.492187-.140625-.960937-.351563-1.382812-.679688-.09375-.046875-.1875-.117187-.28125-.164062-.210938-.117188-.445312-.164063-.703125-.117188-.328125.09375-.46875.421875-.28125.726563.09375.164062.234375.257812.398437.328125.1875.09375.351563.164062.539063.210937.351563.117188.65625.257813.960937.445313.164063.140625.351563.257812.5625.375.304688.164062.585938.304687.9375.328125.28125.046875.5625.117187.820313.1875.164063.046875.328125.140625.46875.234375.234375.164062.375.398437.398437.679687 0 .164063 0 .304688.023438.445313 0 .210937.070312.398437.28125.515625.023438.046875.09375.09375.117188.164062.09375.164063.234374.234375.421874.28125.398438.070313.75.023438 1.078126-.1875.375-.210937.726562-.398437 1.078124-.609375.328126-.1875.65625-.398437.960938-.65625.304688-.257812.632812-.445312.984375-.609375.070313-.046875.164063-.070312.257813-.070312.140624-.023438.304687 0 .398437.140625.070313.117187.1875.140625.328125.117187.023438-.023437.046875-.046875.046875-.070312.070313-.1875.210937-.234375.375-.234375.09375 0 .1875.023437.28125.046875.28125.09375.46875.328125.585937.585937.164063.328125.046876.679688-.257812.84375-.1875.117188-.398438.164063-.585938.117188-.210937-.046875-.445312-.117188-.65625-.164063-.421874-.140625-.796874-.117187-1.195312.070313-.703125.328125-1.359375.75-2.015625 1.125-.46875.234375-.9375.421875-1.453125.46875-.75.070312-1.429688-.210938-2.039062-.585938-.28125-.1875-.585938-.304687-.914063-.304687-.351563 0-.703125-.023438-1.054687-.023438-.070313 0-.164063.023438-.257813.09375zm17.765625 5.484375c-.234375 0-.492188-.023437-.726562.023438-.445313.09375-.867188.046875-1.3125-.023438-.164063-.023437-.328126-.046875-.492188-.046875s-.257812.046875-.328125.1875c-.164063.28125-.445313.46875-.75.515625-.1875.046875-.351563.046875-.5625.046875-.1875 0-.398437 0-.632813-.023437-.328124-.023438-.65625 0-.9375-.1875-.023437 0-.023437-.023438-.023437-.023438-.257813 0-.492187-.117187-.726563-.234375-.09375-.046875-.234374-.09375-.351562-.117187-.234375-.070313-.492188-.046875-.679688.117187-.09375.070313-.210937.140625-.304687.234375-.257813.210938-.5625.398438-.890625.5625-.210938.09375-.421875.210938-.632812.351563-.609376.304687-1.101563.75-1.476563 1.359375-.257813.421875-.65625.703125-1.101563.914062-.164062.09375-.351562.140625-.492187.257813-.421875.234375-.726563.585937-.890625 1.03125-.140625.375-.1875.773437 0 1.148437.234375.492188.632812.75 1.195312.796875.234376.023438.492188-.023437.703126-.117187.1875-.046875.351562-.140625.515624-.210938.140626-.046875.28125-.09375.445313-.164062.398437-.117188.796875-.09375 1.195313.117187.234374.117188.46875.257813.65625.445313.070312.070312.1875.164062.257812.257812.234375.328125.421875.679688.585938 1.054688.046874.140625.140624.28125.234374.398437.140626.164063.328126.257813.5625.1875.234376-.070312.375-.257812.398438-.515625 0-.164062-.023438-.351562-.117188-.515625-.09375-.140625-.1875-.28125-.304687-.421875-.164063-.210937-.375-.375-.585937-.5625-.117188-.140625-.28125-.234375-.445313-.304687-.164063-.046875-.28125-.140625-.398437-.234375-.117188-.117188-.234376-.1875-.375-.257813-.210938-.117187-.445313-.1875-.65625-.28125-.070313-.023437-.140626-.070312-.1875-.117187-.117188-.140625-.257813-.28125-.351563-.421875-.421875-.609375-.5625-1.242188-.304687-1.945313.09375-.234375.210937-.445312.375-.632812.257812-.328125.609374-.609375.960937-.820313.328125-.1875.632813-.375.9375-.539062.234375-.117188.492187-.210938.726563-.304688.257812-.117187.539062-.140625.796874-.09375.5625.046875 1.03125.515625.914063 1.148438-.023437.1875-.070313.351562-.117187.515625-.117188.28125-.234376.5625-.328126.84375-.070312.164062-.140624.304687-.164062.46875-.046875.164062-.046875.328125-.023438.46875.023438.210937.210938.398437.398438.421875.1875.046875.351562-.070313.492188-.257813.023437-.070312.070312-.117187.070312-.1875.023438-.140625.070312-.257812.070312-.375.023438-.1875.046876-.398437.046876-.585937 0-.234375 0-.445313.046874-.679688 0-.234375.023438-.445312.09375-.65625.09375-.375.328126-.632812.703126-.726562.28125-.070313.5625-.09375.867187-.117188.304687 0 .46875.140625.539063.492188.046874.140625.023437.28125-.023438.421875-.046875.117187-.117188.28125-.1875.421875-.070312.164062-.164062.304687-.234375.46875-.140625.304687-.210937.609375-.257813.9375-.046874.234375-.117187.445312-.164062.679687-.046875.1875-.117188.351563-.1875.515625-.023438.140625-.070312.28125-.09375.421875 0 .117188 0 .234375.046875.351563.09375.257812.328125.351562.585937.257812.117188-.023437.210938-.140625.257813-.257812.046875-.140625.09375-.304688.117187-.46875.023438-.210938.023438-.421875.023438-.632813.046875-.445312.140625-.890625.28125-1.335937.140625-.515625.257812-1.03125.375-1.570313.023438-.070312.046875-.140625.046875-.234375.09375-.351562.328125-.609375.703125-.703125.234375-.070312.445312-.117187.679688-.164062.164062-.070313.328124-.09375.492187-.164063.257813-.09375.421875-.28125.421875-.609375zm-12.257812 6.046875c-.234376-.234375-.328126-.492187-.351563-.796875-.023437-.398437.421875-.914062.890625-.84375.09375.023438.1875.046875.304688.070313.234374.164062.304687.421875.351562.679687.070312.351563-.140625.75-.492188.84375-.117187.046875-.234374.046875-.328124.046875-.117188.023438-.234376 0-.375 0zm13.945312-13.195312c.046875.070312.09375.164062.140625.234375.164063.328125.140625.679687-.117187.960937-.070313.09375-.164063.164063-.28125.234375-.257813.210938-.585938.375-.890626.46875-.140624.023438-.28125.09375-.398437.164063-.1875.09375-.28125.257812-.28125.46875 0 .070312.046875.164062.09375.210937.1875.164063.351563.28125.609375.210938.117188-.023438.234375-.046875.375-.09375l.421875-.140625c.328125-.09375.65625-.117188.984375-.046875.515625.117187 1.054688.164062 1.59375.234375.164062.023437.351562.023437.539062-.070313.328126-.210937.632813-.445312.867188-.773437.046875-.023438.09375-.070313.09375-.140625.070312-.164063.117188-.328125.164062-.492188.023438-.117187-.023437-.1875-.140624-.1875-.210938 0-.445313.023438-.65625.023438-.304688.046875-.585938.164062-.820313.351562-.09375.070313-.164063.117188-.257813.164063-.210937.117187-.46875.1875-.726562.117187-.117188-.023437-.234375-.046875-.351562-.070312-.070313-.09375-.117188-.164063-.1875-.257813-.164063-.28125-.140626-.515625 0-.773437.09375-.164063.210937-.257813.351562-.351563.164062-.070312.28125-.1875.445312-.210937.164063-.046875.234376-.117188.304688-.257813s.09375-.328125.09375-.515625-.09375-.28125-.304688-.398437c-.070312.257812-.28125.304687-.46875.328125-.28125.070312-.5625.117187-.84375.046875-.328124-.070313-.65625-.164063-.960937-.28125-.679687-.1875-1.335937-.1875-1.96875.117187-.328125.140625-.679687.28125-1.007813.46875-.632812.328125-1.242187.679688-1.875 1.03125-.679687.398438-1.242187.914063-1.617187 1.59375-.070313.117188-.140625.234375-.1875.328125-.1875.421875-.375.84375-.539063 1.265625-.070312.210938-.140624.398438-.1875.609375-.046874.164063-.023437.328125.046876.492188.164062.351562.421874.5625.796874.65625.234376.070312.445313 0 .585938-.210938.117188-.140625.1875-.351562.210938-.539062.046874-.257813.046874-.515625.070312-.773438.023438-.28125.023438-.5625.070312-.820312.070313-.46875.234376-.914063.492188-1.3125.234375-.375.5625-.703125.9375-.9375.632812-.421875 1.289062-.820313 1.992188-1.148438.539062-.234375 1.101562-.375 1.710937-.351562.257813.023437.539063.070312.796875.210937.070312.070313.164062.09375.28125.164063zm3.703125 5.53125c-.046875-.09375-.09375-.164063-.164063-.234375-.070312-.070313-.117187-.164063-.1875-.210938-.28125-.164062-.539062-.328125-.84375-.398437-.445312-.09375-.867187-.234375-1.289062-.328125-.164062-.046875-.351562-.046875-.539062-.070313-.257813 0-.539063 0-.820313 0-.046875 0-.070313 0-.09375.023438-.28125.140625-.609375.09375-.914063.117187-.421874 0-.84375-.070312-1.242187-.1875-.234375-.070312-.46875-.140625-.632813-.375-.023437-.046875-.070312-.070312-.117187-.117187-.117187-.140625-.234375-.28125-.304687-.46875-.210938-.492188-.140626-.914063.257812-1.289063.046875-.046875.09375-.09375.164062-.140625.445313-.351562.9375-.632812 1.453126-.84375.375-.1875.75-.375.984374-.75.070313-.070312.140626-.117187.210938-.210937 0-.023438-.023438-.09375-.046875-.09375-.046875 0-.117187 0-.164063 0-.140624.070312-.28125.140625-.421874.1875-.328126.09375-.632813.234375-.914063.398437-.585937.328125-1.195313.679688-1.78125 1.054688-.257813.140625-.46875.328125-.679687.539062-.140626.140625-.210938.328125-.257813.515625-.046875.328125-.070313.65625-.070313.984375 0 .304688.140626.539063.375.703125.328126.234375.65625.46875 1.03125.632813.351563.164062.726563.304687 1.125.304687.234376 0 .46875 0 .703126-.023437.421874-.046875.867187-.09375 1.289062-.164063.796875-.140625 1.546875-.023437 2.273438.375.140624.070313.304687.140625.421874.210938.421876.1875.820313.164062 1.195313-.140625zm-23.859375-17.484375c-.304688 0-.515625.234375-.46875.539062.023438.140625.046875.28125.164062.398438.09375.140625.210938.28125.351563.398437.234375.164063.445313.328125.703125.445313.210938.117187.375.304687.632812.351562 0 0 .023438.023438.023438.023438.09375.164062.257812.210937.398438.234375.375.09375.703124.234375 1.054687.375.890625.398437 1.734375.914062 2.460937 1.617187.328126.304688.632813.585938.984376.867188.140624.140625.328124.234375.515624.328125.164063.09375.351563.164062.515626.234375.609374.28125 1.125.65625 1.570312 1.148437.117188.117188.234375.234375.328125.351563.1875.164062.304687.351562.398437.539062.023438.023438.046876.070313.070313.09375.046875.070313.140625.046875.164063-.023437.070312-.09375.046874-.1875.046874-.28125-.046874-.09375-.070312-.164063-.070312-.257813-.023438-.234375-.09375-.421875-.234375-.585937-.304687-.351563-.5625-.679688-.984375-.914063-.046875-.023437-.117188-.070312-.164062-.117187-.375-.28125-.773438-.539063-1.171876-.796875-.210937-.140625-.46875-.257813-.609374-.46875-.023438 0-.023438-.023438-.023438-.023438-.234375-.210937-.46875-.421875-.703125-.609375-.28125-.210937-.515625-.421875-.796875-.609375-.304688-.234375-.65625-.46875-1.007812-.703125-.164063-.140625-.351563-.257812-.539063-.375-.46875-.234375-.960937-.445312-1.429687-.679687-.117188-.046875-.234376-.117188-.351563-.164063-.140625-.070312-.28125-.164062-.375-.28125-.304687-.328125-.65625-.632812-1.03125-.890625-.140625-.09375-.28125-.140625-.421875-.164062zm13.875 10.664062c.234375 0 .492188-.070312.726562-.1875.46875-.210937.84375-.539062 1.171876-.914062.492187-.539063.890624-1.148438 1.242187-1.804688.09375-.234375.210937-.46875.304687-.703125.070313-.164062.117188-.375.117188-.5625-.023438-.140625-.023438-.28125-.140625-.375-.117187-.140625-.257813-.210937-.421875-.28125-.070312-.023437-.164062 0-.234375.023438-.164063.046875-.304687.140625-.398437.257812-.234376.257813-.421876.539063-.5625.84375-.234376.46875-.5625.867188-.960938 1.195313-.257812.1875-.539062.351562-.820312.515625-.164063.09375-.328126.1875-.492188.304687-.234375.164063-.398438.398438-.445312.703125-.046876.28125.023437.515625.210937.703125.210937.210938.445313.28125.703125.28125zm8.109375-1.359375c-.140625-.117187-.28125-.117187-.421875-.117187-.117188 0-.210938 0-.328125.023437-.28125.023438-.5625 0-.867187-.070312-.046876-.023438-.09375-.046875-.140626-.09375-.046874-.046875-.09375-.117188-.140624-.164063-.140626-.1875-.234376-.375-.210938-.585937 0-.140625 0-.28125.023438-.421875.046874-.257813.117187-.515625.1875-.773438.09375-.445312.28125-.84375.585937-1.195312.046875-.070313.09375-.140625.140625-.210938.1875-.375.46875-.703125.726562-1.03125.164063-.210937.328126-.398437.492188-.609375.304688-.398437.539062-.820312.703125-1.289062.117187-.28125.164063-.539063.164063-.84375-.023438-.421875-.140626-.820313-.328126-1.171875-.210937-.375-.375-.75-.492187-1.171875-.046875-.117188-.070313-.210938-.140625-.328125-.023438-.070313-.070312-.140625-.09375-.1875-.257812-.304688-.5625-.164063-.679688.046875-.140624.328125-.1875.65625.117188.9375.09375.117187.1875.210937.304688.304687.210937.164063.351562.421875.46875.65625.117187.210938.1875.445313.210937.679688.09375.398437-.023437.773437-.304687 1.078125-.117188.09375-.210938.210937-.328126.328125.09375.257812.023438.46875-.09375.679687-.375.585938-.75 1.171875-1.148437 1.710938-.1875.257812-.328125.492187-.445313.773437-.164062.46875-.328124.960938-.46875 1.453125-.023437.117188-.070312.234375-.09375.351563-.070312.234375-.140624.421875-.164062.65625-.046875.445312.140625.773437.539062.960937.023438 0 .070313.023438.09375.046875.117188.046875.210938.09375.328126.140625.257812.117188.539062.210938.820312.210938.304688-.023438.5625-.09375.726562-.351563.023438-.046875.046876-.070312.09375-.117187.09375-.070313.140626-.164063.164063-.304688zm-3.960937 15.773438s0 0-.023438 0c0-.09375 0-.1875 0-.28125.046875-.164063.046875-.328125.09375-.445313.140625-.445312.585938-.632812 1.007812-.46875.164063.046875.304688.117188.398438.257813.09375.164062.210938.328125.304688.492187.070312.140625.140624.304688.210937.46875.09375.164063.1875.351563.328125.46875.117188.09375.234375.164063.398438.210938.28125.023437.492187-.140625.539062-.421875 0-.164063-.023438-.328125-.09375-.492188-.09375-.1875-.210938-.398437-.351562-.5625-.375-.421875-.796876-.820312-1.195313-1.195312-.09375-.070313-.1875-.117188-.28125-.164063-.140625-.070312-.28125-.117187-.398437-.234375-.046876-.09375-.164063-.09375-.257813-.117187-.375-.046875-.679687.09375-.9375.351562-.140625.1875-.257813.398438-.328125.632813-.140625.328125-.28125.65625-.398438 1.007812-.070312.1875-.09375.398438-.140624.632813-.023438.117187 0 .28125.046874.421875.023438.1875.164063.328125.328126.421875.234374.117187.445312.046875.609374-.164063.046876-.09375.117188-.210937.117188-.351562s.023438-.304688.023438-.46875zm-20.132813-7.242188c0-.09375 0-.164062 0-.210937-.046875-.421875-.210937-.75-.609375-.890625-.070312-.023438-.117188-.046875-.164062-.09375-.28125-.164063-.65625-.117188-.890626.117187-.140624.140625-.210937.304688-.140624.492188.046874.164062.117187.304687.1875.46875.046874.09375.117187.1875.164062.304687.210938.492188.140625.914063-.164062 1.335938-.117188.164062-.257813.304687-.421876.421875-.164062.117187-.328124.234375-.492187.375-.164063.117187-.28125.28125-.328125.46875-.070312.234375.023438.445312.257812.515625.046876.023437.140626.023437.1875.023437.117188-.023437.234376-.070312.351563-.046875.140625.046875.234375-.023437.328125-.117187h.046875c.140625-.023438.210937-.09375.304687-.164063.140626-.117187.28125-.257812.375-.398437.375-.46875.632813-.984375.820313-1.546875.117187-.351563.1875-.703125.1875-1.054688zm22.5.820313c0 .210937.046875.421875.117187.585937.09375.234375.1875.46875.304688.679688.234375.445312.351562.914062.398438 1.429687.023437.1875.070312.398438.117187.5625 0 .117188.070313.210938.117187.304688.140626.234375.351563.328125.632813.28125.257813-.046875.398437-.234375.46875-.492188.046875-.164062.046875-.375 0-.539062-.046875-.234375-.070313-.46875-.117187-.679688-.023438-.351562-.046876-.65625.023437-.984375.023437-.117187 0-.1875-.046875-.304687-.140625-.234375-.257812-.492188-.375-.726563-.234375-.515625-.703125-.796875-1.195312-1.007812-.09375-.046875-.164063 0-.210938.117187-.046875.070313-.070312.164063-.117188.234375-.070312.164063-.140624.351563-.117187.539063zm-14.953125-1.734375c.46875-.023438 1.007812-.09375 1.5-.257813.140625-.046875.234375-.09375.351562-.140625.234376-.117187.398438-.28125.492188-.515625.234375-.5625-.234375-.984375-.632812-.9375-.164063.023438-.351563.070313-.515626.117188-.515624.210937-1.054687.351562-1.59375.515625-.164062.046875-.28125.117187-.421874.1875-.09375.046875-.1875.117187-.257813.1875-.140625.1875-.117187.375.023437.539062.070313.117188.1875.164063.304688.210938.234375.09375.46875.117187.75.09375zm-.796875-18.140625c0 .375.09375.726562.210937 1.078125.09375.328125.257813.632812.539063.867187.210937.1875.398437.210938.65625.070313.09375-.09375.1875-.164063.234375-.304688.023438-.140625.09375-.257812.09375-.398437.070312-.609375-.09375-1.171875-.375-1.6875-.117188-.210938-.328125-.375-.5625-.46875-.328125-.164063-.585938-.046875-.726562.28125-.070313.1875-.09375.375-.070313.5625zm20.835937 16.570312c-.046874.023438-.09375.070313-.140624.09375-.070313.070313-.140626.140625-.210938.210938-.1875.164062-.257812.421875-.234375.679687.046875.398438.234375.726563.585937.960938.046876.023437.09375.046875.117188.09375.328125.234375.679688.304687 1.078125.1875.421875-.09375.609375-.398438.585937-.84375 0-.117188-.046874-.210938-.140624-.304688-.351563-.351562-.773438-.609375-1.21875-.84375-.140626-.070312-.28125-.140625-.421876-.234375zm-13.40625-10.007812c.046876.164062 0 .375.210938.539062 0 0 .023438.046875.023438.046875 0 .1875.140624.304688.257812.421875.046875.046875.117188.09375.1875.09375.28125.023438.5625-.023437.773438-.234375.304687-.304687.421874-.679687.304687-1.101562-.046875-.1875-.117187-.351563-.28125-.46875-.140625-.117188-.304687-.1875-.46875-.28125-.046875-.023438-.070313-.023438-.09375-.023438-.234375-.023437-.421875.046875-.585937.1875-.234376.210938-.328126.46875-.328126.820313zm10.875.867187c0-.164062 0-.1875-.117187-.398437-.023437-.046875-.09375-.09375-.1875-.09375-.070313-.023438-.140625 0-.210937.023437-.515626.234375-.960938.5625-1.265626 1.054688-.070312.09375-.117187.234375-.164062.351562-.070312.398438.28125.75.679688.65625.09375-.023437.234374-.09375.328124-.140625.257813-.164062.46875-.375.632813-.632812.164063-.257813.257813-.539063.304687-.820313zm-4.242187-3.351562c0-.304688-.140625-.539063-.398437-.65625-.234376-.117188-.46875-.070313-.65625.070312-.234376.1875-.375.421875-.398438.726563 0 .164062.023438.328125.09375.46875.164062.257812.445312.398437.796875.257812.328125-.140625.585937-.5625.5625-.867187zm6.164063 19.78125c.304687 0 .492187-.09375.632812-.328125.140625-.210938.09375-.445313-.023438-.632813-.070312-.1875-.421874-.398437-.609374-.445312-.257813-.023438-.46875.046875-.65625.1875-.117188.09375-.1875.257812-.234376.398437-.023437.164063.023438.328125.164063.421875.023437.023438.070313.046875.09375.09375.164063.234375.421875.28125.632813.304688zm.890624-11.929688c.375 0 .726563-.304687.773438-.679687 0-.046875 0-.09375 0-.140625-.046875-.304688-.398438-.515625-.65625-.445313-.328125.070313-.539062.28125-.632812.585938-.117188.398437.140624.703125.515624.679687zm-17.296874 18c.023437-.164062-.023438-.304687-.09375-.421875-.046876-.09375-.164063-.09375-.234376-.140625-.164062-.164062-.351562-.117187-.515624-.046875-.304688.164063-.445313.5625-.328126.914063.117188.304687.46875.445312.773438.28125.257812-.117188.375-.328125.398438-.585938zm12.445312-26.976562c.070312-.140625.164062-.257813.210938-.375.023437-.046875.046874-.09375.070312-.164063.023438-.070312-.046875-.164062-.140625-.140625-.070313.046875-.1875.070313-.257813.140625-.1875.09375-.375.117188-.585937.117188-.09375 0-.164063-.046875-.234375-.117188-.140625-.210937-.234375-.398437-.164062-.632812 0-.070313.023437-.140625.023437-.210938 0-.046875 0-.117187 0-.164062-.023437-.09375-.164063-.140625-.210937-.070313-.070313.070313-.117188.140625-.140626.210938-.070312.1875-.070312.398437-.023437.609375.046875.164062.09375.328125.117187.515625.023438.140625.09375.234375.234376.28125.164062.046875.328124.117187.492187.1875.1875-.09375.375-.210938.609375-.1875zm4.125 4.546875c0-.304688-.257812-.5625-.5625-.515625-.375.023437-.65625.351562-.679688.703125-.023437.351562.28125.609375.632813.539062.328125-.09375.585937-.398437.609375-.726562zm-.796875 6.210937c.421875 0 .65625-.210937.703125-.5625.023438-.117187 0-.210937-.070312-.304687-.140626-.140625-.304688-.28125-.492188-.304688-.304688-.023437-.609375.1875-.703125.46875-.117187.328125.023437.585938.351563.65625.09375.023438.1875.046875.210937.046875zm2.4375-5.109375c0-.1875-.046875-.328125-.164063-.398437-.210937-.164063-.445312-.164063-.679687-.070313-.234375.117188-.398437.28125-.445313.5625v.070313c0 .140625.046876.257812.1875.328125.28125.210937.773438.117187.960938-.210938.070312-.09375.09375-.210937.140625-.28125zm-1.804687-3.1875c-.023438-.117187-.046876-.210937-.140626-.304687-.257812-.28125-.726562-.210938-.890624.140625-.023438.046875-.070313.140625-.09375.210937-.09375.304688.210937.65625.515624.585938.117188 0 .210938-.046875.304688-.117188.1875-.09375.28125-.28125.304688-.515625zm-25.21875 7.21875c.023437-.210937-.070313-.351562-.234376-.445312 0-.023438-.023437-.023438-.070312-.046875-.09375-.070313-.234375-.140625-.375-.09375-.117188.046875-.257812.117187-.375.1875-.023438.023437-.046875.09375-.070312.140625-.046876.164062.023437.328125.117187.445312.117187.117188.257813.210938.421875.257813.328125.070312.585938-.117188.585938-.445313zm-2.976563.023438c.46875-.023438.585937-.164063.398437-.609375-.070312-.210938-.234374-.28125-.398437-.375-.1875-.09375-.421875-.046875-.585937.117187-.117188.140625-.117188.375.023437.5625s.351563.28125.5625.304688zm26.25-2.390625h.09375c.1875-.09375.375-.1875.539063-.351563.09375-.09375.164062-.210937.210937-.375 0-.046875 0-.117187-.046875-.164062-.09375-.070313-.210938-.140625-.351562-.117188-.257813.023438-.515626.117188-.65625.398438-.023438.070312-.070313.140625-.09375.210937-.070313.234375.046874.398438.304687.398438zm.421875 1.476562c0-.257812-.234375-.46875-.515625-.46875s-.515625.257813-.515625.5625c0 .234375.234375.445313.492188.445313.304687 0 .539062-.257813.539062-.539063zm.421875-.515625c.09375.023438.1875.070313.257813.070313.351562.070312.679687-.1875.703124-.515625 0-.140625-.023437-.28125-.164062-.351563-.1875-.117187-.445312-.09375-.632812.117188-.140626.1875-.210938.398437-.164063.679687zm-19.453125 17.835938c0 .234375.140625.398437.375.421875.257812.046875.492188-.164063.492188-.445313.023437-.257812-.140626-.375-.375-.421875-.234376-.046875-.46875.1875-.492188.445313zm6.632812-5.015625c-.023437-.210938-.234374-.421875-.445312-.421875-.234375 0-.421875.210937-.421875.445312.023437.234375.210937.421875.445313.421875.234374 0 .421874-.210937.421874-.445312zm15.796876-18.445313c-.257813 0-.46875.28125-.445313.539063 0 .164062.140625.28125.304687.304687.234376 0 .375-.140625.46875-.304687.140626-.257813-.046874-.539063-.328124-.539063zm.257812 7.101563c0-.210938 0-.210938-.164062-.304688-.023438 0-.046876-.023437-.070313-.023437-.164063-.070313-.375 0-.492187.140625-.117188.140625-.117188.328125-.046876.445312.117188.140625.328126.210938.515626.140625.164062-.070312.257812-.1875.257812-.398437zm.539062 1.734375c-.234374 0-.375.09375-.445312.257812-.09375.140625-.070312.28125.046875.375.257813.257813.609375.09375.726563-.117187.023437-.117188.070312-.210938 0-.304688-.09375-.117187-.210938-.210937-.328126-.210937zm-12.9375-16.78125c0-.046875 0 0 0 .023437.046876.117188.09375.210938.210938.257813.09375.046875.234375 0 .304688-.09375.117187-.164063.164062-.328125.09375-.492188-.046876-.117187-.09375-.164062-.210938-.1875-.234375-.023437-.351562.046875-.398438.28125zm11.671876 16.054687c-.234376 0-.421876.070313-.515626.28125-.046874.09375-.070312.1875 0 .28125.070313.09375.164063.117188.28125.09375.257813-.046875.421876-.257812.421876-.492187 0-.070313-.070313-.140625-.117188-.140625-.046875-.023438-.070312-.023438-.070312-.023438zm1.875-2.8125c.1875.023438.257812-.09375.328124-.328125.023438-.09375-.117187-.210937-.257812-.234375-.164062-.023437-.328125.140625-.351562.304688 0 .140625.09375.257812.28125.257812zm-28.734376 14.765625c.140626 0 .257813-.09375.28125-.210937.023438-.117188-.023437-.234375-.1875-.28125-.023437-.023438-.046874-.046875-.09375-.046875-.09375-.023438-.210937 0-.257812.09375-.070312.117187-.070312.210937 0 .304687.070312.070313.164062.117188.257812.140625zm29.414063-8.320312c.070313-.046875.164063-.09375.257813-.140625.070312-.070313.09375-.164063.046874-.234375-.140624-.210938-.398437-.210938-.539062-.023438-.046875.070313-.09375.164063-.023438.257813.046876.070312.117188.117187.257813.140625zm-.304687-4.898438c0-.046875 0-.070312-.023438-.09375-.070312-.09375-.234375-.140625-.375-.09375-.117188.046875-.210938.210938-.1875.351563.023438.023437.046875.070312.070312.09375.09375.09375.210938.09375.328126.023437.117187-.023437.1875-.164062.1875-.28125zm-1.523438 3.492188c0-.09375-.117188-.210938-.234375-.234375-.117187-.046875-.1875.023437-.257813.117187-.070312.070313-.09375.1875-.046874.257813.070312.09375.1875.164062.304687.117187.140625-.023437.234375-.140625.234375-.257812zm-30.5625 9.164062c0-.09375-.046875-.140625-.117188-.164062-.09375-.046875-.1875-.117188-.304687-.046875-.070313.070312-.117187.164062-.070313.28125.023438.09375.164063.164062.28125.164062.09375-.023437.210938-.140625.210938-.234375zm13.664062 6.914063c0-.117188-.09375-.210938-.210937-.234375-.117187 0-.234375.117187-.210937.234375 0 .117187.09375.210937.210937.210937s.210937-.09375.210937-.210937zm17.625-18.445313c0-.09375-.09375-.210937-.210937-.210937s-.210937.117187-.210937.234375c-.023438.09375.046874.164062.164062.1875.117188.023437.234375-.070313.257812-.210938zm.46875 2.53125c.117188 0 .1875-.023437.234376-.09375.070312-.046875.070312-.140625.023437-.210937-.046875-.070313-.164063-.09375-.210937-.070313-.070313.023438-.117188.070313-.140626.117188-.046874.046875-.070312.117187-.046874.164062.046874.070313.117187.09375.140624.09375zm.351563-2.648437c-.070313-.023438-.164063.09375-.1875.1875 0 .09375.046875.164062.140625.1875.140625.023437.257812-.046875.304688-.1875 0-.070313-.046876-.140625-.1875-.164063-.023438-.023437-.046876-.023437-.070313-.023437zm-2.8125-10.03125c0-.117188-.117187-.1875-.210937-.117188-.117188.046875-.164063.140625-.164063.28125-.023437.070313.070313.140625.140625.117188.140625 0 .234375-.117188.234375-.28125zm3.445313 8.179687c-.09375 0-.1875.070313-.1875.164063-.023438.070312 0 .140625.046874.164062.070313.070313.164063.046875.234376 0 .023437-.023437.046874-.023437.046874-.046875.046876-.046875.070313-.117187.046876-.1875-.023438-.046875-.117188-.117187-.1875-.09375zm-10.664063-9.328125c-.023437 0-.046875 0-.070313.023438-.09375.070312-.117187.234375-.046874.351562.046874.046875.140624.070313.164062.023438.070312-.070313.117188-.140625.140625-.1875.023437-.117188-.070313-.234375-.1875-.210938zm9.820313 6.914063c.023437-.09375-.070313-.164063-.164063-.1875-.117187 0-.210937.09375-.210937.234375 0 .070312.070312.164062.140624.164062.140626 0 .234376-.09375.234376-.210937zm-.703126 7.382812c-.09375 0-.164062.046875-.210937.140625-.023437.046875-.023437.09375.023437.164063.070313.046875.164063.046875.234376.023437.046874-.023437.09375-.070312.117187-.140625 0-.023437 0-.09375-.023437-.117187-.046876-.046875-.09375-.046875-.140626-.070313zm1.617188-7.992187c-.117188 0-.210938.09375-.1875.210937 0 .09375.046875.140625.140625.140625.09375.023438.234375-.09375.210937-.1875 0-.070312-.09375-.164062-.164062-.164062zm-4.664062-5.0625c-.023438-.117188-.117188-.1875-.234376-.117188-.09375.046875-.140624.164063-.117187.28125.023437.046875.070313.09375.140625.09375.117188 0 .210938-.117187.210938-.257812zm-31.875 14.039062c.070312 0 .140624-.09375.117187-.164062-.046875-.09375-.164063-.164063-.257813-.140625-.046874.023437-.09375.070312-.09375.117187 0 .09375.09375.164063.1875.1875zm33.492187-12.84375c0 .09375.09375.164063.164063.09375.070312-.023437.117187-.09375.140624-.140625.023438-.023437 0-.09375 0-.117187-.046874-.070313-.117187-.070313-.164062-.070313-.09375.046875-.140625.140625-.140625.234375zm2.039063 3.28125c.023437.023438.046874.070313.09375.09375.117187.023438.234374-.070312.234374-.1875 0-.070312-.070312-.117187-.164062-.117187-.09375-.023438-.164062.046875-.164062.210937zm1.265624 7.382813c0-.09375-.070312-.140625-.164062-.140625s-.1875.070312-.1875.164062.09375.164063.1875.164063c.09375-.023438.164062-.09375.164062-.1875zm-1.734374-3.84375c0-.09375-.09375-.164063-.1875-.164063-.070313 0-.140626.09375-.140626.210938 0 .070312.046876.117187.117188.117187.117188 0 .210938-.046875.210938-.164062zm1.804687 2.484375c-.117187 0-.1875.09375-.1875.1875 0 .070312.070313.117187.140625.117187.09375 0 .1875-.09375.1875-.1875-.023438-.070312-.09375-.117187-.140625-.117187zm.257813-1.148438c0-.070312-.070313-.140625-.164063-.140625-.070313-.023437-.140625.046875-.164063.140625 0 .09375.046876.164063.117188.164063.117188 0 .210938-.070313.210938-.164063zm-1.359376-6.398437c0-.070313-.070312-.140625-.140624-.117188-.09375.023438-.164063.09375-.140626.1875 0 .046875.046876.09375.070313.09375.070313.046875.164063-.023437.210937-.117187 0-.023438 0-.046875 0-.046875zm1.148438 4.570312c.117188 0 .164062-.046875.210938-.117187 0-.046875 0-.09375-.023438-.117188-.046875-.070312-.09375-.070312-.140625-.023437-.09375.023437-.140625.117187-.117187.164062 0 .046875.046874.070313.070312.09375zm-3.984375-1.195312c-.117187 0-.1875.09375-.164063.210937 0 .046875.046876.09375.117188.09375s.164062-.117187.140625-.210937c0-.023438-.070313-.070313-.09375-.09375zm-29.953125-.984375c0-.09375-.070312-.140625-.140625-.164063-.070313 0-.140625.070313-.140625.117188 0 .09375.046875.164062.140625.164062.070313.023438.117187-.046875.140625-.117187zm33-3.984375c0-.070313-.046875-.117188-.09375-.09375-.09375 0-.164062.070312-.164062.164062 0 .070313.070312.117188.140624.09375.070313-.023437.117188-.09375.117188-.164062zm.703125 5.015625c-.023437-.023438-.070313-.09375-.117187-.09375-.070313 0-.140626.070312-.140626.140625 0 .070312.046876.117187.09375.117187.09375 0 .164063-.046875.164063-.164062zm-4.664063-8.953125c-.09375 0-.164062.070312-.164062.164062 0 .046875.046875.09375.09375.09375.070312.023438.140625-.046875.140625-.140625 0-.046875-.046875-.09375-.070313-.117187zm2.8125 6.328125c-.070312 0-.164062.09375-.140624.164062 0 .070313.070312.117188.117187.070313.046875-.023438.09375-.070313.117187-.117188.023438-.046875-.023437-.117187-.09375-.117187zm-.445312-4.734375c.117188.023437.164062-.023438.164062-.117188 0-.023437-.023437-.070312-.046874-.070312-.070313-.023438-.164063.023437-.140626.140625 0 .023437.023438.046875.023438.046875zm.375 1.382812c.070312-.046875.117188-.046875.140625-.070312 0-.046875 0-.09375 0-.140625 0-.023438-.046875-.023438-.070313-.023438-.070312 0-.117187.070313-.117187.117188s.046875.070312.046875.117187zm-32.648438 7.945313c-.070312-.023438-.09375-.070313-.140624-.09375-.023438 0-.09375.023437-.09375.070312 0 .070313.046874.140625.09375.117188.046874 0 .070312-.046875.140624-.09375zm31.40625-10.359375c-.023437-.023438-.046874-.046875-.09375-.070313-.023437-.023437-.09375.046875-.09375.117188 0 .023437.023438.09375.070313.070312.046875 0 .09375-.070312.117187-.117187zm-1.148437-1.734375c-.023437-.023438-.046875-.046875-.070313-.046875-.046874-.046875-.117187.023437-.117187.09375 0 .023437.046875.070312.070313.070312.046874.023438.117187-.046875.117187-.117187zm-29.859375 20.390625c-.023438.070312-.070312.09375-.070312.117187.023437.023438.070312.046875.09375.046875 0 0 .046874-.023437.046874-.046875 0-.023437-.046874-.046875-.070312-.117187zm30.140625-15.679688c.046875.023438.070313.046875.09375.046875.023437-.023437.046875-.046875.046875-.09375 0 0-.023438-.046875-.046875-.023437-.023437 0-.046875.023437-.09375.070312zm-14.34375 22.148438c-.023437.046875-.070313.046875-.070313.070312.023438.023438.046876.046875.070313.046875s.046875-.023437.046875-.046875c0-.023437-.023438-.023437-.046875-.070312zm-.5625-19.710938c0-.046875-.023437-.070312-.046875-.070312s-.046875.023437-.070312.023437c.023437.023438.046874.046875.070312.070313 0 0 .046875-.023438.046875-.023438z" fill="#0a0a0a" transform="translate(-286 -168)"/></svg>