<svg height="32" viewBox="0 0 33 32" width="33" xmlns="http://www.w3.org/2000/svg"><path d="m467.546875 118.976562c-.023437-.070312-.046875-.117187.046875-.140624 0-.023438.046875 0 .046875.023437.023437.09375-.046875.09375-.09375.09375.210937.304687.46875.539063.773437.679687.117188.070313.210938.140626.351563.1875.445313.210938.796875.515626 1.101563.9375.210937.257813.421874.515626.632812.773438s.398438.515625.492188.820312c.210937.726563.351562 1.453126.375 2.226563 0 .65625-.140626 1.289063-.445313 1.898437-.070313.140626-.1875.28125-.234375.46875 0 .023438-.023438.046876-.070312.070313-.046876.070313-.09375.117187-.140626.1875-.304687.445313-.679687.890625-1.078124 1.265625-.585938.539062-1.171876 1.078125-1.78125 1.617188-.09375.09375-.210938.164062-.328126.234374-.351562.1875-.726562.164063-1.054687-.046874-.210937-.140626-.398437-.304688-.5625-.46875-.1875-.164063-.328125-.304688-.492187-.445313-.492188-.421875-.984376-.820313-1.453126-1.21875-.445312-.398437-.890624-.796875-1.335937-1.195313-.445313-.398437-.796875-.820312-1.148437-1.265624-.210938-.28125-.351563-.5625-.445313-.867188-.070313-.328125-.070313-.632812.023437-.960938.117188-.398437.257813-.796874.421876-1.171874.1875-.398438.328124-.75.492187-1.125s.304687-.726563.492187-1.078126c.28125-.585937.820313-.867187 1.523438-.703124.164062.046874.351562.117187.515625.1875.492187.210937.984375.421874 1.476563.609374.890624.398438 1.710937.914063 2.4375 1.617188.210937.210938.398437.445312.539062.703125.539062.984375.5625 1.96875.046875 2.953125-.28125.492188-.632813.9375-1.03125 1.335938-.09375.070312-.1875.164062-.28125.210937-.398437.28125-.820313.304687-1.242187.117187-.140626-.070312-.304688-.164062-.445313-.257812-.445313-.328125-.867187-.65625-1.3125-.984375-.351563-.28125-.703125-.585937-.984375-.9375-.117188-.140625-.210938-.28125-.257812-.46875-.046876-.140625-.070313-.28125-.117188-.398437-.09375-.632813.046875-1.148438.46875-1.59375.28125-.257813.609375-.398438.984375-.375.445313.046874.84375.257812 1.242187.492187.164063.09375.304688.210937.46875.328125.164063.164062.351563.328125.515626.46875.09375.117188.1875.234375.210937.375.046875.117188.070313.210938.117187.328125-.046874.070313-.09375.140625-.117187.210937-.164063.351563-.632813.46875-1.007813.234376-.140624-.070313-.234374-.1875-.328124-.351563-.09375-.210937-.210938-.398437-.328126-.609375-.070312-.117188-.164062-.1875-.28125-.257812-.304687-.117188-.585937.046874-.65625.351562-.023437.1875 0 .375.09375.539062.070313.117188.164063.234376.234376.351563.304687.351563.65625.585937 1.007812.867187.117188.070313.210938.140626.328125.210938.398437.257812.796875.210938 1.125-.164062.070313-.046876.140625-.140626.1875-.234376.28125-.445312.375-.9375.351563-1.429687-.023438-.375-.117188-.726563-.328126-1.007813-.070312-.117187-.164062-.234374-.234374-.328124-.09375-.140626-.164063-.28125-.351563-.328126-.023437 0-.046875-.023437-.070313-.046874-.023437-.140626-.140624-.1875-.234374-.257813-.117188-.070313-.257813-.164063-.375-.210937-.515626-.28125-1.03125-.539063-1.570313-.679688-.632813-.1875-1.078125-.023438-1.453125.515625-.070312.070313-.117188.164063-.164062.257813-.140626.28125-.304688.539062-.421876.820312-.398437.9375-.304687 1.828125.304688 2.648438.234375.304687.492188.609374.773438.84375.398437.375.820312.726562 1.242187 1.078124.257813.210938.492187.421876.773437.632813.234376.1875.492188.398437.796876.539063.257812.117187.515624.09375.773437-.046876.398437-.1875.726563-.492187 1.03125-.820312.210937-.234375.304687-.46875.257813-.796875-.023438-.046875-.023438-.117187-.023438-.1875 0-.023437.023438-.046875.023438-.09375.117187.210937.046874.421875.140624.609375.070313-.046875.117188-.09375.164063-.140625.140625-.164063.28125-.328125.398437-.515625.351563-.492188.585938-1.054688.703126-1.640625.117187-.726563.023437-1.429687-.1875-2.109375-.117188-.421875-.304688-.773438-.5625-1.101562-.328126-.445313-.726563-.820313-1.171876-1.125-.328124-.234376-.65625-.46875-1.007812-.65625-.351562-.210938-.703125-.421876-1.101562-.585938-.5625-.234375-1.125-.46875-1.710938-.679688-.210938-.09375-.445312-.164062-.679688-.210937-.609374-.140625-1.125.046875-1.5.5625-.140624.210937-.28125.421875-.375.65625-.234374.445313-.421874.890625-.609374 1.359375-.28125.65625-.539063 1.3125-.796876 1.96875-.070312.1875-.140624.375-.1875.5625-.140624.515625-.09375 1.007812.164063 1.453125.070313.117187.140625.234375.234375.351563.375.46875.75.9375 1.101562 1.40625.1875.210937.375.398437.585938.5625.234375.140624.445312.328124.632812.515624.351563.328126.65625.65625 1.007813.984376.65625.585937 1.335937 1.195312 2.039063 1.734374.398437.304688.5625.679688.46875 1.195313-.09375.5625-.234376 1.125-.375 1.664063-.1875.609374-.445313 1.171874-.75 1.710937-.445313.726563-.984376 1.40625-1.710938 1.875-1.101562.703125-2.25.796875-3.398438.140625-.46875-.257812-.867187-.585938-1.265624-.9375-.140626-.140625-.28125-.28125-.375-.445312-.234376-.375-.445313-.796876-.5625-1.21875-.140626-.539063-.445313-.984376-.773438-1.429688-.023438-.070312-.070312-.070312-.140625-.070312-.023437.023437-.070313-.046876-.09375-.070313-.046875-.046875.046875-.070313.046875-.140625-.023438-.046875-.070312-.117188-.09375-.164062-.328125-.46875-.585938-.984376-.773438-1.5-.117187-.257813-.1875-.492188-.234374-.726563-.117188-.46875-.140626-.914063-.117188-1.359375 0-.421875.09375-.84375.28125-1.195312.234375-.46875.5625-.84375 1.078125-1.03125.09375-.070313.210937-.09375.328125-.140626.585938-.1875 1.148438-.140624 1.664062.234376.28125.164062.539063.375.796876.585937.679687.609375 1.382812 1.21875 2.132812 1.804687.046875.046876.09375.070313.164062.140626.609376.539062 1.125 1.195312 1.546876 1.898437.328124.5625.351562 1.125.09375 1.710937-.234376.515626-.539063.960938-.9375 1.335938-.1875.1875-.398438.328125-.632813.445312-.46875.1875-.960937.210938-1.40625-.023437-.210937-.117187-.398437-.257813-.609375-.398437-.070312-.070313-.117188-.140626-.140625-.234376-.09375-.304687-.164063-.632812-.1875-.960937 0-.210937-.023437-.421875-.046875-.65625-.023438-.210937-.09375-.421875-.234375-.585937-.1875-.28125-.445313-.515626-.679687-.75-.210938-.210938-.421876-.398438-.632813-.609376-.164063-.164062-.257813-.375-.28125-.609374-.046875-.1875 0-.375.140625-.539063.28125-.304687.726562-.351563 1.054688-.117187.140624.09375.257812.210937.375.328124.375.375.726562.773438 1.148437 1.101563.09375.070313.164063.1875.257813.28125.234374.304687.375.632813.351562 1.054687-.023438.140626-.046875.328126-.046875.46875 0 .140626 0 .257813.023437.375.046876.210938.1875.351563.375.398438.210938.046875.375-.023438.515626-.1875.09375-.140625.164062-.28125.164062-.46875.023438-.117188.023438-.257812 0-.398438-.023438-.257812-.070312-.515624-.117188-.773437-.023437-.210937-.09375-.398437-.210937-.585937-.257813-.398438-.5625-.726563-.9375-.984376-.140625-.070312-.28125-.164062-.421875-.257812-.257812-.164062-.492188-.351562-.726562-.539062-.304688-.234376-.585938-.46875-.890626-.703126-.164062-.140624-.351562-.234374-.5625-.28125-.445312-.140624-.890624.070313-1.078124.515626-.046876.09375-.070313.210937-.09375.304687-.070313.375-.046876.75.046874 1.125.164063.585937.46875 1.078125.914063 1.476563.117187.117187.234375.234374.375.351562.257813.28125.398437.632812.398437 1.03125.023438.164062.023438.304688.023438.445312.023438.421876.1875.820313.46875 1.125.304688.328126.609375.585938.960938.820313.492187.328125 1.054687.398437 1.617187.257813.515625-.140626.960937-.375 1.335937-.75.46875-.492188.820313-1.054688 1.054688-1.6875.140625-.28125.234375-.585938.28125-.914063.046875-.304687 0-.585937-.1875-.84375-.210938-.28125-.421875-.585937-.632812-.84375-.679688-.820313-1.429688-1.570313-2.273438-2.25-.46875-.375-.914062-.773437-1.359375-1.195313-.375-.351562-.75-.703124-1.148437-1.054687-.375-.351563-.820313-.515625-1.335938-.492187-.257812 0-.515625.070312-.75.117187-.046875.023437-.117188.046875-.164062.070313-.046876.070312-.09375.09375-.1875.09375-.046876 0-.140626.023437-.1875.070312-.398438.164062-.679688.46875-.960938.796875-.351562.445313-.5625.960937-.632812 1.546875-.09375.65625-.046876 1.3125.09375 1.992188.1875.75.515624 1.453124.914062 2.109374.1875.304688.375.585938.585938.890626.28125.421874.515624.867187.703124 1.335937.046876.09375.09375.210937.140626.304687.257812.726563.703124 1.289063 1.289062 1.804688.257812.257812.539062.46875.84375.679688.632812.46875 1.335938.703124 2.109375.703124.234375 0 .445313-.023437.65625-.023437.164063-.023437.257813-.09375.28125-.234375.023437-.023438.023437-.023438.046875-.023438.1875.117188.1875.117188.351562.046876.585938-.210938 1.148438-.515626 1.59375-.960938.703126-.75 1.265626-1.570312 1.664063-2.53125.28125-.679688.445313-1.382812.585937-2.109375.023438-.1875.070313-.398437.117188-.609375.070312-.492188.375-.796875.820312-1.007812.328126-.140626.632813-.304688.890626-.5625.164062-.140626.304687-.28125.445312-.421876.375-.398437.75-.773437 1.125-1.171874.609375-.609376 1.078125-1.289063 1.5-2.039063.328125-.5625.492188-1.195313.492188-1.851563 0-.234374-.023438-.492187-.023438-.75 0-.609374-.140625-1.195312-.328125-1.757812-.070313-.1875-.117187-.351562-.164063-.539062-.070312-.257813-.09375-.515626-.070312-.796876.046875-.609374.164062-1.195312.398438-1.757812.09375-.1875.140624-.375.1875-.5625.070312-.351562.023437-.65625-.1875-.9375-.09375-.117188-.164063-.210938-.234376-.304688-.328124-.351562-.585937-.726562-.820312-1.101562-.117188-.1875-.234375-.328125-.375-.46875-.1875-.210938-.421875-.328125-.703125-.375-.445313-.09375-.890625-.070312-1.265625.257812-.28125.117188-.46875.351563-.65625.609376-.070312.117187-.140625.210937-.234375.328124-.070313.09375-.140625.1875-.210937.28125-.328126.375-.703126.492188-1.171876.351563-.375-.09375-.703124-.328125-.9375-.632813-.140624-.164062-.234374-.328124-.351562-.492187-.070312-.117187-.164062-.234375-.304688-.304687-.28125-.164063-.539062-.070313-.632812.257812-.046875.1875-.046875.375.023438.5625.046874.09375.070312.1875.117187.257812.09375.28125.28125.492188.539063.609376.046874.023437.09375.046874.117187.070312.328125.210938.703125.375 1.078125.492188.1875.046874.398438.09375.585938.140624.351562.09375.632812.257813.890624.492188.09375.09375.1875.164062.257813.257812zm1.757813.09375c-.234376 0-.375-.023437-.539063-.09375-.328125-.164062-.609375-.375-.84375-.679687-.304687-.375-.257813-.84375.070313-1.171875.1875-.1875.421874-.375.679687-.492188.445313-.234374.890625-.210937 1.335937.023438.1875.117188.328126.28125.445313.492188.09375.140624.117187.304687.070313.46875-.117188.398437-.28125.796874-.5625 1.125-.1875.210937-.421876.328124-.65625.328124zm1.617187.328126c0 .117187-.070313.1875-.164063.1875-.117187-.023438-.1875-.117188-.1875-.28125 0-.046876.070313-.117188.140626-.117188.140624 0 .210937.09375.210937.210938zm-.445313.257812c.046876.023438.117188.046875.1875.09375.023438.023438.023438.070312.023438.117188 0 .023437-.046875.070312-.09375.070312-.09375-.023438-.210938-.046875-.304688-.070312-.023437 0-.046874-.070313-.046874-.09375 0-.023438.023437-.070313.070312-.070313.023438-.023437.09375-.023437.164062-.046875zm.796876-1.289062c-.09375 0-.140626-.070313-.117188-.164063 0-.117187.070312-.1875.164062-.164063.070313 0 .140626.070313.140626.140626-.023438.117187-.09375.1875-.1875.1875zm-.515626 2.25c0-.117188.046876-.1875.09375-.234376.023438-.023437.070313-.023437.09375-.023437.023438.023437.046876.09375.023438.117187-.023438.070313-.09375.117188-.210938.140626zm.398438-2.0625c-.023438.023437-.023438.046874-.046875.046874-.070313 0-.117187 0-.140625-.046874-.023438-.023438 0-.046876 0-.070313.09375-.023437.164062 0 .1875.070313zm-11.859375 14.90625c-.046875.046874-.09375.09375-.117187.09375-.023438 0-.070313-.046876-.070313-.09375 0-.023438.046875-.070313.070313-.070313.023437 0 .070312.046875.117187.070313zm6.5625-10.992188s-.023437.023438-.023437.023438c-.046876.023437-.09375.023437-.117188-.023438 0-.023438 0-.070312.023438-.070312.023437 0 .070312.023437.09375.023437.023437 0 .023437.023437.023437.046875zm.960937 5.625c-.046874.023438-.070312.046875-.09375.046875-.023437 0-.046874-.023437-.070312-.046875.023438 0 .023438-.046875.046875-.046875s.046875 0 .117187.046875zm3.234376-8.53125c-.046876-.046875-.070313-.070312-.070313-.070312.023437-.046876.046875-.070313.070313-.09375 0 .023437.023437.046874.023437.046874 0 .023438-.023437.070313-.023437.117188zm-3.140626 5.742188c-.023437-.023438-.046874-.046876-.046874-.070313.023437-.023437.023437-.046875.046874-.046875 0 0 .046876.023438.046876.046875-.023438.023437-.023438.046875-.046876.070313zm6.960938 4.5c-.070312-.023438-.117188-.046876-.140625-.023438-.09375.070312-.164063.117188-.234375.210938-.492188.492187-.960938 1.054687-1.382812 1.617187-.304688.445313-.398438.914063-.257813 1.453125.164063.492188.304687.960938.515625 1.40625.09375.164062.164062.351562.304688.46875.5625.609375 1.242187.9375 2.085937.9375.65625.023438 1.265625-.117188 1.875-.398438 1.054687-.515624 1.992187-1.171874 2.882813-1.921874.28125-.234376.46875-.539063.609374-.84375.304688-.65625.46875-1.359376.515626-2.085938.046874-.445312-.023438-.890625-.164063-1.3125-.257813-.703125-.703125-1.265625-1.289063-1.710938-.46875-.328124-1.007812-.492187-1.546874-.585937-.515626-.09375-1.007813-.1875-1.5-.328125-.257813-.070312-.492188-.140625-.726563-.1875-.351563-.070312-.679687-.070312-1.007813 0-.773437.1875-1.429687.585938-1.945312 1.242188-.164062.1875-.328125.421874-.492188.632812-.304687.375-.609374.773438-.9375 1.171875-.070312.09375-.164062.210937-.28125.257813-.210937.09375-.375.257812-.539062.421874-.070312.09375-.140625.1875-.164062.304688-.140626.328125 0 .609375.328124.726562.117188.023438.210938.023438.328126 0 .164062-.070312.304687-.164062.398437-.328124.09375-.140626.1875-.28125.28125-.445313.164063-.351563.375-.679687.632813-.960937.28125-.328126.5625-.65625.84375-.984376.164062-.164062.351562-.328124.515624-.492187.257813-.234375.539063-.351563.867188-.421875.375-.070312.75-.070312 1.125-.023438.773438.117188 1.523438.28125 2.273438.515626.257812.09375.515624.1875.75.328124.679687.398438 1.101562.984376 1.265624 1.734376.070313.375.046876.75 0 1.148437-.09375.9375-.492187 1.6875-1.265624 2.226563-.65625.46875-1.3125.914062-2.015626 1.242187-.328124.140625-.65625.234375-1.007812.28125-.75.09375-1.359375-.140625-1.921875-.632813-.09375-.070312-.164063-.1875-.234375-.304687-.1875-.304687-.328125-.632813-.398438-1.007813-.117187-.515624-.046874-1.007812.234376-1.453124.210937-.28125.421874-.539063.679687-.773438.070313-.046875.117187-.09375.164063-.164062.023437-.046876.046874-.140626.070312-.210938.09375.023438.164062.023438.234375-.023438.1875-.117187.375-.234374.5625-.304687.539063-.210937 1.054687-.210937 1.59375.023437.28125.117188.492187.328126.632813.609376.117187.304687.046874.5625-.164063.773437-.117187.140625-.28125.234375-.46875.28125s-.375.070313-.585937.070313c-.09375 0-.1875-.023438-.257813.023437 0 .140625.1875.140625.1875.28125-.140625 0-.234375-.046875-.328125-.117187-.117188-.09375-.234375-.164063-.398438-.164063-.257812-.023437-.632812.234375-.75.515625-.09375.234375-.023437.445312.164063.609375.210937.140625.46875.210937.75.164063.210937-.046876.398437-.09375.609375-.210938.421875-.257812.867188-.515625 1.289062-.773438.1875-.117187.351563-.28125.515626-.445312.210937-.234375.375-.492188.445312-.820312.070312-.328126.023438-.65625-.1875-.914063-.1875-.234375-.398438-.445313-.65625-.5625-.515625-.304687-1.078125-.445313-1.6875-.46875-.46875 0-.890625.117187-1.289062.351563-.140626.09375-.28125.1875-.304688.375zm3.75-7.289063c.210938 0 .421875.046875.609375.117187.140625.070313.257813.164063.351563.28125.28125.375.351562.679688-.09375 1.03125-.070313.070313-.140626.117188-.234376.164063-.164062.046875-.328124.140625-.515624.164063-.210938.070312-.445313.09375-.679688.140624-.164062.046876-.328125.070313-.492188.140626-.234374.09375-.421874.257812-.539062.492187-.09375.257813-.023438.46875.210938.585937.140624.070313.28125.09375.445312.046876.164062-.046876.351562-.070313.539062-.164063.515626-.1875 1.03125-.46875 1.476563-.820313.140625-.117187.28125-.234374.398437-.351562.28125-.28125.492188-.609375.609376-.984375.140624-.398437.070312-.75-.1875-1.078125-.234376-.328125-.539063-.539062-.914063-.65625-.890625-.257812-1.710937-.140625-2.460937.375-.1875.117188-.351563.234375-.539063.351562-.164063.117188-.328125.1875-.492187.28125-.164063.070313-.328126.09375-.515626.046876-.28125-.046876-.515624-.1875-.585937-.515626-.070313-.164062-.09375-.328124-.070313-.515624.046876-.28125.140626-.5625.257813-.820313.210937-.421875.421875-.84375.65625-1.265625.304687-.585938.65625-1.148438 1.101563-1.640625.117187-.140625.210937-.28125.304687-.421875.070313-.117188.117187-.210938.164063-.328125.023437-.117187.046874-.257813.046874-.375 0-.28125-.234374-.445313-.492187-.375-.140625.023437-.257813.09375-.351563.1875-.117187.09375-.234374.234375-.328124.375-.140626.234375-.28125.46875-.398438.726563-.070312.117187-.117188.234374-.1875.351562-.445312.726562-.890625 1.453125-1.242188 2.226562-.140624.328126-.257812.65625-.328124.984376-.117188.515624-.070313 1.007812.1875 1.453124.070312.117188.117187.234376.1875.351563.210937.445313.210937.585937 0 1.054687-.09375.1875-.1875.398438-.257813.609376-.046875.070312-.046875.1875-.046875.28125 0 .28125.257812.46875.539062.398437.210938-.023437.351563-.140625.46875-.304687.140626-.164063.234376-.351563.28125-.5625.046876-.140626.070313-.28125.09375-.398438.09375-.328125.28125-.5625.585938-.726562.117188-.023438.234375-.09375.328125-.140626.140625-.070312.304687-.140624.445313-.1875.304687-.140624.609374-.28125.914062-.421874.234375-.09375.492188-.164063.75-.164063zm-9.773438 11.039063v-.023438c-.023437.070312-.046874.164062-.070312.234375-.023438.046875-.046875.117187-.070312.140625-.09375.023438-.117188.09375-.117188.164062-.023438.09375-.023438.1875-.046875.304688-.140625.820312-.421875 1.617188-.9375 2.273438-.117187.140624-.234375.28125-.328125.445312-.140625.210938-.257812.421875-.351562.632812-.1875.421876-.1875.84375.046874 1.242188.234376.445312.5625.75 1.03125.890625.65625.1875 1.21875.023437 1.710938-.421875.257812-.234375.421875-.515625.5625-.796875.09375-.1875.164062-.351563.257812-.539063.09375-.164062.1875-.304687.304688-.445312.257812-.28125.585938-.398438.960938-.398438.234374.023438.46875.070313.679687.210938.164063.117188.304687.234375.46875.351562.140625.117188.304687.257813.46875.375.117187.09375.257813.140626.398437.140626.1875.023437.375-.046876.492188-.234376.117188-.164062.09375-.351562 0-.515624-.046875-.046876-.09375-.117188-.117188-.140626-.234374-.304687-.539062-.492187-.890624-.609374-.679688-.257813-1.382813-.28125-2.085938-.210938-.5625.046875-.960938.351562-1.21875.84375-.117188.210938-.1875.421875-.304688.632812-.09375.234376-.210937.445313-.328124.65625-.164063.234376-.351563.421876-.632813.492188-.304687.070312-.585937-.046875-.84375-.1875-.046875-.023438-.070313-.070312-.09375-.117188-.164063-.398437-.210937-.773437-.023437-1.195312.117187-.210938.234374-.421875.421874-.609375.210938-.234375.421876-.46875.65625-.703125.117188-.117188.234376-.234375.328126-.375.210937-.257812.304687-.539062.28125-.890625-.023438-.140625-.046876-.304687-.070313-.445313-.023437-.257812-.046875-.492187-.070313-.75 0-.1875.046876-.398437.164063-.585937.304687-.492187 1.03125-.398437 1.242187.023437.09375.164063.1875.375.1875.585938 0 .164062-.023437.375-.023437.539062 0 .164063 0 .328126.046875.492188.070312.304688.398438.492188.703125.445312.304687-.070312.515625-.351562.46875-.679687-.023437-.140625-.070313-.257813-.117187-.398437-.140626-.398438-.304688-.796876-.445313-1.195313-.070313-.140625-.09375-.28125-.164063-.421875-.1875-.375-.445312-.679688-.867187-.796875-.210937-.046875-.445313-.070313-.65625-.023437-.210937.023437-.398437.117187-.5625.257812-.070313.070312.023437.140625 0 .1875-.140625.1875-.210937.375-.257813.585938-.070312.1875-.140624.375-.1875.5625zm-.046874 1.171874c-.023438-.023437-.046876-.023437-.070313-.023437-.023437-.046875.023437-.09375.070313-.09375 0 0 .023437.023437.023437.023437 0 .046876-.023437.070313-.023437.09375zm-10.359376-11.015624h.304688c.398438-.046876.726562-.257813.914062-.609376.046876-.164062.117188-.328124.164063-.46875.070313-.28125.140625-.539062.1875-.820312.070313-.398438.210937-.773438.375-1.148438.09375-.257812.210937-.515624.328125-.796874.164062-.445313.28125-.914063.375-1.382813.023438-.328125.023438-.632813-.046875-.960937-.046875-.1875-.140625-.375-.28125-.539063-.09375-.09375-.210937-.140625-.351563-.117187-.140624.046874-.234374.164062-.257812.328124 0 .09375-.023438.1875 0 .28125.023438.164063.046875.304688.09375.445313.117188.46875.070312.914063-.140625 1.359375-.117187.257812-.234375.492188-.351563.726562-.140624.351563-.28125.703126-.328124 1.078126-.046876.210937-.070313.445312-.117188.632812-.023438.164062-.046875.328125-.117188.492188-.1875.421874-.515624.632812-.960937.65625-.117187 0-.257813 0-.398437-.023438-.234376-.046875-.421876-.140625-.632813-.257812-.140625-.09375-.28125-.164063-.445313-.234376-.117187-.070312-.257812-.09375-.375-.070312-.234374.046875-.351562.257812-.28125.492188.023438.117187.09375.210937.1875.304687.210938.1875.46875.351563.773438.421875.445312.117188.914062.210938 1.382812.210938zm4.945313-6.46875c0-.257813-.070313-.445313-.210937-.585938-.164063-.140625-.351563-.117188-.46875.070312-.09375.164063-.09375.328126 0 .492188.070312.09375.117187.164062.140624.257812.046876.117188.117188.1875.234376.164063.117187 0 .210937-.070313.234374-.164063.046876-.070312.046876-.164062.070313-.234374zm-8.15625 8.929687c.140625 0 .257813-.023437.328125-.140625.070312-.140625.046875-.257812-.023438-.351562-.09375-.164063-.257812-.28125-.398437-.351563-.09375-.046875-.1875-.046875-.304687-.023437-.164063.070312-.234376.257812-.164063.398437.117187.257813.304687.398437.5625.46875zm20.742187 11.882813c.09375 0 .1875-.046876.257813-.117188.070313-.046875.09375-.140625.070313-.234375-.046876-.257813-.398438-.421875-.632813-.234375-.140625.09375-.164063.257812-.070313.398438.117188.09375.234376.1875.375.1875zm-3.5625-23.859376c-.023437-.023437-.023437-.117187-.046874-.1875-.046876-.140624-.210938-.1875-.304688-.070312-.070312.117188-.140625.234375-.164062.351562-.046876.140626-.046876.28125.023437.398438.046875.09375.140625.117188.234375.046875.1875-.09375.234375-.28125.257812-.539063zm-13.898437 5.132813c-.023437-.164063-.140625-.351563-.328125-.46875-.09375-.046875-.210938 0-.257812.09375-.023438.070313-.046876.140625-.046876.210937.046876.164063.117188.304688.257813.421876.070313.046874.164063.09375.234375.046874.09375-.023437.140625-.117187.140625-.304687zm18.914063.84375c0 .234375.140624.328125.28125.257813.210937-.09375.304687-.28125.328124-.515626.023438-.1875-.140624-.28125-.304687-.1875-.1875.09375-.28125.257813-.304687.445313zm-3.046876-3.5625c0-.023437 0-.070313 0-.09375-.023437-.09375-.070312-.140625-.164062-.1875-.070312-.023437-.140625.023437-.210938.09375-.140624.140625-.210937.351563-.164062.5625.046875.164063.1875.210937.304688.117187.023437 0 .070312-.046874.09375-.070312.09375-.117188.140624-.257812.140624-.421875zm-9.445312-2.039063c-.023438-.140624-.046875-.304687-.140625-.398437-.046875-.070313-.117187-.117187-.210937-.09375-.070313.023437-.117188.070313-.140626.140625-.046874.257812 0 .46875.140626.679688.070312.09375.1875.070312.257812-.023438s.070312-.1875.09375-.304688zm-7.171875 23.414063h.09375c.164063-.046875.28125-.164063.28125-.328125 0-.117188-.117187-.234375-.28125-.28125-.070313 0-.140625 0-.210937.023438-.117188.070312-.210938.210937-.1875.351562.023437.140625.164062.234375.304687.234375zm21.492187-19.40625c0-.117187-.023437-.1875-.09375-.234375-.070312-.046875-.140624-.023438-.210937.023438-.210937.117187-.304687.28125-.328125.539062 0 .070312.046875.140625.117188.164062.070312.023438.140624 0 .210937-.070312.023437-.023438.023437-.070312.046875-.09375.1875-.046875.210938-.1875.257812-.328125zm-20.695312-.914063c-.023438-.234374-.09375-.421874-.28125-.515624-.117188-.070313-.257812-.023438-.28125.117187v.164063c.046875.140624.117188.28125.234375.375.070313.070312.164063.09375.210937.046874.09375-.046874.117188-.117187.117188-.1875zm22.101562 8.859376c.1875-.023438.375-.164063.421876-.328126.046874-.164062-.046876-.304687-.210938-.28125-.1875 0-.328125.117188-.421875.28125-.070313.164063.023437.328126.210937.328126zm1.148438-4.734376c.210938-.023437.421875-.257812.445312-.46875 0-.117187-.09375-.1875-.210937-.1875-.070313.023438-.117187.046876-.1875.09375-.164063.070313-.164063.257813-.1875.375-.046875.117188.023437.1875.140625.1875zm-.960938 13.734376c-.117187 0-.234374.023437-.304687.140624-.070313.09375-.046875.1875.046875.234376.070312.046874.140625.09375.210938.09375.09375.046874.210937.023437.28125-.023438.140624-.09375.140624-.234375.046874-.328125-.070312-.09375-.164062-.117187-.28125-.117187zm-26.273437-11.929688c-.09375 0-.164063.09375-.164063.210938.023438.1875.1875.375.351563.421874.164063.023438.28125-.09375.234375-.234374 0-.1875-.234375-.398438-.421875-.398438zm1.03125 10.453125c.023437 0 .09375 0 .140625-.023437.164062-.09375.164062-.304688.046875-.375-.070313-.046876-.140625-.09375-.210937-.09375-.09375-.046876-.1875-.023438-.257813.046874-.09375.070313-.117187.1875-.046875.304688.070312.09375.1875.140625.328125.140625zm9.867187 5.0625c0-.140625-.140624-.304687-.28125-.304687-.164062 0-.304687.140624-.304687.28125 0 .164062.117187.28125.257813.304687.164062 0 .304687-.117187.328124-.28125zm-2.179687-23.625c0-.210937-.046875-.351563-.1875-.46875-.046875-.046875-.140625-.046875-.164063.023437-.023437.023438-.046874.046876-.046874.09375-.070313.210938 0 .375.140624.5625.070313.046876.164063.023438.210938-.046874.023438-.046876.046875-.140626.046875-.164063zm-1.78125.28125c-.023437-.164063-.046875-.304687-.1875-.421875-.117187-.070312-.234375-.046875-.234375.09375-.046875.164062 0 .328125.117188.492188.023437.046874.09375.09375.164062.09375.070312-.023438.09375-.09375.117188-.164063.023437-.023437.023437-.046875.023437-.09375zm21.609375 16.289063c.164062 0 .257812-.046876.328125-.117188.117187-.117188.09375-.304688-.070313-.328125-.164062-.046875-.304687 0-.421874.117187-.09375.09375-.070313.210938.046874.28125.046876.023438.09375.046876.117188.046876zm-25.640625-11.4375c-.046875-.1875-.09375-.304688-.234375-.398438-.070312-.023438-.117188-.046875-.1875-.023438-.070312.046876-.09375.117188-.09375.1875 0 .164063.09375.257813.210938.351563.046874.046875.117187.070313.1875.023437.046874-.023437.070312-.09375.117187-.140624zm24.914063 2.648437c-.164063 0-.351563.1875-.375.351563-.023438.09375.023437.164062.117187.1875.1875.023437.421875-.164063.445313-.375 0-.09375-.09375-.1875-.1875-.164063zm-10.21875 16.875c-.117188 0-.234376.09375-.257813.210937 0 .140626.070313.257813.210937.304688.140626.046875.257813 0 .304688-.117188.023438-.023437.023438-.046874.023438-.070312.023437-.140625-.140626-.304688-.28125-.328125zm-3.796876-25.570313c-.023437-.117187-.046874-.1875-.09375-.28125-.046874-.070312-.164062-.070312-.210937.023438-.09375.164062-.117187.351562-.023437.515625.046874.117187.1875.117187.234374.023437.046876-.09375.070313-.1875.09375-.28125zm-1.289062.539063c-.023438-.070313-.046875-.164063-.09375-.210937-.070312-.117188-.1875-.117188-.257812 0-.09375.164062-.070313.351562.023437.492187.046875.046875.09375.070313.140625.070313.070312.023437.09375-.046876.117188-.09375.023437-.09375.046874-.164063.070312-.257813zm7.429688.492187c.046874-.023437.09375-.046874.117187-.070312.140625-.09375.1875-.28125.140625-.46875-.023438-.09375-.117188-.117188-.210938-.046875s-.117187.164063-.140624.28125c-.023438.09375-.023438.210937.09375.304687zm-19.875 6.328126c-.046876 0-.117188.070312-.117188.140624.023438.1875.117188.328126.257812.398438.070313.023438.140626.023438.164063-.023438.046875-.046874.070313-.117187.046875-.164062 0-.164062-.164062-.328125-.351562-.351562zm25.03125-1.898438c0-.164062-.117188-.210938-.210938-.164062-.117188.070312-.210938.164062-.234375.328124 0 .070313 0 .140626.070313.164063.046874 0 .09375.023437.140624 0 .140626-.070313.210938-.210937.234376-.328125zm-9.796876-6.070312c-.023437-.046876-.023437-.117188-.070312-.1875-.023438-.046876-.117188-.046876-.164062 0-.09375.164062-.140626.328124-.070313.515624.046875.070313.140625.09375.210937.023438.070313-.09375.09375-.210938.09375-.351562zm-15.070312 18.539062h.117188c.070312-.023438.117187-.070312.140624-.140625.023438-.070313 0-.140625-.070312-.1875-.070312-.023437-.140625-.070313-.234375-.09375-.070313 0-.140625.046875-.1875.117187-.023437.070313 0 .140626.046875.1875.070312.046876.140625.09375.1875.117188zm19.171875 7.242188c-.023437-.117188-.070313-.1875-.164063-.234376-.09375-.046874-.210937-.023437-.257812.070313-.023438.046875-.046875.117187-.046875.164063.046875.164062.28125.234374.398437.117187.046876-.046875.046876-.09375.070313-.117187zm-19.078125-4.5c0-.046876 0-.070313 0-.070313-.070312-.140625-.304688-.210937-.421875-.117187-.046875.046874-.070313.140624-.023437.210937.070312.140625.28125.1875.398437.070313.023437-.046876.046875-.070313.046875-.09375zm28.078125-9.9375c.140625 0 .257813-.09375.304687-.234376.023438-.070312-.023437-.164062-.117187-.164062-.140625 0-.28125.117188-.304687.257812-.023438.070313.046874.140626.117187.140626zm-23.929687-9.515626c0 .140626.046874.257813.140624.328126.023438.046874.070313.070312.09375.046874.046876-.023437.09375-.070312.09375-.09375.046876-.164062-.046874-.328124-.164062-.398437-.046875-.046875-.117188-.023437-.117188.023437-.023437.023438-.023437.070313-.046874.09375zm-2.601563 19.5s.023437 0 .046875-.023437c.070312-.023437.117188-.070313.140625-.140625 0-.070312-.046875-.140625-.117187-.164062-.046876-.023438-.140626-.046876-.1875-.046876-.046876.023438-.117188.070313-.140626.117188-.046874.046875 0 .117188.046876.164062.046874.070313.117187.09375.210937.09375zm15.515625 3.585938c-.117188 0-.210938.070312-.210938.164062-.023437.117188.070313.210938.1875.234376.09375 0 .210938-.070313.210938-.1875 0-.09375-.09375-.210938-.1875-.210938zm-18.703125-9.1875c-.117187 0-.164063.09375-.140625.1875.046875.117188.1875.1875.351562.164062.070313-.023437.117188-.117187.046876-.1875-.046876-.117187-.164063-.140624-.257813-.164062zm3.65625-4.664062c-.023437-.140626-.140625-.257813-.28125-.28125-.046875 0-.09375.046874-.09375.09375-.023437.140624.046875.28125.164063.328124.09375.046876.210937-.023437.210937-.140624zm-4.101563 6.023437c-.117187 0-.164062.117187-.117187.1875.046875.117187.164063.164063.304687.140625.023438 0 .070313-.046875.070313-.09375 0-.023438 0-.117188-.023437-.117188-.09375-.046874-.164063-.09375-.234376-.117187zm1.5-.328125c-.09375-.023438-.164062.09375-.117187.1875s.117187.140625.210937.140625c.070313 0 .117188-.023437.140626-.09375 0-.046875 0-.117187-.023438-.140625-.046875-.09375-.117188-.09375-.210938-.09375zm14.53125 2.8125v.023438c-.023437-.1875.046876-.328126.09375-.492188.023438-.070312.046876-.140625.070313-.1875 0-.09375.046875-.140625.023437-.257812-.164062.234374-.234374.492187-.304687.726562-.023437.070312 0 .140625 0 .210938.046875 0 .070313 0 .117187-.023438zm13.101563-8.71875c-.070313.046875-.09375.1875-.234375.140625-.046875-.023437-.09375.070313-.070312.117187 0 .070313.046874.117188.117187.117188.140625 0 .234375-.09375.28125-.234375 0-.046875 0-.117187-.09375-.140625zm-19.242187 14.742188c-.09375.023437-.1875.117187-.164063.210937 0 .09375.09375.164063.210937.140625.070313 0 .164063-.09375.140626-.164062 0-.070313-.117188-.1875-.1875-.1875zm21.140624-16.03125c-.023437-.023438-.070312-.070313-.09375-.070313-.140624 0-.234374.09375-.28125.210937 0 .046876.023438.117188.070313.117188.140625.023438.304687-.09375.304687-.257812zm-27.726562-2.15625c0-.09375-.117188-.164063-.046875-.28125.046875-.046876-.09375-.140626-.164063-.117188-.070312 0-.09375.070312-.09375.140625.023438.117187.09375.210937.1875.257813.023438.023437.070313 0 .117188 0zm24.65625-2.296876s-.023438-.046874-.046875-.070312c-.046875 0-.09375 0-.117187.023438-.09375.046874-.140626.140624-.164063.257812 0 .046875.09375.117188.140625.09375.117188-.046875.1875-.140625.1875-.304688zm3.5625 6.234376c.140625-.023438.234375-.046876.257812-.164063.023438-.023437.023438-.09375 0-.140625-.023437-.023438-.070312-.023438-.117187-.023438-.09375.023438-.164063.070313-.210937.164063v.09375c.023437.023437.070312.046875.070312.070313zm-27.492188-6.773438c0-.164062-.046874-.28125-.1875-.351562-.023437 0-.046874 0-.070312 0-.023438.023437-.046875.070312-.046875.09375 0 .09375.046875.210937.117187.304687.046876.023437.070313.023437.117188.023437.023438 0 .046875-.046874.070312-.070312zm25.664063 7.640625s0-.046875-.023437-.070313c-.046876 0-.09375-.023437-.140626 0-.09375.023438-.140624.117188-.164062.1875-.023438.070313.023438.140626.070312.140626.140626 0 .257813-.117188.257813-.257813zm-13.3125 15.210937c-.023437-.070312-.046875-.09375-.070313-.140624-.046874-.070313-.09375-.070313-.164062-.070313-.070312.023437-.117188.117187-.117188.1875 0 .046875.046876.117187.09375.140625.070313.023438.140626.023438.210938-.023438.023438-.023437.023438-.070312.046875-.09375zm12.820313-14.132812c.023437-.046875-.046876-.117188-.117188-.117188-.09375 0-.210938.09375-.234375.210938 0 .023438.023437.09375.046875.09375.140625.070312.304688-.046875.304688-.1875zm-28.054688 6.65625c.117188 0 .1875-.046875.1875-.117188.023438-.070312-.023438-.117187-.070312-.140624-.046876-.023438-.09375-.023438-.117188-.023438-.070312-.023438-.117188 0-.164062.070312-.023438.070313.023437.117188.070312.164063.046875.023437.09375.046875.09375.046875zm3.28125 2.414062c-.023438-.046874-.046875-.09375-.070312-.117187-.046876-.023437-.09375-.046875-.140626-.046875-.070312-.023438-.140624.046875-.164062.09375-.023438.070312.046875.164062.117188.1875.070312.023438.140624.023438.1875-.023438.023437-.023437.046874-.070312.070312-.09375zm13.453125 4.359376c-.023437-.117188-.09375-.210938-.210937-.210938-.070313 0-.140626.09375-.140626.164062 0 .09375.09375.1875.1875.1875s.164063-.070312.164063-.140624zm-17.320313-14.367188c0-.117188-.070312-.210938-.210937-.234375-.023437 0-.09375.023437-.117187.070313 0 .09375.046874.164062.140624.234374.023438.023438.046876.023438.070313.023438.070313.023438.117187-.046875.117187-.09375zm5.484376 12.773438c-.070313 0-.164063.117187-.164063.1875.023437.09375.09375.164062.210937.164062.09375-.023438.140626-.09375.164063-.164062 0-.070313-.117187-.1875-.210937-.1875zm2.578124.515624c0-.070312-.09375-.164062-.1875-.164062-.070312 0-.164062.070312-.164062.164062 0 .070313.09375.164063.1875.164063.070312 0 .164062-.09375.164062-.164063zm-7.453124-12.234374v-.023438c-.023438-.117188-.164063-.210938-.28125-.164062-.023438 0-.046876.046874-.046876.070312-.023437.117188.070313.234375.210938.234375.070312 0 .117188-.046875.117188-.117187zm24.726562 9.632812c0-.023438 0-.046875 0-.070312-.046875-.070313-.117188-.117188-.1875-.09375-.070312 0-.164062.070312-.164062.140624 0 .023438.023437.070313.046874.070313.070313.070313.164063.09375.234376.046875.046874-.023438.046874-.070312.070312-.09375zm-12.421875-23.109375c-.023437-.046875-.023437-.09375-.046875-.140625 0-.023438-.046875-.070312-.09375-.070312-.023438 0-.070312.046874-.070312.09375-.023438.09375-.023438.1875.023437.28125.023437.023437.046875.046874.070313.046874.023437 0 .070312-.023437.070312-.046874.023438-.046876.023438-.09375.046875-.164063zm16.5 14.484375c-.023437 0-.023437-.046875-.046875-.046875-.117188-.070313-.304688 0-.304688.164063-.023437.023437 0 .046874.023438.070312.140625.070312.304688-.023438.328125-.1875zm-13.78125-15.609375c0-.023437 0-.070313 0-.09375-.023437-.023437-.070313-.070313-.09375-.070313s-.070313.023438-.09375.046876c-.023437.070312-.023437.140624-.023437.1875 0 .117187.046874.164062.117187.164062.070313-.023438.070313-.070312.09375-.140625 0-.023437 0-.070313 0-.09375zm1.945313.304687c0-.046874 0-.046874 0-.070312-.023438-.046875-.046876-.09375-.09375-.09375-.046876 0-.09375.023438-.09375.046875-.070313.09375-.070313.1875-.023438.257813 0 .046874.046875.070312.070312.070312.046876 0 .070313-.023438.09375-.046875.023438-.046875.046876-.117187.046876-.164063zm12.375 9.257813s.046874 0 .070312-.023437c.09375-.046876.140625-.140626.117188-.234376-.023438-.023437-.046876-.046874-.070313-.046874-.09375-.023438-.140625.046874-.210937.117187 0 .023437-.023438.046875-.023438.070313-.023438.070312.046875.140624.117188.117187zm-23.742188 2.367187c0-.023437 0-.070312 0-.09375-.023438-.070312-.070312-.117187-.164062-.140624-.023438 0-.070313.023437-.09375.046874-.046876.070313-.023438.140626.023437.210938 0 0 .023437.046875.023437.046875.046876.023437.117188.023437.140626.023437.023437 0 .046874-.046874.070312-.09375zm21.28125-4.3125c-.140625 0-.234375.140626-.210938.257813 0 .046875.070313.070313.117188.070313.09375-.046876.140625-.117188.140625-.210938 0-.046875-.023437-.070312-.046875-.117188zm-22.6875 4.40625c0-.023437-.023438-.070312-.046875-.09375-.046875-.09375-.140625-.117187-.210937-.09375-.046876.046876-.070313.140626 0 .234376.023437.023437.070312.070312.117187.09375.070313 0 .140625-.046876.140625-.140626zm3.773438-10.570312c-.023438-.046875-.046876-.117188-.09375-.1875 0 0-.070313-.023438-.070313-.023438-.023437.023438-.070313.046876-.070313.070313-.023437.117187 0 .210937.070313.28125.023437.023437.046875.023437.09375.023437 0 0 .023437-.023437.023437-.023437.023438-.046875.023438-.09375.046876-.140625zm21.421874 15.703125c-.023437-.023437-.046874-.070313-.09375-.09375-.09375-.046875-.210937.046875-.234374.140625-.023438.023438.023437.09375.023437.09375.09375.046875.164063.046875.234375-.023438.023438-.023437.046875-.046874.070312-.117187zm.445313-1.429687c-.046875.023437-.070313.023437-.09375.023437-.070313.046875-.117187.140625-.09375.210937.023437.046876.140625.070313.210937.023438.023438-.023438.046876-.023438.046876-.046875.023437-.046875.046874-.09375.023437-.140625s-.046875-.046875-.09375-.070312zm-.515625-1.21875c-.023438-.023438-.070312-.046876-.09375-.070313-.09375 0-.1875.046875-.234375.164063 0 .023437.023437.09375.046875.09375.117188.046874.257812-.023438.28125-.1875zm-27.46875 9c-.046875-.023438-.070312-.070313-.140625-.09375-.070313-.046876-.140625-.023438-.164063.046874-.023437.023438-.023437.09375 0 .117188.046876.09375.164063.117188.257813.046875 0-.023437.023437-.070313.046875-.117187zm-2.296875-3.75c.046875-.023438.09375-.046876.117187-.09375 0-.023438-.046874-.09375-.070312-.117188s-.070312-.023438-.09375-.046875c-.09375-.023437-.140625.023437-.164062.070313-.023438.070312.023437.117187.070312.140624.046875.023438.09375.046876.140625.046876zm-.9375 1.03125c.046875-.046876.09375-.070313.117187-.09375 0-.046876-.023437-.117188-.046874-.117188-.070313-.023438-.117188-.046875-.1875-.070312-.023438 0-.09375.046874-.09375.070312s0 .09375.023437.117188c.046875.023437.117187.070312.1875.09375zm2.109375-13.007813s-.046875.023437-.046875.046875c0 .046875 0 .117188.046875.164062.046875.09375.140625.117188.1875.070313s.046875-.117187 0-.1875-.09375-.117187-.1875-.09375zm19.195312 5.625c.046876-.046875.09375-.09375.117188-.140625s.023438-.117188-.046875-.164062c0-.023438-.046875-.023438-.070313 0-.09375.023437-.140624.117187-.09375.210937 0 .023437.046876.046875.09375.09375zm-8.625 14.4375c0-.117187-.070312-.1875-.164062-.1875-.046875 0-.117188.046875-.117188.140625 0 .070312.070313.164062.164063.140625.046875 0 .09375-.070313.117187-.09375zm18.609376-14.296875s-.046876-.070312-.070313-.070312c-.09375-.023438-.1875.070312-.210937.164062-.023438.023438 0 .070312.023437.070312.09375.070313.257813 0 .257813-.164062zm-4.5-9.375c-.023438-.046875-.046876-.070312-.070313-.09375s-.046875-.023438-.070313 0c-.09375.023438-.117187.117188-.117187.1875 0 .046875.023437.070312.023437.070312.046876.023438.09375.023438.117188 0 .046875-.046874.070312-.117187.117188-.164062zm-23.53125 2.695312s-.023438.023438-.023438.046876c-.023438.09375.023438.210937.117188.257812.046874 0 .09375-.023438.09375-.046875.070312-.117187-.023438-.257813-.1875-.257813zm11.625-6.257812c0 .070312.046874.164062.09375.164062.070312.023438.117187-.070312.117187-.164062 0-.117188-.046875-.210938-.117187-.1875-.070313.023438-.070313.117188-.09375.1875zm-.914063 27.46875c0-.046875-.046875-.140625-.117187-.164062-.070313-.023438-.140626.046874-.140626.117187-.023437.070313.023438.117187.070313.140625.070313.023438.164063-.023438.1875-.09375zm-13.335937-16.6875c0-.140625-.117188-.210938-.210938-.164062-.023438.023437-.023438.023437-.023438.046874-.023437.09375.046876.1875.140626.1875.046874 0 .070312-.046874.09375-.070312zm.210937 4.21875c-.070313 0-.117187.070312-.09375.117188.023437.117187.117187.164062.1875.140624.046875-.023437.070313-.046874.070313-.09375.023437-.070312-.070313-.140624-.164063-.164062zm31.265625 1.148438c.117188 0 .1875-.046876.210938-.117188 0-.023438-.023438-.070312-.046876-.09375-.070312-.046875-.140624-.023438-.210937.046875-.023437.046875-.023437.070313 0 .117187 0 .023438.023437.023438.046875.046876zm-2.648438-9.890626c-.09375.023438-.164062.070313-.164062.164063 0 .046875.023438.09375.046875.09375.09375.023437.117187-.023437.164063-.09375 0-.023437.023437-.046875.023437-.070313-.023437-.023437-.046875-.070312-.070313-.09375zm-15.609374 22.570313c.070312 0 .117187-.070313.117187-.117187-.023437-.09375-.09375-.164063-.164063-.164063-.046874.023437-.09375.070313-.09375.140625 0 .09375.070313.140625.140626.140625zm10.992187-4.992187c0-.070313-.070313-.117188-.140625-.117188s-.117188.046875-.117188.117188c-.023437.046874.046876.117187.140626.117187.070312 0 .117187-.046875.117187-.117187zm-21.867187.328124c-.023438-.023437-.046876-.046874-.09375-.070312-.046876 0-.117188-.023438-.140626.023438-.023437.023437-.023437.046874-.023437.070312 0 .070312.046875.117188.117187.117188.046876 0 .09375-.046876.117188-.070313.023438 0 .023438-.023437.023438-.070313zm28.945312-6.796874s0-.023438-.023438-.046876c-.046874-.046874-.117187-.046874-.164062 0-.023438.023438-.070312.070313-.09375.117188 0 0 .023438.023438.046875.046875.070313.046875.164063.023437.234375-.046875 0-.023438 0-.046875 0-.070312zm.164062-3.164063c-.023437-.023437-.023437-.046875-.046874-.046875-.070313-.070312-.210938.023438-.210938.117188 0 .023437.023438.046874.023438.046874.046874.046876.117187.023438.164062 0 .046875-.023437.046875-.070312.070312-.117187zm-21.632812 13.429687c0-.070312-.09375-.140624-.140625-.117187s-.070313.070313-.09375.117187c0 .046876.070313.117188.117187.117188.070313 0 .117188-.070312.117188-.117188zm-10.734375-11.859374c-.023437-.09375-.09375-.164063-.1875-.164063-.023437 0-.046875.023437-.070313.046875v.070312c.046876.070313.09375.117188.164063.09375.046875 0 .070313-.046874.09375-.046874zm20.8125-13.453126c.023437 0 .046875 0 .046875-.023437.070312-.070313.09375-.1875.023438-.234375 0-.023438-.046876-.046875-.070313-.023438-.070313.046876-.09375.164063-.046875.257813 0 .023437.023438.023437.046875.023437zm-18.609375 13.617188c-.023438-.09375-.117188-.164062-.210938-.140625 0 .023437-.046874.046875-.046874.070313.023437.070312.09375.164062.164062.140624.046875 0 .070312-.046874.09375-.070312zm3.375-8.085938c-.023438.023438-.046875.023438-.046875.023438 0 .046875-.023437.117188 0 .140625.023437.046875.070313.070313.117187.09375 0 0 .023438-.023437.046876-.023437 0-.070313 0-.117188 0-.164063-.023438-.023437-.070313-.046875-.117188-.070313zm6.1875 18.914063c-.023438-.09375-.117188-.140625-.164062-.140625-.046876.023438-.070313.070312-.070313.117188 0 .070312.070313.117187.117187.09375.046876 0 .09375-.046876.117188-.070313zm15.492188-2.296875c.023437-.023438.070312-.046875.070312-.09375.023438-.046875-.023438-.09375-.09375-.09375-.046875 0-.09375.023438-.117188.070312-.023437.046876.046876.09375.140626.117188zm-9.539063-6.9375c-.070313.023438-.117187.070312-.09375.140625 0 .046875.023437.09375.09375.09375.046875 0 .117187-.070313.09375-.117187-.023437-.046876-.070313-.09375-.09375-.117188zm-16.3125-5.742188c0-.09375-.046875-.164062-.117187-.164062-.023438 0-.070313.046875-.070313.046875-.023437.09375.046875.164063.117187.164063.023438 0 .070313-.023438.070313-.046876zm14.15625 17.132813c0-.09375-.046875-.140625-.117187-.117187-.046876 0-.09375.046874-.070313.09375.023437.070312.046875.117187.09375.09375.046875 0 .09375-.046876.09375-.070313zm-14.765625-19.921875c-.023438.023438-.046875.023438-.070312.046875 0 .09375.046874.164063.140624.164063.023438 0 .046876-.046876.046876-.070313.023437-.070313-.046876-.117187-.117188-.140625zm16.921875 19.546875c.046875.046875.070313.09375.117187.117187.023438 0 .070313-.023437.070313-.070312.046875-.046875-.023437-.117188-.070313-.117188-.046874 0-.070312.046876-.117187.070313zm6.140625-26.976563c0-.023437-.023438-.046874-.046875-.070312-.023437 0-.070313.023438-.070313.023438-.023437.023437-.023437.070312-.023437.117187 0 .023437.023437.046875.023437.070313.023438 0 .070313-.023438.070313-.046876.046875 0 .046875-.046874.046875-.09375zm4.382812 2.859376c-.023437-.023438-.046874-.046876-.070312-.046876-.046875.023438-.070312.046876-.09375.09375-.023438 0 0 .070313 0 .070313h.070312c.046876-.023437.070313-.070313.09375-.117187zm1.21875 16.734374.070313.070313c.070313 0 .09375 0 .117187-.070313.023438-.046874 0-.070312-.046874-.09375-.046876-.023437-.117188.023438-.140626.09375zm-10.3125 7.054688c-.046874-.046875-.070312-.09375-.117187-.09375-.046875-.023438-.09375.023438-.09375.09375.023437.046875.046875.070312.09375.070312s.070313-.046874.117187-.070312zm13.148438-8.882812c-.070312-.023438-.09375-.070313-.117188-.070313-.046874 0-.117187.023437-.117187.09375-.023437.023437.046875.09375.09375.070313.046875 0 .070313-.046876.140625-.09375zm-10.148438 8.226562c-.046874-.046875-.09375-.09375-.117187-.09375-.046875-.023438-.117187.023438-.09375.09375 0 .046875.046875.070312.09375.070312.023437 0 .070313-.046874.117187-.070312zm-22.007812-13.3125c-.023438.046875-.070312.070312-.070312.09375 0 .046875.070312.09375.117187.09375.023437 0 .070313-.046875.070313-.046875-.046876-.046875-.09375-.09375-.117188-.140625zm25.359375-12.234375c.070313 0 .117187-.09375.070313-.140625 0-.023438-.046876-.023438-.070313-.023438-.046875.023438-.070313.09375-.046875.140626 0 0 .023438.023437.046875.023437zm-21.445313 23.015625c-.046874.070312-.09375.09375-.09375.140625 0 .023437.046876.046875.09375.070313.046876.023437.117188-.023438.09375-.09375 0-.023438-.046874-.046876-.09375-.117188zm19.617188 1.03125c.023438-.046875.070312-.070312.070312-.09375 0-.070312-.023437-.09375-.09375-.09375-.046874 0-.09375.023438-.070312.070312 0 .046876.046875.070313.09375.117188zm-11.765625 1.875c-.046875-.023438-.070313-.046875-.117187-.046875-.023438 0-.070313.023437-.046876.070313.023438.046874.046876.046874.09375.046874 0 0 .023438-.023437.070313-.070312zm3.515625-.140625c-.070312-.046875-.09375-.09375-.140625-.09375-.023437 0-.070313.046875-.070313.09375 0 0 .046876.046875.070313.046875.046875.023438.070313-.023438.140625-.046875zm11.859375-4.898437c-.046875-.023438-.09375-.046876-.117187-.046876-.023438 0-.046876.023438-.070313.046876 0 .046874.070313.09375.117187.070312.023438-.023438.023438-.023438.070313-.070312zm-4.6875-22.289063c-.023437-.046875-.023437-.09375-.046875-.09375-.046875-.023437-.070312 0-.070312.046875v.070312c.046874 0 .070312 0 .117187-.023437zm-9.632813 27.820313c-.046874-.023438-.070312-.070313-.09375-.070313 0 0-.046874 0-.046874.023437-.023438.046876 0 .09375.046874.09375.023438 0 .046876-.023437.09375-.046874zm-7.710937-2.648438c-.023437-.046875-.046875-.070312-.070313-.070312-.023437 0-.046874.023437-.070312.046874-.023438.023438.023438.070313.070312.070313.023438 0 .046876-.023437.070313-.046875zm19.453125-.304688c.046875 0 .070312 0 .070312-.023437s0-.070313-.023437-.070313c-.046875-.023437-.09375 0-.09375.046876 0 .023437.023437.046874.046875.046874zm-5.671875 3.84375c-.023437.046876-.070313.070313-.070313.070313.023438.023437.046876.046875.070313.09375 0 0 .046875-.046875.046875-.046875 0-.046875-.023438-.070312-.046875-.117188zm-1.265625.398438c-.046875 0-.09375-.023438-.117188-.023438 0 0-.023437.023438-.023437.046876 0 .046874.023437.070312.070313.070312.023437-.023438.046874-.046875.070312-.09375zm7.992188-4.875c0-.023438 0-.023438.023437-.046875-.046875 0-.070313-.023437-.09375-.023437 0 0-.046875.023437-.070313.023437.023438.023437.023438.070313.046876.070313.023437 0 .046874-.023438.09375-.023438zm5.179687-3.492188c.023437-.046874.046875-.070312.046875-.09375 0-.023437-.023438-.023437-.046875-.046874-.046875 0-.070313.023437-.070313.070312 0 .023438.046876.046875.070313.070312zm-.679687-1.359374c-.046876.023437-.070313.023437-.09375.046874.023437.023438.023437.046876.046874.046876.023438.023437.046876 0 .09375-.023438-.023437-.023438-.046874-.046875-.046874-.070312z" fill="#0a0a0a" transform="translate(-451 -112)"/></svg>