<svg height="33" viewBox="0 0 36 33" width="36" xmlns="http://www.w3.org/2000/svg"><path d="m418.539063 182.359375c0-.140625.023437-.28125 0-.445313-.023438-.539062-.164063-1.054687-.445313-1.523437-.117187-.1875-.257812-.398437-.398437-.585937-.257813-.328126-.5625-.65625-.867188-.960938-.398437-.398438-.796875-.75-1.21875-1.101562-.023437-.023438-.046875-.046876-.070312-.046876-.070313-.070312-.164063-.070312-.210938-.117187-.070312-.070313-.140625-.140625-.210937-.1875-.257813-.140625-.492188-.304687-.75-.421875-.210938-.117188-.375-.257812-.539063-.445312-.070312-.117188-.164062-.234376-.257812-.351563-.070313-.117187-.140625-.234375-.234375-.351563-.140625-.210937-.351563-.351562-.585938-.445312-.445312-.1875-.914062 0-1.125.421875-.117187.257813-.164062.539063-.140625.84375.023438.351563.1875.65625.445313.890625.210937.210938.46875.257812.75.210938.117187-.023438.234375-.070313.375-.09375.351562-.140626.726562-.164063 1.078125.023437.164062.046875.28125.140625.398437.234375.515625.375 1.007813.773438 1.476563 1.171875.445312.421875.890625.84375 1.242187 1.335937.445313.65625.65625 1.359376.609375 2.15625-.023437.679688-.210937 1.3125-.5625 1.875-.164062.257813-.328125.515626-.492187.796876-.328125.46875-.65625.914062-1.054688 1.335937-.164062.1875-.375.351563-.515625.585937-.023437.023438-.046875.046876-.070312.046876-.09375.09375-.210938.164062-.28125.234374-.257813.210938-.515625.445313-.773438.65625-.46875.328126-1.007812.421876-1.570312.328126-.421875-.09375-.820313-.234376-1.21875-.375-.398438-.140626-.773438-.28125-1.148438-.421876-.1875-.046874-.328125-.164062-.421875-.28125-.375-.46875-.679687-.984374-.984375-1.5-.164062-.28125-.28125-.609374-.351562-.960937-.117188-.492187-.164063-1.007813-.140625-1.546875 0-.210938.023437-.421875.09375-.609375.046875-.234375.140625-.445313.304687-.632813.046875-.09375.09375-.1875.164063-.257812.375-.492188.75-.960938 1.125-1.453125.28125-.328125.632812-.5625 1.054687-.632813.1875-.023437.351563-.046874.515625-.023437.46875.023437.9375.070313 1.40625.140625.5625.117188 1.078125.328125 1.523438.703125.398437.28125.726562.632813.960937 1.078125.1875.398438.257813.820312.1875 1.265625-.070312.421875-.28125.820313-.515625 1.171875-.28125.421875-.585937.773438-.960937 1.125-.257813.257812-.5625.46875-.914063.609375-.445312.1875-.914062.1875-1.382812.023437-.257813-.09375-.515625-.210937-.703125-.46875-.140625-.070312-.210938-.234374-.28125-.375-.257813-.445312-.328125-.914062-.28125-1.429687.09375-.609375.375-1.101563.9375-1.429687.351562-.1875.75-.257813 1.125-.1875.164062.023437.328125.070312.445312.1875.328125.234374.351563.679687.046875.960937-.046875.046875-.117187.09375-.1875.117187-.164062.070313-.304687.140626-.492187.140626-.140625.023437-.28125.046874-.421875.117187-.304688.1875-.328125.515625-.210938.75.164063.328125.539063.515625.914063.445313.164062-.046876.351562-.117188.492187-.257813.351563-.257813.632813-.5625.84375-.960937.328125-.609376.257813-1.242188-.210937-1.734376-.257813-.28125-.5625-.46875-.914063-.609374-.351562-.140626-.726562-.1875-1.101562-.164063-.492188.046875-.960938.210937-1.289063.609375-.1875.1875-.375.351562-.492187.585938-.328125.46875-.46875 1.007812-.46875 1.570312.023437.375.117187.726562.234375 1.078125.351562.9375.984375 1.570313 1.898437 1.898437.117188.046876.234375.09375.351563.140626.703125.164062 1.335937.117187 1.921875-.351563.164062-.117187.328125-.257813.492187-.398437.5625-.515626 1.03125-1.101563 1.429688-1.78125.210937-.375.398437-.75.445312-1.195313.070313-.46875.09375-.9375-.140625-1.382813-.023437-.023437-.023437-.070312-.023437-.117187 0-.117187-.046875-.210937-.117188-.304687-.28125-.539063-.65625-.984376-1.125-1.335938-.257812-.1875-.515625-.351562-.75-.515625-.375-.234375-.796875-.375-1.21875-.445313-.328125-.046874-.65625-.09375-.960937-.140624-.398438-.046876-.796875-.09375-1.195313-.09375-.210937.023437-.398437.046874-.609375.140624-.375.140626-.632812.421876-.84375.75-.164062.234376-.304687.46875-.46875.703126-.210937.257812-.445312.515624-.65625.773437-.164062.1875-.351562.375-.492187.585937-.257813.304688-.375.679688-.351563 1.101563.023438.609375.046875 1.242187.09375 1.851563 0 .234374.070313.445312.140625.65625.09375.257812.210938.46875.351563.703124.210937.328126.421875.65625.585937 1.007813.070313.117187.117188.210937.1875.328125.140625.210938.28125.421875.46875.5625.234375.1875.445313.328125.703125.445312.210938.046876.398438.117188.585938.1875.492187.164063.960937.328126 1.453125.515626.210937.046874.421875.117187.632812.164062.46875.09375.890625.046875 1.3125-.140625.351563-.140625.632813-.328125.914063-.585937.398437-.375.796875-.773438 1.195312-1.148438.257813-.28125.539063-.5625.75-.890625.46875-.632813.890625-1.3125 1.289063-1.96875.164062-.28125.304687-.609375.351562-.9375.070313-.398437.117188-.796875.117188-1.21875zm-5.90625-5.507813c-.070313-.023437-.09375-.023437-.117188-.023437-.117187-.023437-.164062-.164063-.09375-.28125.070313-.117187.234375-.164063.351563-.117187.070312.023437.117187.09375.140625.1875 0 .070312-.046875.140624-.09375.164062-.070313.023438-.140625.046875-.1875.070312zm-4.875 7.921876c-.023438-.09375-.046875-.117188-.046875-.140626 0-.070312.046875-.117187.09375-.09375.046875.023438.023437.070313.023437.09375-.023437.023438-.023437.046876-.070312.140626zm5.015625-8.578126c.070312-.023437.09375.023438.117187.09375 0 .023438-.023437.070313-.070312.046876-.046875 0-.070313-.046876-.070313-.070313s.023438-.070313.023438-.070313zm-5.71875 4.101563c.210937 0 .210937 0 .421875-.140625.09375-.070312.210937-.117188.304687-.1875.117188-.070312.210938-.164062.304688-.257812.140625-.140626.164062-.351563.117187-.539063-.117187-.28125-.304687-.46875-.585937-.5625-.140625-.046875-.28125 0-.398438.09375-.140625.09375-.257812.234375-.351562.398437-.046875.117188-.117188.234376-.1875.375-.140625.234376-.351563.398438-.609375.515626-.28125.117187-.585938.140624-.890625.140624-.304688 0-.609375-.023437-.9375-.046874-.421875-.046876-.867188-.023438-1.289063.070312-.328125.070312-.65625.210938-.960937.351562-.351563.164063-.703125.328126-1.054688.46875-.609375.210938-1.242187.304688-1.875.210938-.257812-.046875-.515625-.117188-.773437-.164062-.210938-.023438-.398438-.046876-.609375.023437-.304688.09375-.398438.398437-.164063.65625.117188.09375.234375.164063.375.234375.28125.117188.609375.1875.914063.210938.445312 0 .890625.023437 1.335937 0 .5625 0 1.125-.140626 1.640625-.398438.234375-.09375.46875-.210938.703125-.304688.5625-.257812 1.125-.421874 1.734375-.398437.28125 0 .585938.046875.867188.070313.257812.023437.492187.046874.75.023437.515625-.046875.9375-.328125 1.289062-.703125-.023437-.070312-.046875-.117188-.070312-.140625zm14.554687 5.460937c0-.140624-.023437-.304687-.046875-.445312-.023437-.140625-.09375-.234375-.1875-.328125-.1875-.117187-.351562-.234375-.585937-.234375-.140625 0-.28125 0-.398438.023438-.679687.046874-1.195312.351562-1.546875.9375-.09375.1875-.1875.351562-.257812.515624-.210938.351563-.375.703126-.585938 1.054688-.257812.421875-.5625.820312-.914062 1.171875-.210938.1875-.445313.351563-.703125.515625-.140625.09375-.28125.210938-.445313.351562-.09375.070313-.164062.164063-.1875.28125-.09375.257813 0 .515626.257813.632813.117187.070313.257812.070313.375.023437.140625-.023437.257812-.09375.351562-.210937.140625-.140625.257813-.28125.375-.445313.210938-.328124.445313-.632812.726563-.914062.140625-.164062.257812-.304688.398437-.46875.328125-.398438.585938-.84375.773438-1.335938.117187-.210937.210937-.445312.328125-.65625.09375-.234374.257812-.421874.445312-.585937.210938-.140625.421875-.1875.632813-.164063.1875.023438.304687.117188.398437.28125.09375.164063.140625.351563.117188.539063-.023438.164063-.070313.328125-.117188.46875-.210937.515625-.421875 1.03125-.632812 1.546875-.070313.164062-.164063.328125-.234375.492188-.28125.515624-.632813.914062-1.148438 1.171874-.117187.070313-.234375.140626-.351562.234376-.070313.046874-.140625.140624-.210938.210937-.117187.1875-.117187.421875-.023437.5625.140625.1875.328125.28125.539062.234375.140625-.023438.257813-.09375.375-.1875.09375-.09375.210938-.210938.304688-.328125.28125-.351563.539062-.703125.820312-1.03125.375-.445313.632813-.960937.820313-1.523437.1875-.585938.351562-1.195313.445312-1.804688.046875-.1875.070313-.375.09375-.585938zm-19.546875 6c.09375 0 .140625 0 .234375-.023437.257813-.023437.515625-.117187.75-.28125.351563-.234375.703125-.445313 1.054688-.703125.304687-.234375.609375-.46875.890625-.726562.445312-.375.914062-.703126 1.453125-.867188.164062-.046875.304687-.117188.445312-.164062.1875-.09375.375-.210938.515625-.375.375-.421876.1875-1.007813-.117187-1.21875-.1875-.140626-.398438-.234376-.609375-.351563-.023438 0-.023438-.023437-.046875-.023437-.234375-.046876-.46875-.046876-.679688.070312-.234375.117188-.421875.28125-.539062.492188-.09375.164062-.1875.304687-.257813.46875-.210937.46875-.539062.84375-.9375 1.148437-.585937.46875-1.195312.867187-1.875 1.148437-.164062.070313-.304687.164063-.46875.234376-.164062.09375-.28125.1875-.375.328124-.210937.257813-.140625.585938.164063.75.023437.023438.046875.023438.09375.046876.09375.023437.210937.023437.304687.046874zm4.195313-3.398437c-.070313 0-.140625-.046875-.140625-.117187 0-.09375.046875-.164063.140625-.164063.09375-.023437.164062.046875.164062.117187 0 .09375-.070312.164063-.164062.164063zm-6.703125 1.3125c.234375 0 .492187-.046875.726562-.140625.46875-.164062.84375-.492188 1.078125-.960938.1875-.421874.140625-.796874-.070312-1.171874-.070313-.09375-.140625-.1875-.257813-.210938-.023437 0-.046875-.023438-.070312-.046875-.023438-.046875-.046875-.09375-.070313-.09375-.140625-.09375-.28125-.140625-.421875-.210937-.09375-.023438-.164062-.070313-.234375-.140626-.09375-.09375-.1875-.117187-.304687-.140624-.65625-.140626-1.242188 0-1.78125.398437-.1875.164063-.351563.328125-.46875.539063-.234375.445312-.257813.890624.046875 1.289062.070312.140625.1875.257812.304687.351562.445313.375.960938.515626 1.523438.539063zm.375-2.273437c.070312.09375.140625.1875.210937.28125.140625.234374.117188.445312 0 .679687-.140625.28125-.585937.539063-.9375.421875-.070312-.023438-.117187-.046875-.164062-.117188-.046875-.09375-.117188-.210937-.164063-.328124-.09375-.351563.164063-.726563.421875-.796876.09375-.023437.210938-.070312.328125-.09375.09375 0 .1875-.023437.304688-.046874zm18.375-8.929688c.164062.046875.164062.046875.28125.164062.328125.375.679687.75 1.007812 1.148438.164063.1875.304688.398438.421875.609375.257813.445313.304688.9375.210938 1.429687-.070313.28125-.1875.539063-.28125.796876-.070313.164062-.117188.351562-.1875.515624-.023438.117188 0 .234376.023437.351563.117188.304687.46875.421875.726563.210937.09375-.09375.164062-.1875.1875-.304687.046875-.140625.046875-.28125.070312-.421875.023438-.210938 0-.445312.023438-.65625.046875-.304688.09375-.585938.140625-.890625.046875-.351563.046875-.679687-.09375-1.007813-.1875-.46875-.421875-.914062-.820313-1.265624 0 0-.023437-.046876-.023437-.070313-.070313-.070313-.117188-.140625-.164063-.210937-.445312-.46875-.867187-.914063-1.3125-1.382813-.28125-.28125-.585937-.5625-.867187-.84375-.234375-.234375-.46875-.46875-.632813-.773437-.070312-.09375-.140625-.210938-.1875-.304688-.09375-.117188-.210937-.210938-.351562-.28125-.09375-.046875-.164063-.046875-.28125 0-.164063.070312-.234375.210938-.257813.375-.023437.210938.023438.398438.140625.585938.140625.210937.328125.351562.5625.46875.023438.023437.046875.023437.070313.046874.1875.140626.351562.28125.492187.445313.351563.328125.65625.679687.984375 1.007813.070313.070312.117188.140624.117188.257812zm-8.53125 11.578125c-.117188 0-.234375-.023437-.351563 0-.351562.046875-.703125.117187-1.03125.234375-.492187.164062-.960937.351562-1.429687.515625-.117188.046875-.234375.117187-.351563.164063-.070312.046874-.140625.09375-.1875.164062-.234375.257812-.164062.585938.140625.75.140625.046875.304688.070312.46875.046875.1875-.046875.375-.117187.539063-.210937.210937-.117188.398437-.234376.609375-.351563.28125-.140625.5625-.28125.84375-.375.421875-.117187.867187-.1875 1.3125-.117187.257812.046874.492187.117187.703125.28125.257812.1875.398437.445312.421875.773437 0 .210937-.023438.398437-.09375.609375-.046875.140625-.09375.257812-.117188.375-.046875.117188-.046875.257812-.046875.375 0 .257812.1875.445312.445313.46875.140625 0 .257812-.023438.375-.117188.164062-.117187.28125-.28125.328125-.46875.023437-.1875.046875-.351562.023437-.515624-.046875-.351563-.09375-.679688-.1875-1.007813-.046875-.210937-.140625-.445313-.257812-.632813-.117188-.164062-.257813-.328124-.46875-.375-.070313-.023437-.164063-.070312-.210938-.140624-.046875-.09375-.117187-.117188-.210937-.140626-.398438-.164062-.820313-.304687-1.265625-.304687zm.5625-13.921875c-.023438-.140625-.046875-.28125-.070313-.445312-.09375-.5625-.351562-1.007813-.84375-1.3125-.046875-.046876-.117187-.09375-.164062-.140626-1.007813-.679687-2.132813.117188-2.273438 1.03125-.046875.328126.023438.632813.140625.9375.164063.421876.445313.75.796875 1.03125.304688.234376.65625.421876 1.078125.46875.257813.023438.492188-.023437.726563-.164062.28125-.164062.421875-.421875.515625-.726562.046875-.234376.070312-.445313.09375-.679688zm-1.382813.820312c-.09375-.023437-.210937-.070312-.304687-.09375-.117188-.046874-.234375-.09375-.351563-.117187-.117187-.046875-.210937-.117187-.304687-.234375-.070313-.09375-.164063-.210938-.210938-.328125-.234375-.398437-.164062-.820313.140625-1.148437.046875-.023438.070313-.046876.09375-.09375.070313-.09375.1875-.117188.28125-.140626h.328125c.679688 0 1.242188.773438 1.078125 1.453126-.046875.28125-.210937.492187-.46875.585937-.09375.046875-.1875.070313-.28125.117187zm-6.117187 6.164063c-.09375 0-.1875 0-.257813.023437-.140625 0-.28125.046876-.421875.140626-.164062.117187-.210937.28125-.164062.515624.046875.164063.164062.28125.304687.375.1875.117188.398438.1875.632813.210938.1875.023438.375.023438.5625.046875.492187 0 .984375.09375 1.476562.257813.164063.070312.351563.117187.515625.140624.210938.046876.421875 0 .609375-.117187.1875-.09375.304688-.328125.257813-.539063-.046875-.234374-.140625-.421874-.351563-.539062-.140625-.09375-.328125-.140625-.492187-.257812-.070313-.070313-.1875-.070313-.28125-.09375-.164063-.023438-.351563-.046876-.515625-.046876-.539063 0-1.101563-.046874-1.640625-.09375-.09375-.023437-.164063-.023437-.234375-.023437zm20.835937 6.234375c0-.023438 0-.023438 0-.023438h.117188c.28125-.046874.5625-.117187.84375-.234374.046875-.023438.09375-.046876.140625-.070313.070312-.046875.164062-.117187.257812-.164063.117188-.070312.210938-.1875.257813-.328124.023437-.09375 0-.1875-.070313-.28125-.140625-.117188-.257812-.140626-.421875-.070313-.117187.070313-.210937.164063-.304687.28125-.070313.070313-.140625.164063-.234375.234375-.257813.234375-.5625.234375-.890625.117188-.023438 0-.046875-.023438-.070313-.046876-.140625-.140624-.257812-.328124-.304687-.5625-.046875-.210937 0-.398437.023437-.585937.070313-.445313.164063-.890625.257813-1.335937.023437-.140626.070312-.28125.140625-.421876.117187-.210937.304687-.304687.539062-.328124.210938 0 .421875.046874.585938.1875.164062.164062.351562.328124.515625.515624.164062.1875.304687.398438.46875.585938.09375.09375.1875.164062.28125.234375s.210937.09375.328125.070313c.140625-.023438.234375-.117188.28125-.234376.046875-.164062 0-.28125-.117188-.351562-.070312-.070312-.164062-.140625-.257812-.164062-.210938-.117188-.375-.257813-.5625-.421876-.046875-.070312-.117188-.140624-.1875-.210937-.210938-.257813-.46875-.445313-.75-.585937-.257813-.140626-.515625-.1875-.796875-.117188-.257813.070312-.46875.234375-.632813.46875-.140625.210938-.1875.445312-.257812.703125-.09375.46875-.1875.960937-.28125 1.429687-.046875.28125-.046875.5625 0 .867188 0 .070312.046875.164062.070312.234375.117188.234375.351563.375.539063.515625.023437.023438.046875.023438.046875.023438.164062.023437.28125.046874.445312.070312zm-21.820312-13.898438c-.09375 0-.1875.023438-.257813.046876-.140625.09375-.1875.304687-.070312.46875.070312.164062.1875.28125.304687.375.304688.234374.632813.375.984375.492187.28125.117187.585938.234375.84375.375.515625.257813.984375.539063 1.429688.890625.09375.09375.210937.164062.328125.234375.140625.09375.304687.117187.46875.09375.1875-.070313.28125-.234375.234375-.445313-.046875-.210937-.1875-.398437-.351563-.515624-.234375-.164063-.445312-.28125-.679687-.421876-.1875-.09375-.398438-.164062-.585938-.257812-.75-.375-1.523437-.679688-2.203125-1.195312-.140625-.09375-.28125-.164063-.445312-.140626zm2.109375 20.296876c.164062-.023438.375-.046876.539062-.1875.257813-.164063.492188-.351563.75-.539063.164063-.117187.351563-.234375.515625-.328125.164063-.117188.351563-.1875.515625-.28125.117188-.046875.210938-.09375.28125-.164062.117188-.09375.210938-.1875.304688-.304688s.09375-.28125.046875-.421875c-.023438-.09375-.046875-.164063-.164063-.1875-.046875 0-.09375-.046875-.140625-.070313-.117187-.09375-.234375-.09375-.375-.070312-.140625 0-.28125.046875-.398437.117188-.164063.09375-.304688.1875-.445313.28125-.445312.351562-.914062.65625-1.382812.9375-.09375.070312-.210938.140624-.304688.210937-.070312.09375-.140625.164063-.210937.257813-.210938.351562-.046875.726562.375.75zm17.578125-17.273438c0 .210938.023437.375.09375.515625.140625.234375.257812.492187.375.75.164062.28125.375.539063.65625.75.09375.070313.210937.140625.304687.210937.445313.304688.75.703126.867188 1.21875.046875.164063.09375.328126.117187.46875.09375.46875.351563.867188.75 1.148438.140625.117188.304688.257812.492188.375.070312.046875.164062.117188.28125.164062.164062.070313.351562 0 .445312-.164062.09375-.117188.070313-.257812-.046875-.351562-.070312-.046876-.140625-.09375-.210937-.117188-.09375-.046875-.1875-.070312-.28125-.070312-.28125-.046876-.492188-.234376-.65625-.445313-.234375-.28125-.351563-.609375-.445313-.960937-.070312-.257813-.164062-.515626-.257812-.773438-.117188-.328125-.351563-.5625-.609375-.773438-.140625-.117187-.328125-.234374-.46875-.351562s-.28125-.257812-.421875-.398438c-.210938-.210937-.351563-.492187-.375-.820312 0-.164062 0-.328125-.023438-.492188 0-.140624-.070312-.257812-.1875-.304687-.140625-.023437-.257812.046875-.328125.164063-.046875.09375-.070312.210937-.070312.257812zm-6.304688-3.703125c-.023437-.28125-.09375-.492187-.164062-.726563-.117188-.328124-.234375-.632812-.328125-.960937-.117188-.351563-.210938-.703125-.351563-1.03125-.1875-.539063-.398437-1.054687-.515625-1.640625-.023437-.117188-.070312-.257812-.140625-.375-.070312-.140625-.1875-.234375-.351562-.257812-.046875 0-.09375.023437-.117188.046874-.09375.140626-.210937.257813-.1875.445313.023438.09375.046875.164063.070313.234375.070312.234375.164062.445312.28125.65625.046875.070312.09375.140625.070312.234375-.023437.070313.023438.140625.070313.1875.09375.070313.140625.1875.164062.304687.070313.164063.140625.351563.1875.539063.234375.609375.421875 1.242187.445313 1.921875 0 .164062.070312.328125.117187.515625.023438.09375.09375.1875.1875.28125.164063.117187.398438.070313.492188-.140625.023437-.070312.046875-.164062.070312-.234375zm5.71875 2.71875c0-.257813-.046875-.375-.234375-.515625-.304687-.1875-.539062-.445312-.75-.703125-.09375-.117187-.1875-.234375-.28125-.328125-.046875-.046875-.117187-.09375-.1875-.164062-.046875-.046876-.070312-.140626-.117187-.210938-.117188-.164062-.234375-.304688-.375-.445312-.234375-.328126-.515625-.585938-.84375-.773438s-.609375-.421875-.84375-.703125c-.09375-.070313-.1875-.164063-.28125-.234375-.234375-.164062-.445313 0-.46875.257812 0 .304688.117187.5625.398437.703126.117188.046874.210938.09375.328125.117187.328125.140625.632813.328125.914063.5625.164062.164063.351562.351563.515625.515625.117187.140625.257812.257812.351562.398438.164063.257812.351563.46875.5625.679687.257813.28125.539063.585937.679688.960937.023437.09375.09375.164063.164062.210938.140625.117188.304688.09375.398438-.070312.046875-.09375.070312-.210938.070312-.257813zm-9.867187-5.0625c-.023438-.070313-.046875-.210937-.09375-.328125-.070313-.257812-.234375-.492188-.398438-.726562-.140625-.210938-.28125-.421876-.398437-.632813-.117188-.1875-.1875-.398437-.28125-.609375-.046875-.070312-.09375-.164062-.140625-.257812-.070313-.140626-.210938-.234376-.351563-.328126-.234375-.140624-.46875.046876-.492187.257813-.023438.140625 0 .304687.046875.421875.09375.234375.210937.421875.351562.609375.09375.117187.1875.257813.257813.398437.140625.28125.28125.5625.398437.867188.070313.164062.140625.304688.234375.46875.046875.117188.140625.234375.28125.304688.257813.140624.515625.023437.585938-.28125 0-.046876 0-.070313 0-.164063zm10.96875 3.1875c-.023438-.117187-.046875-.210937-.09375-.328125-.023438-.09375-.09375-.1875-.1875-.28125-.234375-.28125-.421875-.585938-.585938-.9375-.164062-.304688-.210937-.632812-.210937-.984375 0-.140625 0-.257813-.023438-.375 0-.09375-.023437-.164063-.046875-.257813-.070312-.117187-.164062-.1875-.28125-.1875-.140625-.023437-.234375.070313-.28125.164063s-.070312.1875-.09375.304687c0 .117188 0 .257813.023438.398438.023437.117188.09375.234375.117187.351562.09375.375.257813.703126.398438 1.03125.210937.398438.398437.796876.492187 1.21875 0 .046876.023438.117188.046875.164063.046875.046875.09375.117187.140625.164063.164063.140624.375.09375.46875-.070313.046875-.117187.09375-.257813.117188-.375zm-16.734375-3.796875c-.304688 0-.46875.164062-.46875.398438 0 .140624.046875.28125.09375.398437.117187.140625.210937.304687.328125.46875.210937.234375.421875.46875.632812.703125.09375.09375.210938.164062.328125.210938.09375.023437.210938.046874.304688 0 .1875-.046876.304687-.234376.257812-.46875-.023437-.234376-.140625-.421876-.28125-.609376-.164062-.210937-.351562-.445312-.539062-.632812-.140625-.140625-.304688-.257812-.46875-.375-.070313-.046875-.164063-.070312-.1875-.09375zm12.023437-1.757812c0-.164063-.023437-.351563-.117187-.492188-.046875-.140625-.140625-.210938-.28125-.210938-.117188.023438-.1875.117188-.234375.234376-.046875.117187-.046875.257812-.023438.398437.046875.234375.117188.46875.1875.703125.210938.632812.421875 1.289062.632813 1.921875.046875.140625.09375.234375.210937.328125.210938.140625.421875.070312.46875-.1875.09375-.28125.023438-.539062-.140625-.796875-.09375-.140625-.1875-.257813-.28125-.398437-.09375-.140626-.140625-.304688-.28125-.398438-.023437 0-.023437-.023438-.023437-.046875.070312-.070313.023437-.140625 0-.210937-.070313-.28125-.117188-.5625-.117188-.84375zm-2.484375 24.234374c.023438.070313.023438.117188.023438.164063.046875.46875.515625.65625.867187.375.09375-.070313.164063-.140625.234375-.234375.164063-.28125.28125-.5625.375-.867188.023438-.140624.046875-.257812 0-.398437-.023437-.070313-.046875-.164063-.09375-.210937-.257812-.210938-.398437-.28125-.703125-.09375-.070312.023437-.140625.09375-.1875.164062-.210937.210938-.328125.46875-.421875.773438-.046875.117187-.070312.257812-.09375.328124zm-2.789062 1.40625v.046876c0 .398437.328125.679687.726562.609374.117188-.023437.234375-.070312.351563-.140624.1875-.164063.351562-.351563.445312-.585938.070313-.210938.117188-.398438.046875-.632812-.023437-.046876-.046875-.140626-.09375-.164063-.09375-.09375-.257812-.117187-.351562-.234375-.023438-.023438-.070313-.023438-.117188-.023438-.117187 0-.234375.046876-.351562.09375-.164063.09375-.28125.210938-.398438.351563-.164062.1875-.257812.421875-.257812.679687zm-1.195313.890626c0-.070313 0-.117188 0-.164063-.046875-.140625-.09375-.234375-.234375-.257813-.046875 0-.117187-.023437-.140625-.070312-.070312-.117188-.1875-.09375-.28125-.070312-.117187.023437-.234375.046874-.328125.117187-.28125.210937-.46875.46875-.585937.820313-.023438.09375-.023438.210937-.023438.328124.023438.28125.257813.492188.5625.492188.117188 0 .234375-.046875.351563-.117188.304687-.1875.539062-.492187.65625-.867187.023437-.070313.023437-.140625.023437-.210937zm-7.429687-9.257813c.210937 0 .398437-.023437.585937-.140625.09375-.046875.1875-.140625.234375-.257812.117188-.234376.046875-.46875-.1875-.585938-.09375-.023438-.1875-.070312-.257812-.117188-.210938-.164062-.46875-.164062-.726563-.164062-.1875 0-.351562.070312-.492187.164062-.28125.164063-.328125.492188-.117188.726563.070313.09375.1875.164063.28125.210937.210938.09375.445313.164063.679688.164063zm10.101562 4.195313c0 .140624.023438.257812.070313.375.140625.28125.46875.421874.773437.328124.375-.140624.679688-.632812.632813-1.054687-.023438-.140625-.070313-.257813-.164063-.375-.046875-.070313-.351562-.234375-.421875-.257813-.140625-.023437-.28125 0-.398437.09375-.351563.1875-.46875.492188-.492188.890626zm-4.734375 3.117187c.117188-.023437.210938-.046875.304688-.070313.28125-.117187.492187-.304687.679687-.539062.117188-.117188.164063-.257812.1875-.398438 0-.117187 0-.210937-.070312-.304687-.117188-.09375-.28125-.09375-.375-.210937-.023438-.023438-.09375-.023438-.117188-.023438-.070312 0-.117187.023438-.164062.046875-.023438 0-.070313 0-.09375.023437-.328125.140626-.5625.351563-.726563.65625-.070312.117188-.117187.234376-.117187.351563 0 .164063.070312.304687.210937.375.09375.070313.1875.09375.28125.09375zm10.078125-2.203125c-.117187 0-.210937-.023438-.28125-.023438-.140625 0-.234375.023438-.351562.09375-.210938.140626-.210938.398438 0 .539063.117187.046875.234375.09375.351562.070313.140625-.046876.257813-.070313.375-.117188.304688-.140625.609375-.210938.9375-.210938.140625 0 .257813 0 .398438-.023437.117187 0 .234375-.070313.328125-.140625.140625-.1875.117187-.421875-.070313-.5625-.117187-.09375-.234375-.09375-.375-.046875s-.28125.117187-.421875.210937c-.28125.164063-.585937.257813-.890625.210938zm4.5-14.039062c.023438.070312.023438.09375.023438.117187 0 .164063.070312.257813.1875.304687.117187.023438.234375-.023437.328125-.140624.09375-.140626.140625-.28125.140625-.46875 0-.117188 0-.257813 0-.398438 0-.234375.046875-.46875.140625-.679688.046875-.117187.09375-.257812.140625-.398437.023437-.070313.046875-.164063.023437-.257813-.023437-.210937-.28125-.304687-.445312-.1875-.046875.046876-.09375.117188-.117188.1875-.09375.164063-.117187.351563-.117187.539063 0 .328125-.046875.632813-.164063.9375-.046875.070313-.070312.140625-.09375.234375 0 .070312-.023437.164062-.046875.210938zm-10.828125-4.40625c0-.164063-.046875-.351563-.117187-.515626-.070313-.140624-.164063-.257812-.304688-.328124-.257812-.164063-.585937-.023438-.632812.28125-.070313.328124.140625.820312.421875 1.007812h.023437c.1875.140625.585938.046875.609375-.328125 0-.023437 0-.070313 0-.117187zm12.867188 7.101562c0 .046875 0 .09375.023437.140625.046875.164063.234375.257813.398438.09375.09375-.117187.140625-.257813.117187-.398437 0-.09375-.023437-.164063-.046875-.234376-.046875-.140624-.09375-.257812-.117187-.375-.070313-.421874-.023438-.820312.210937-1.171874.046875-.070313.09375-.140626.117188-.234376.023437-.070312.046875-.140624.046875-.210937 0-.164063-.1875-.234375-.304688-.140625-.070312.023438-.117187.09375-.140625.164062-.046875.09375-.09375.210938-.117187.328126-.046875.234374-.046875.46875-.09375.703124-.070313.234376-.046875.492188-.046875.726563 0 .164063-.023438.328125-.023438.46875 0 .046875-.023437.09375-.023437.140625zm-24.234375 13.453125c.210937-.023437.375-.023437.515625-.09375s.234375-.140625.304687-.28125c.046875-.070313.070313-.140625.070313-.210937 0-.164063-.070313-.257813-.234375-.28125-.070313-.023438-.1875-.023438-.234375-.070313-.140625-.117187-.257813-.070313-.398438-.046875-.164062.046875-.328125.140625-.421875.28125-.164062.234375-.117187.492188.140625.609375.09375.046875.210938.070313.257813.09375zm15.140625 2.34375c-.023438-.1875 0-.398437-.234375-.492187-.023438-.023438-.046875-.046876-.070313-.070313-.070312-.117187-.1875-.117187-.304687-.09375-.046875.023437-.070313.023437-.117188.046875-.234375.117188-.375.398438-.351562.679688.023437.304687.257812.515624.539062.515624s.539063-.304687.539063-.585937zm-9.328125.515625c.304687-.046875.539062-.164062.703125-.445312.046875-.117188.070312-.234376.046875-.351563-.023438-.09375-.046875-.164063-.140625-.1875-.070313-.023437-.140625-.070313-.1875-.09375s-.070313-.046875-.117188-.046875c-.328125-.023438-.679687.234375-.75.5625-.070312.234375.046875.445312.257813.515625.070312.023437.140625.023437.1875.046875zm-5.742188-18.75c0-.1875-.117187-.351562-.257812-.445312-.140625-.117188-.28125-.1875-.421875-.234376-.164063-.070312-.28125-.023437-.398438.09375-.117187.09375-.09375.234376-.046875.351563.023438.046875.023438.09375.046875.117187.164063.1875.351563.328126.5625.421876.117188.023437.257813.023437.375-.046876.09375-.046874.140625-.140624.140625-.257812zm2.132813-4.898438c0-.023437 0-.046874-.023438-.070312-.09375-.351562-.328125-.585938-.65625-.703125-.234375-.070313-.398437.117187-.398437.375.023437.28125.398437.703125.703125.75.210937.023437.375-.117187.375-.351563zm17.0625 20.953126c-.023438-.117188-.070313-.257813-.210938-.351563-.023437 0-.046875-.023437-.070312-.046875-.164063-.117188-.351563-.09375-.492188.046875-.164062.1875-.1875.445313-.046875.65625.117188.164063.328125.257813.515625.210937.164063-.070312.28125-.257812.304688-.515624zm1.828125-4.101563c.023437-.28125-.1875-.515625-.445313-.515625-.257812.023438-.445312.234375-.46875.492188 0 .257812.257813.492187.492188.492187.28125-.023437.445312-.257813.421875-.46875zm-3.679688 5.648437c0-.140624-.023437-.257812-.117187-.328124-.09375-.09375-.1875-.140626-.304688-.1875-.046875-.023438-.117187 0-.1875.023437-.070312.023437-.140625.09375-.1875.1875-.117187.234375-.023437.539063.140625.703125.1875.140625.445313.09375.5625-.09375.070313-.09375.09375-.210938.09375-.304688zm8.25-7.148437c.140625 0 .28125-.046875.398438-.164063.164062-.164062.140625-.421874-.023438-.5625-.234375-.1875-.539062-.164062-.726562.046876-.164063.1875-.140625.398437.023437.539062.09375.09375.210938.140625.328125.140625zm-4.640625 3.140625c-.234375 0-.445312.210938-.421875.445312.023438.304688.210938.46875.445313.46875.257812-.023437.445312-.210937.421875-.46875 0-.234374-.210938-.445312-.445313-.445312zm.1875-10.59375c-.140625.046875-.210937.140625-.234375.257812-.023437.09375-.046875.210938-.046875.304688-.023437.1875-.09375.351562-.164062.515625-.046875.070313-.117188.164063-.164063.257813s-.070312.164062-.09375.257812c-.023437.09375 0 .164062.070313.210938.070312.046874.117187.046874.164062.023437.09375-.09375.164063-.1875.164063-.304687.023437-.210938.117187-.421876.164062-.632813.023438-.117187.09375-.1875.1875-.28125.117188-.09375.210938-.234375.1875-.421875-.09375-.070312-.140625-.117188-.234375-.1875zm-9.867187 17.695312c0-.023437-.023438-.046874-.023438-.070312-.023437-.1875-.210937-.140625-.28125-.257812-.023437-.023438-.09375-.023438-.140625-.023438-.234375.046875-.398437.28125-.375.515625 0 .210937.140625.351563.351563.351563.257812 0 .46875-.234376.46875-.515626zm3.210937-.234374c-.023437-.023438-.023437-.117188-.09375-.164063-.09375-.046875-.164062-.164063-.304687-.164063-.1875 0-.351563.210938-.351563.445313 0 .210937.164063.375.375.375.210938 0 .375-.210937.375-.492187zm-1.851562-1.242188c0-.09375-.023438-.164062-.140625-.210938-.023438-.023437-.070313-.046874-.117188-.070312-.046875-.070312-.117187-.046875-.1875-.023438-.117187.046876-.1875.117188-.234375.210938-.070312.140625-.046875.257812.046875.398438.046875.09375.140625.140624.28125.117187.1875-.023437.351563-.210937.351563-.421875zm2.554687-6.304688c0 .210938.164063.375.328125.398438.1875 0 .351563-.1875.351563-.375.023437-.1875-.140625-.375-.304688-.375-.1875-.023438-.375.164062-.375.351562zm1.710938 2.765626c.023437-.1875-.164063-.375-.351563-.375-.164062 0-.304687.164062-.328125.351562 0 .1875.164063.351562.351563.351562.164062 0 .328125-.164062.328125-.328124zm8.484375-11.742188c0 .1875.164062.304688.328125.28125.164062-.046875.304687-.164062.351562-.328125.070313-.1875-.070312-.328125-.210937-.375-.234375-.023437-.445313.1875-.46875.421875zm-4.125-9.960938c0 .023438 0 .070313.023437.117188.023438.140625.140625.234375.257813.1875.070312 0 .117187-.046875.164062-.09375s.070313-.09375.046875-.164062c-.023437-.046876 0-.070313.023438-.117188.09375-.117188.070312-.28125-.046875-.375-.09375-.070312-.1875-.070312-.304688 0-.117187.117188-.140625.28125-.164062.445312zm4.242187 12.046876c-.234375.023437-.445312.28125-.398437.492187.023437.046875.070312.117187.117187.140625.210938.117188.375.070312.515625-.140625.09375-.09375.070313-.234375 0-.351563-.046875-.09375-.140625-.117187-.234375-.140624zm-2.882812 9.28125c0-.070313-.023438-.140626-.09375-.1875-.046875-.023438-.070313-.046876-.117188-.070313-.117187-.09375-.28125-.046875-.351562.070313-.09375.117187-.070313.28125.046875.375.070312.070312.164062.117187.28125.09375.140625-.023438.234375-.140626.234375-.28125zm-5.859375 4.429687c-.023438-.117187-.046875-.164063-.1875-.257813-.117188-.070312-.210938-.070312-.28125.023438-.09375.070312-.117188.164062-.09375.28125.023437.140625.164062.257812.328125.234375.117187 0 .234375-.140625.234375-.28125zm9.84375-7.992187c.164062 0 .28125-.117188.257812-.28125 0-.117188-.117187-.234376-.257812-.234376s-.28125.140626-.28125.28125c0 .117188.117187.234376.28125.234376zm-6 4.640624c.140625.023438.234375-.09375.1875-.210937-.023438-.046875-.023438-.117187-.046875-.210937-.023438-.070313-.09375-.140626-.1875-.140626-.140625.023438-.257813.140626-.257813.304688.046875.164062.164063.257812.304688.257812zm6.398437-10.921874c.09375 0 .1875-.046876.234375-.140626.046875-.070312.070313-.140624.023438-.234374-.046875-.070313-.117188-.117188-.210938-.09375-.117187 0-.1875.070312-.234375.1875-.046875.140624.023438.28125.1875.28125zm-7.6875 12.679687c.140625 0 .234375-.09375.234375-.234375.023438-.117188-.117187-.234375-.257812-.234375-.117188 0-.210938.070313-.210938.1875-.023437.140625.09375.28125.234375.28125zm2.578125-1.3125s-.046875.023437-.070312.046875c-.09375.046875-.117188.164062-.09375.234375.046875.117187.164062.1875.257812.1875.09375-.023437.1875-.09375.210938-.1875 0-.046875 0-.070313-.023438-.117187-.023437-.070313-.1875-.164063-.28125-.164063zm-1.734375 2.765625c0-.023438-.023437-.070312-.046875-.09375-.046875-.046875-.117187-.070312-.164062-.117188-.023438 0-.046875 0-.070313 0-.117187.023438-.164062.140626-.164062.257813.023437.117187.140625.210937.257812.1875.117188 0 .1875-.09375.1875-.234375zm3.5625-5.039062c.09375 0 .164063-.046876.210938-.140626.023437-.046874.023437-.117187-.023438-.164062-.070312-.09375-.140625-.164062-.257812-.117188-.117188.023438-.1875.117188-.164063.234376 0 .09375.117188.1875.234375.1875zm-1.6875-9.398438c0-.117188-.070312-.210938-.1875-.210938-.117187 0-.210937.140626-.234375.257813 0 .09375.09375.1875.1875.210937.117188 0 .234375-.140624.234375-.257812zm-14.8125 15.09375c-.09375 0-.1875.09375-.210937.1875-.023438.070312 0 .164062.09375.210938.117187.070312.304687.023437.351562-.117188.023438-.046875.023438-.117188-.023437-.140625-.046875-.070313-.140625-.117187-.210938-.140625zm16.570313-7.476562c0-.09375-.117188-.210938-.234375-.210938-.09375 0-.164063.09375-.164063.210938 0 .117187.09375.210937.1875.210937.117188 0 .210938-.09375.210938-.210937zm-1.453125-.445313c.023437-.09375-.09375-.210937-.1875-.210937s-.210938.09375-.234375.1875c0 .09375.09375.210937.1875.210937.117187.023437.234375-.070313.234375-.1875zm-4.125 6.960937c.09375 0 .1875-.117187.1875-.210937s-.140625-.210937-.234375-.1875c-.09375 0-.1875.09375-.164063.1875 0 .117187.09375.210937.210938.210937zm-15.679688-27.164062c-.023437.046875-.09375.070312-.09375.117188 0 .140624.09375.257812.210938.351562.023437.023438.09375.023438.117187-.023438.023438 0 .046875-.070312.046875-.09375 0-.140624-.070312-.234374-.164062-.304687-.023438-.023437-.070313-.023437-.117188-.046875zm22.734375 21.65625c0-.09375-.09375-.1875-.210937-.1875-.09375 0-.1875.09375-.1875.210938 0 .09375.117187.1875.210937.164062.117188 0 .1875-.09375.1875-.1875zm-26.414062-8.109375v.046875c.023437.140625.1875.257812.328125.234375.046875-.023437.09375-.070313.09375-.140625 0-.023438 0-.046875-.023438-.070312-.046875-.09375-.234375-.164063-.328125-.140626-.046875 0-.070312.046876-.070312.070313zm26.507812 7.007813c.09375 0 .210938-.09375.210938-.1875s-.117188-.1875-.210938-.1875-.1875.09375-.1875.1875.09375.164062.1875.1875zm-19.992187 7.570312c-.09375 0-.164063.09375-.1875.164062 0 .070313.070312.164063.140625.164063.046875.023437.09375.023437.117187 0 .09375-.023437.140625-.09375.140625-.164063-.023437-.09375-.09375-.117187-.140625-.140624-.023437 0-.046875-.023438-.070312-.023438zm17.882812-2.015625c.070313 0 .117188-.046875.140625-.09375.023438-.046875.023438-.09375-.023437-.140625s-.070313-.070312-.117188-.09375c-.070312-.023438-.117187 0-.164062.046875s-.070313.117187-.023438.164063c.046875.070312.117188.09375.1875.117187zm.65625-20.859375c-.023437.09375.023438.140625.070313.140625.164062 0 .257812-.164063.210937-.304687-.046875-.09375-.140625-.117188-.1875-.046876-.070312.070313-.09375.140626-.09375.210938zm-3.09375 20.625c-.023437 0-.046875.023438-.070312.070312-.046875.070313-.046875.140626 0 .210938.070312.070312.164062.09375.234375.046875.046875-.046875.070312-.117187.070312-.164063-.023437-.09375-.140625-.1875-.234375-.164062zm6.375-9.28125c.09375 0 .164063-.070312.1875-.164062 0-.070313-.09375-.164063-.164062-.164063-.117188.023437-.1875.09375-.1875.1875s.070312.140625.164062.140625zm-2.414062 6.75c.070312 0 .140625-.046875.164062-.117188.023438-.046874 0-.09375-.070312-.164062-.023438 0-.023438-.023438-.046875-.023438-.046875-.023437-.09375-.023437-.140625.023438-.070313.046875-.070313.09375-.046875.164062.023437.070313.09375.117188.140625.117188zm-2.015625-1.898438c-.023438-.070312-.117188-.164062-.1875-.140624-.070313 0-.140625.070312-.140625.164062.023437.070312.09375.140625.1875.140625.070312-.023437.140625-.09375.140625-.164063zm3.75-11.484374c-.140625 0-.234375.140624-.210938.28125.023438.046874.070313.070312.140625.046874.09375-.023437.164063-.117187.164063-.234374 0-.046876-.046875-.117188-.09375-.09375zm-1.59375 14.53125c-.117188 0-.164063.09375-.140625.1875.070312.117187.210937.140624.28125.046874.023437-.023437.023437-.070312.023437-.117187-.023437-.070313-.09375-.117187-.164062-.117187zm-11.859375 5.4375c0-.046876-.046875-.09375-.140625-.117188-.070313-.023438-.117188-.023438-.140625.023438-.046875.046874-.046875.117187 0 .1875.023437.046874.09375.070312.164062.046874.070313-.023437.117188-.070312.117188-.140624zm8.039062-23.742188c0-.023438 0-.046875-.023437-.070312-.023438-.046876-.09375-.070313-.140625-.070313-.070313.046875-.117188.164063-.09375.257813.023437.070312.070312.117187.140625.09375.070312 0 .117187-.09375.117187-.210938zm6.375 8.367188c0-.023438 0-.046876 0-.070313-.023437-.070313-.117187-.09375-.1875-.070313-.070312.046876-.140625.140626-.09375.1875v.023438c.046875.046875.117188.070312.1875.046875.070313-.023437.09375-.070313.09375-.117187zm-3.09375 4.945312c.070313 0 .117188-.046875.140625-.117188 0-.070312-.09375-.164062-.164062-.164062-.070313 0-.140625.070312-.164063.140625 0 .09375.070313.140625.1875.140625zm-2.34375-15.890625c.023438 0 .046875 0 .070313-.023437.070312-.023438.09375-.09375.09375-.164063 0-.046875-.023438-.09375-.046875-.117187-.046875-.046876-.09375-.023438-.140625.023437-.070313.046875-.09375.164063-.023438.257813 0 0 .023438 0 .046875.023437zm4.359375 12.117187c0-.046874-.070312-.117187-.117187-.09375-.09375 0-.164063.070313-.164063.164063 0 .046875.070313.09375.117188.09375.070312 0 .164062-.070313.164062-.164063zm-10.710937 13.992188c0-.070312-.09375-.164062-.164063-.140625-.070312 0-.09375.070313-.09375.117187 0 .09375.070313.140626.140625.140626.070313 0 .117188-.046876.117188-.117188zm1.5-.609375c-.023438-.023437-.046875-.070313-.09375-.117187-.023438-.023438-.070313-.046876-.117188 0-.046875.023437-.070312.070312-.070312.117187 0 .070313.070312.140625.164062.140625.046875 0 .117188-.070312.117188-.140625zm5.648437-26.742187c-.046875-.023438-.09375.023437-.117187.09375-.023438.070312-.023438.140624.023437.164062.023438.023438.046875.046875.09375.023438.09375-.023438.140625-.210938.070313-.28125-.023438 0-.046875 0-.070313 0zm-4.195312 26.367187c.046875 0 .117187-.070313.09375-.140625 0-.070312-.070313-.140625-.140625-.140625-.070313 0-.117188.046875-.117188.09375 0 .09375.09375.1875.164063.1875zm4.617187-9.140625c0-.070312-.070312-.140625-.140625-.117188-.070312 0-.117187.070313-.117187.140626 0 .046874.070312.117187.140625.09375.070312 0 .117187-.070313.117187-.117188zm-14.414062 8.976562c-.046875 0-.117188.070313-.117188.140626 0 .046874.070313.09375.117188.117187.09375 0 .164062-.070313.140625-.140625 0-.070312-.070313-.117188-.140625-.117188zm18.515625-17.320312c-.09375-.023438-.1875.070312-.164063.164062 0 .023438.023438.070313.046875.070313.046875 0 .09375 0 .140625-.023437.046875-.046876.070313-.117188.023438-.164063 0-.023437-.023438-.046875-.046875-.046875zm-2.484375-4.96875s-.023438-.046875-.046875-.046875c-.023438-.023437-.070313-.023437-.09375 0-.09375.046875-.117188.164063-.070313.210937 0 .023438.046875.046876.070313.046876.09375 0 .140625-.070313.140625-.210938zm-1.335938 17.8125c0-.070312-.070312-.140625-.140625-.140625-.070312 0-.117187.070313-.117187.117187.023437.070313.070312.117188.164062.117188.046875 0 .09375-.046875.09375-.09375zm-.632812-19.828125c-.023438-.046875-.046875-.09375-.09375-.09375-.046875-.023437-.070313 0-.09375.046875-.023438.046875-.023438.09375-.023438.164062 0 .023438.023438.046876.046875.046876.023438.023437.070313 0 .09375-.023438.023438-.023438.046875-.09375.070313-.140625zm3.375 4.40625c.023437.023437.046875.070313.070312.09375.023438.023437.117188 0 .140625-.046875 0-.023438 0-.023438.023438-.046875.023437-.046875 0-.117187-.046875-.140625s-.117188-.023438-.140625.023438c-.023438.023437-.023438.070312-.046875.117187zm-6.632813-8.34375c.09375-.140625.09375-.1875.046875-.257813-.023437-.023437-.046875-.023437-.070312-.023437-.070313.046875-.070313.140625 0 .257813 0 0 0 0 .023437.023437zm6.210938 7.101563c.046875-.023438.09375-.046876.117187-.070313.046875-.046875.046875-.117187 0-.164063-.046875-.046874-.117187-.023437-.140625.046876-.023437.023437-.046875.070312-.046875.09375.023438.046874.046875.070312.070313.09375zm5.390625 15.679687c0-.070313-.046875-.140625-.117188-.117187-.046875 0-.09375.046874-.09375.09375 0 .046874.070313.117187.117188.09375.046875 0 .070312-.046876.09375-.070313zm-6.140625-18.257813s-.023438-.023437-.046875-.046874c0 0-.023438 0-.023438.023437-.070312.046875-.09375.09375-.070312.164063 0 .023437.023437.023437.046875.023437.070312 0 .09375-.070313.09375-.164063zm-6.773438-4.59375c.117188-.046874.140625-.117187.117188-.1875 0-.046874-.023438-.09375-.070313-.070312-.023437.070312-.023437.140625-.046875.257812zm-2.8125-2.882812c0-.023438 0-.023438 0-.046875-.023437-.046875-.023437-.09375-.070312-.070313-.046875 0-.070313.046876-.070313.09375 0 .023438.023438.070313.046875.117188h.023438c.023437 0 .046875 0 .046875-.023438.023437-.023437.023437-.046874.023437-.070312zm2.554688 1.757812c.023437-.09375.023437-.117187.023437-.164062 0-.070312-.023437-.09375-.046875-.09375-.046875.023438-.070312.070312-.046875.117188 0 .023437.023438.046874.070313.140624zm9.46875 26.390626c-.023438.023437-.070313.023437-.070313.046874v.070313c.023438.023437.046875.046875.09375.046875 0 0 .046875-.023438.046875-.023438.023438-.046874 0-.070312 0-.09375-.023437-.023437-.046875-.023437-.070312-.046874zm-13.664063-27.28125c.117188-.070313.117188-.164063.070313-.257813-.023438-.023437-.070313-.046875-.117188.023437.023438.023438.046875.046876.070313.09375 0 .046876 0 .09375-.023438.140626zm16.570313 24.046874c0-.046874 0-.070312-.023438-.09375-.046875-.023437-.09375-.023437-.117187.023438-.023438.023438 0 .070312 0 .070312zm-33.023438-14.554687c.023438-.023437.046875-.046875.046875-.046875 0-.046875-.046875-.117188-.117187-.09375 0 0-.023438.023438-.046875.046875 0 .046875.046875.09375.117187.09375zm26.742188-4.054687c-.023438-.046876-.046875-.070313-.070313-.09375-.046875 0-.070312.023437-.070312.070312 0 .023438.023437.046875.023437.09375.023438-.023438.070313-.046875.117188-.070312zm-2.015625 23.554687c-.023438-.023437-.070313-.046875-.09375-.070313 0-.023437-.046875.023438-.046875.046876-.023438.046874.023437.09375.070312.070312.023438 0 .046875-.023438.070313-.046875zm-4.40625-29.226563s0-.023437-.023438-.046874h-.023437c-.023438.023437-.046875.046874-.046875.046874 0 .023438.023437.046876.023437.070313.023438 0 .046875 0 .046875-.023437 0 0 .023438-.023438.023438-.046876zm6.75 4.828126c-.023438.023437-.046875.046874-.070313.046874-.023437 0-.046875-.023437-.046875-.046874.023438-.023438.023438-.046876.046875-.046876.023438 0 .046875.023438.070313.046876z" fill="#262626" transform="translate(-397 -168)"/></svg>