<svg height="33" viewBox="0 0 35 33" width="35" xmlns="http://www.w3.org/2000/svg"><path d="m359.71875 134.9375c-.023438.070312-.046875.117188-.046875.140625 0 .515625-.070313 1.03125-.164063 1.546875-.023437.117188 0 .234375.09375.328125.140626.1875.210938.398437.304688.632813.140625.46875.328125.9375.492188 1.40625.046874.117187.09375.210937.164062.304687s.140625.1875.234375.257813c.164063.117187.375.117187.445313.023437.117187-.117187.09375-.257813.046874-.398437-.09375-.1875-.1875-.398438-.304687-.609376-.28125-.515624-.539063-1.03125-.726563-1.570312-.09375-.375-.140624-.75-.117187-1.148438.023437-.28125.117187-.5625.304687-.773437s.375-.234375.609376-.117187c.070312.023437.140624.046874.234374.09375.070313 0 .140626.023437.210938.070312.351562.1875.65625.445312.890625.796875.070313.09375.140625.1875.234375.28125.351562.421875.609375.890625.84375 1.40625.117188.304687.257812.609375.398438.914063.164062.351562.351562.726562.492187 1.101562.117187.210938.1875.445312.28125.679688.070313.117187.117187.234374.1875.351562.1875.234375.398437.375.679687.398438.164063.023437.28125-.070313.28125-.234376.023438-.210937-.023437-.421874-.117187-.585937-.140625-.234375-.28125-.46875-.445313-.703125-.257812-.421875-.492187-.867188-.679687-1.335938-.257813-.585937-.585937-1.125-.914063-1.664062-.398437-.609375-.867187-1.171875-1.476562-1.59375-.164062-.09375-.257812-.257812-.28125-.421875-.023438-.070313 0-.164063.023438-.234375.046874-.117188.1875-.164062.328124-.117188.140626.046876.28125.117188.421876.117188.585937.070312 1.054687.328125 1.476562.726562.117188.140626.257812.257813.375.375.210938.164063.421875.351563.632812.515626.09375.09375.1875.1875.304688.257812.1875.140625.375.140625.609375.070312.117187-.023437.1875-.117187.164063-.234374 0-.1875-.070313-.351563-.234376-.445313-.234374-.164063-.445312-.351563-.679687-.492187-.328125-.234376-.65625-.46875-1.007813-.679688-.09375-.09375-.210937-.140625-.328124-.210938-.351563-.164062-.726563-.28125-1.101563-.351562-.257813-.046875-.539063-.070312-.796875-.140625s-.398438-.328125-.328125-.585937c.023437-.234376.234375-.375.515625-.328126.164062 0 .328125.046876.46875.070313.164062 0 .304688.070313.445312.1875.09375.070313.1875.164063.304688.234375.117188.09375.210938.09375.304688-.023438.09375-.070312.1875-.117187.257812-.164062.070312-.023438.117188-.070312.1875-.117188-.023438-.070312-.046875-.117187-.070312-.164062-.164063-.1875-.351563-.28125-.585938-.328125-.328125-.070313-.703125-.140625-1.03125-.257813-.398438-.09375-.726562-.257812-1.007812-.5625-.257813-.28125-.445313-.609374-.445313-1.007812 0-.210938-.070313-.375-.234375-.492188-.117188-.09375-.210938-.210937-.28125-.328124-.070312-.046876-.09375-.140626-.117188-.210938-.023437-.164062.117188-.304688.28125-.257812.117188.070312.234376.140624.351563.210937.09375.046875.210937.117187.328125.117187.351562.046876.492188.375.75.585938.023438.023438.023438.09375.046875.140625v.234375c.023437.1875.117187.304688.257813.398438.1875.117187.351562.257812.585937.421874.210937.023438.46875.117188.726563-.023437.070312-.023437.1875 0 .234374.023437.28125.1875.609376.328126.820313.609376.117187.140624.234375.28125.398437.375.585938.375 1.171876.773437 1.828126 1.054687.210937.09375.421874.1875.632812.28125.539062.257813 1.054688.515625 1.570312.890625.140626.09375.304688.1875.46875.257812.234376.09375.492188.09375.703126-.023437.1875-.09375.234374-.257813.09375-.421875-.046876-.070312-.09375-.117188-.140626-.140625-.1875-.164063-.398437-.257813-.632812-.351563-1.289062-.515624-2.53125-1.148437-3.75-1.78125-.070312-.023437-.140625-.070312-.210938-.117187-.140624-.09375-.257812-.234375-.328124-.421875-.117188-.257812 0-.539062.28125-.585938.164062-.046874.328124-.046874.515624-.023437.117188.023437.257813.046875.375.070313.445313.046874.867188.164062 1.289063.304687.140625.070313.28125.117187.421875.117187.28125.023438.515625-.023437.703125-.28125-.117187-.304687-.210937-.421874-.46875-.492187-.1875-.070313-.375-.070313-.5625-.09375-.375-.046875-.773437-.046875-1.148437-.117187-.515626-.09375-.984376 0-1.453126.210937-.5625.28125-1.101562.164063-1.617187-.140625-.234375-.140625-.46875-.328125-.679687-.46875-.210938-.164062-.398438-.351562-.515626-.585938-.046874-.140624-.117187-.304687-.1875-.445312-.1875-.398438-.070312-.796875.328126-1.007812.070312-.046876.1875-.046876.257812-.09375.070312-.046876.164062-.093751.210938-.187501.140624-.234375.398437-.328125.632812-.46875.070312-.046875.1875-.070312.257812-.046875.375.09375.726563-.023437 1.101563-.09375.585937-.140625 1.171875-.304687 1.734375-.46875.46875-.117187.914062-.164062 1.382812-.09375.351563.046875.726563.046875 1.078126.046875.328124 0 .585937-.140625.820312-.398437.023438-.046875.070312-.117188.09375-.1875-.164062-.210938-.351562-.28125-.585938-.28125-.164062 0-.351562 0-.539062 0-.585938.046875-1.125.117187-1.710938.140625-.234374.023437-.445312.09375-.65625.1875-.257812.117187-.515624.257812-.820312.328125-.609375.140625-1.21875.257812-1.828125.398437-.164063.023438-.328125 0-.46875-.09375-.257813-.140625-.257813-.421875-.046875-.585937.210938-.140625.421875-.210938.65625-.164063.1875.023438.375.046875.539062-.046875.210938-.09375.421876-.164062.609376-.28125.609374-.328125 1.242187-.65625 1.851562-.984375.234375-.117187.445312-.28125.609375-.492187.046875-.070313.070313-.140625.09375-.210938-.210937-.210937-.46875-.210937-.703125-.140625-.164062.070313-.351562.1875-.515625.304688-.164063.117187-.328125.257812-.492187.398437-.5625.421875-1.148438.632813-1.828126.609375-.09375 0-.1875 0-.28125 0-.210937.28125-.46875.445313-.75.585938-.09375.046875-.1875.117187-.257812.210937-.09375.117188-.1875.28125-.257812.445313-.070313.210937-.234376.328125-.445313.375-.164063.023437-.328125.023437-.492187-.023438-.1875-.070312-.328126-.046875-.492188.046875-.257812.140625-.46875.304688-.726562.375-.046876 0-.070313.046875-.117188.09375-.257812.1875-.492188.398438-.75.609375-.28125.210938-.5625.257813-.890625.093751-.257813-.140626-.539063-.281251-.84375-.375001-.28125-.09375-.515625-.257812-.65625-.539062-.023437-.046875-.070313-.09375-.117187-.1875-.070313 0-.164063 0-.234376-.023438-.117187-.046875-.234374-.117187-.304687-.1875-.234375-.257812-.117187-.632812.210937-.726562h.046876c.140624 0 .210937-.117188.304687-.234375.09375-.09375.1875-.1875.304687-.257813.1875-.117187.65625.046875.75.257813.023438.046875.046876.09375.046876.164062.023437.023438 0 .09375.023437.140625.023437.257813.1875.46875.421875.539063.46875.140625.9375.09375 1.359375-.070313.023437-.023437.046875-.046875.046875-.070312.070312-.28125.257812-.351563.46875-.328125h.09375c.210938 0 .421875-.023438.632812-.070313.257813-.046875.445313-.210937.632813-.398437.257813-.304688.539063-.5625.984375-.445313.140625.046875.257812-.046875.304688-.1875.023437-.070312.070312-.140625.046874-.210937-.023437-.210938.09375-.375.234376-.515625.1875-.1875.375-.398438.539062-.585938.234375-.234375.445312-.46875.585938-.773437.164062-.328125.421874-.609375.703124-.820313.210938-.164062.421876-.28125.632813-.421875.257813-.164062.492187-.304687.75-.46875.257813-.1875.492187-.445312.585937-.773437.070313-.210938 0-.28125-.234374-.257813-.164063 0-.328126.09375-.46875.1875-.140626.117188-.257813.234375-.375.351563-.304688.210937-.5625.421875-.84375.632812-.164063.117188-.328126.234375-.445313.398438-.257813.28125-.539063.5625-.796875.867187-.09375.09375-.164062.164063-.304688.164063-.140624 0-.164062.070312-.140624.210937.023437.070313.023437.117188.023437.164063-.140625.28125-.375.445312-.679687.492187 0 .046875-.046876.09375-.023438.117188.046875.1875-.023438.328125-.140625.445312-.070313.070313-.140625.140625-.210937.1875-.164063.117188-.304688.210938-.46875.328125-.375.28125-.773438.46875-1.195313.65625-.257813.070313-.492187.070313-.75-.046875-.09375-.046875-.164063-.117187-.210937-.210937-.046876-.117188-.070313-.257813 0-.328125.1875-.070313.351562-.117188.515624-.1875.28125-.09375.539063-.234375.796876-.328125.234374-.070313.351562-.1875.351562-.445313 0-.1875.117188-.375.28125-.46875.328125-.140625.5625-.328125.75-.632812.398438-.351563.726562-.796875.984375-1.265625.023437-.070313.09375-.140625.140625-.1875.210938-.328125.445312-.609375.65625-.9375.164062-.234375.351562-.46875.585938-.65625.304687-.257813.515624-.585938.703124-.9375.117188-.140625.164063-.328125.164063-.539063 0-.1875-.117187-.257812-.304687-.1875-.070313.046875-.140626.070313-.210938.117188-.117188.140625-.257812.28125-.375.445312-.140625.210938-.28125.445313-.445312.65625-.585938.75-1.054688 1.59375-1.59375 2.414063-.1875.257812-.398438.539062-.65625.726562-.28125.210938-.5625.421875-.84375.609375-.210938.164063-.421876.304688-.632813.445313-.28125.1875-.65625.140625-.890625-.09375-.234375-.257813-.351562-.515625-.164062-.890625.046874-.070313.117187-.117188.117187-.164063.28125-.09375.492187-.070312.679687.070313.070313.046875.1875.046875.234376.023437.234374-.117187.515624-.140625.65625-.445312.046874-.09375.1875-.164063.304687-.210938.1875-.117187.328125-.210937.234375-.445312-.023438-.070313.070312-.164063-.070312-.257813-.140626.046875-.328126.070313-.515626.117188-.164062.023437-.328124 0-.515624-.046875-.328126-.09375-.46875-.351563-.351563-.679688.046875-.210937.140625-.398437.304687-.5625.234376-.234375.492188-.398437.796876-.539062.398437-.1875.5625-.5625.5625-.984375 0-.070313-.070313-.164063-.09375-.210938-.210938 0-.328126.140625-.445313.234375-.28125.257813-.5625.515625-.820313.796875-.164062.164063-.304687.375-.445312.5625-.140625.210938-.28125.445313-.351562.65625-.046876.234375 0 .492188 0 .726563 0 .1875-.023438.375-.140626.515625-.1875.1875-.351562.398437-.609374.5625-.164063.070312-.304688.09375-.46875.046875-.210938-.070313-.445313-.164063-.65625-.28125-.046876 0-.070313-.070313-.09375-.117188-.09375-.140625-.09375-.328125.023437-.445312.117187-.140625.1875-.257813.234375-.421875.070312-.28125.234375-.46875.46875-.65625.28125-.1875.492188-.445313.585938-.796875.046874-.1875.164062-.375.304687-.492188.28125-.28125.515625-.585937.703125-.890625.398438-.5625.75-1.125 1.171875-1.664062.070313-.09375.140625-.1875.210937-.28125.070313-.1875.140626-.351563.210938-.539063.023438-.164062.023438-.328125.023438-.492187-.023438-.117188-.140626-.1875-.234376-.117188-.09375.046875-.1875.117188-.257812.210938-.117188.140625-.1875.304687-.304688.46875-.304687.492187-.609374 1.007812-.914062 1.523437-.304688.46875-.632812.9375-.9375 1.429688-.210938.351562-.445312.65625-.796875.914062-.257813.164063-.445313.445313-.5625.75-.046875.164063-.117187.28125-.1875.421875-.140625.257813-.257813.515625-.1875.867188.117187.398437-.234375.679687-.632813.515625-.09375-.046875-.1875-.09375-.28125-.140625-.140624-.046875-.164062-.164063-.210937-.257813-.046875-.210937 0-.398437.09375-.5625.257813-.492187.515625-1.007812.773437-1.523437.09375-.164063.1875-.304688.375-.351563.09375-.023437.1875-.046875.304688-.09375.234375-.117187.351562-.304687.351562-.585937 0-.210938.023438-.398438 0-.609375 0-.1875 0-.375-.023437-.5625-.09375-.65625-.375-1.21875-.632813-1.804688-.304687-.65625-.796874-1.125-1.382812-1.476562-.5625-.304688-1.148438-.398438-1.757812-.28125-.351563.046875-.703126.1875-1.03125.304687-.609376.28125-1.265626.492188-1.921876.65625-.609374.117188-1.195312.257813-1.804687.375-.960937.1875-1.875.46875-2.765625.867188-.28125.140625-.5625.28125-.820312.445312-.539063.328125-1.03125.75-1.429688 1.289063-.328125.445312-.703125.84375-1.171875 1.171875-.070313.070312-.1875.140625-.257813.234375-.1875.234375-.210937.539062-.023437.773437.09375.164063.257813.304688.398437.421875.070313.070313.1875.09375.28125.070313.1875-.023438.328126-.164063.492188-.28125.09375-.09375.117188-.210938.140625-.304688.070313-.398437.234375-.726562.46875-1.03125.234375-.257812.445313-.515625.679687-.75.492188-.492187 1.054688-.867187 1.664063-1.125.398437-.164062.796875-.328125 1.21875-.46875.328125-.140625.679687-.210937 1.03125-.257812.515625-.09375 1.03125-.1875 1.523437-.351563.445313-.140625.914063-.257812 1.382813-.398437.140625-.023438.28125-.070313.421875-.09375.257812-.046875.46875-.140625.703125-.28125.84375-.46875 1.6875-.515625 2.53125.023437.234375.164063.445313.328125.65625.515625.234375.164063.375.398438.445313.65625.09375.351563.234374.65625.398437.984375.023437.09375.070313.1875.09375.257813.09375.304687.023437.5625-.164063.820312-.070312.070313-.140624.140625-.234374.210938-.375.28125-.632813.65625-.820313 1.078125-.164063.351562-.328125.726562-.515625 1.078125-.1875.375-.1875.726562 0 1.125.046875.070312.09375.164062.117188.257812.09375.328125-.046876.5625-.375.632813-.046876 0-.070313 0-.117188 0-.210938.023437-.398438.023437-.609375.023437-.1875.023438-.351563-.070312-.515625-.164062-.117188-.070313-.140625-.1875-.140625-.328125 0-.117188.070313-.140625.140625-.1875.1875-.140625.328125-.304688.28125-.585938-.070312-.375-.046875-.773437.375-.984375.09375-.070312.210938-.164062.1875-.328125-.351562-.304687-.539062-.65625-.65625-1.101562-.046875-.1875-.117188-.351563-.1875-.539063-.023438-.046875-.070312-.09375-.140625-.140625-.070313.09375-.117187.140625-.140625.210938-.09375.140625-.117188.28125-.1875.421875-.070312.164062-.140625.328125-.234375.492187-.164063.257813-.421875.328125-.726563.257813-.210937-.09375-.375-.1875-.515624-.351563-.140626-.140625-.28125-.28125-.398438-.398437-.070312-.046875-.140625-.046875-.234375-.070313-.09375.234375-.046875.445313-.023437.65625.023437.257813.140624.445313.375.585938.398437.257812.726562.585937.914062 1.054687.09375.234375.210938.46875.351562.679688.117188.09375.1875.210937.164063.375-.023437.1875-.117187.304687-.28125.351562-.09375.046875-.164063.09375-.257813.140625-.09375.070313-.117187.140625-.117187.28125 0 .28125.140625.539063.140625.820313 0 .046875.046875.117187.09375.140625.328125.375.609375.773437 1.007812 1.101562.046876.070313.09375.140625.140626.234375.070312.140625.140624.28125.210937.398438.070313.164062.046875.351562-.09375.46875-.304687.210937-.890625.164062-1.03125-.164063-.117187-.210937-.28125-.328125-.492187-.398437-.1875-.046875-.328126-.164063-.398438-.351563-.09375-.257812-.257812-.46875-.398438-.703125-.070312-.164062-.140624-.328125-.210937-.492187-.164063-.421875-.328125-.820313-.632813-1.148438-.117187-.140625-.210937-.304687-.234374-.46875-.09375-.65625-.28125-1.289062-.1875-1.945312 0-.140625-.023438-.304688-.046876-.445313-.070312-.210937-.117187-.398437-.28125-.539062-.117187 0-.1875.070312-.210937.1875-.023437.09375-.046875.210937-.046875.304687 0 .773438.023438 1.546875.304688 2.273438.046874.164062.117187.328125.117187.492187.070313.328125-.210937.585938-.515625.515625-.140625 0-.234375-.046875-.351562-.09375-.304688-.09375-.46875-.304687-.445313-.65625 0-.492187-.023437-.984375 0-1.5 0-.328125-.046875-.65625-.1875-.9375-.023437-.09375-.09375-.1875-.164063-.234375-.117187-.09375-.257812-.070312-.304687.09375-.070313.210938-.070313.421875 0 .65625.1875.609375.1875 1.265625.28125 1.921875.046875.375-.023437.703125-.304687.960938 0 .023437 0 .046875-.046876.117187.046876.117188.117188.257813.234376.398438.117187.09375.210937.234375.28125.375.09375.140625.09375.304687 0 .46875-.09375.140625-.234376.28125-.398438.28125-.375.046875-.726562.046875-1.007812-.257813-.070313-.070312-.140626-.164062-.234376-.210937-.234374-.140625-.351562-.070313-.375.1875v.070312c-.070312.421875-.28125.703125-.679687.773438-.773437.09375-1.523437-.023438-2.132813-.5625-.515624-.421875-1.101562-.679688-1.734374-.773438-.492188-.070312-.984376-.09375-1.476563-.117187-.445313-.023438-.890625-.046875-1.335937-.164063-.1875-.023437-.351563-.046875-.515626-.070312-.164062 0-.351562.023437-.515624.070312-.1875.046875-.234376.234375-.117188.398438.046875.070312.140625.140625.234375.210937.351563.304688.773437.421875 1.21875.421875.914063.023438 1.828125.023438 2.742187.046875.28125 0 .539063.070313.773438.210938.398438.1875.726562.46875 1.078125.726562.375.28125.75.46875 1.21875.398438.046875 0 .117187.023437.164063.023437.515624.117188.984374-.023437 1.453124-.210937.210938-.09375.46875-.140625.65625-.234375.046876-.023438.09375-.023438.140626-.023438.328124.046875.703124.023438 1.054687.117188.070313.023437.1875.070312.257813.117187.304687.234375.65625.164063.984374.070313.375-.070313.726563-.210938 1.101563-.351563.257813-.09375.445313-.046875.632813.140625.09375.117188.210937.1875.375.164063.164062 0 .28125.046875.421874.117187.140626.09375.164063.257813.070313.398438-.046875.023437-.070313.046875-.09375.070312-.140625.140625-.28125.257813-.421875.375.070312.210938.070312.28125-.070312.351563-.140626.117187-.304688.140625-.46875.070312-.1875-.070312-.375-.164062-.515626-.328125-.117187-.140625-.210937-.164062-.375-.09375-.375.1875-.75.1875-1.125.070313-.304687-.09375-.585937-.117188-.890624-.117188-.726563-.023437-1.453126 0-2.179688.070313-.257812.046875-.515625.140625-.726562.257812-.234376.140625-.492188.28125-.703126.421876-.234374.164062-.46875.304687-.703124.46875-.773438.679687-1.6875.914062-2.671876.820312-.492187-.070312-.960937-.023438-1.429687.09375-.5625.117188-1.125.210938-1.664063.328125-.164062.023437-.328124.070313-.492187.140625-.09375.046875-.210937.117188-.28125.1875-.1875.140625-.1875.328125 0 .445312.328125.210938.679687.328126 1.054687.234376.257813-.070313.492188-.140626.726563-.234376.867187-.328124 1.757813-.515624 2.648437-.445312.585938.023438 1.125-.070312 1.640626-.28125.1875-.070312.398437-.164062.5625-.28125.5625-.46875 1.195312-.820312 1.78125-1.242188.234374-.1875.515624-.257812.796874-.234374.140626 0 .257813 0 .398438.023437.304688 0 .609375-.023437.914062 0 .257813.023437.492188.023437.75 0 .140626-.046875.28125-.046875.421876 0 .304687.070313.398437.28125.257812.5625-.046875.09375-.117188.210937-.210938.28125-.1875.140625-.398437.210937-.632812.210937-.304688 0-.609375-.023437-.914062-.140624-.140626-.046876-.304688-.117188-.46875-.164063-.210938-.070313-.445313-.09375-.65625.046875 0 .070312.023437.117188.046874.164062.117188.210938.28125.351563.539063.328126.117187 0 .210937.023437.304687.046874.28125.09375.398438.351563.234376.609376-.070313.117187-.164063.210937-.257813.28125-.1875.140624-.398437.257812-.585937.375-.210938.140624-.398438.28125-.539063.46875-.375.46875-.84375.796874-1.382813 1.03125-.328124.164062-.65625.351562-.960937.539062s-.539063.421875-.726563.703125c-.328124.515625-.632812 1.054687-.890624 1.59375-.210938.46875-.257813.960937-.117188 1.429687.09375.328126.1875.632813.304688.9375.140624.351563.234374.726563.1875 1.125 0 .140626-.023438.328126-.023438.46875 0 .164063.023438.304688.046875.445313s.09375.210937.234375.257813c.257812.023437.796875-.234376.84375-.609376.046875-.304687-.023438-.609374-.140625-.890624-.117187-.328126-.257813-.65625-.375-1.03125-.117187-.304688-.1875-.65625-.210937-.984376-.046876-.445312.09375-.820312.398437-1.148437.164063-.1875.304687-.398437.328125-.632813.046875-.328124.1875-.5625.398438-.773437.304687-.234375.539062-.515625.890624-.679687.445313-.210938.890626-.421876 1.335938-.65625.117188-.070313.257812-.164063.328125-.28125.328125-.375.726563-.65625 1.148437-.796876.140626-.164062.234376-.304687.351563-.445312.09375-.140625.234375-.304688.328125-.445312.1875-.257813.398438-.445313.703125-.5625.46875-.164063.84375-.46875.84375-1.054688 0-.117188.046875-.234375.117187-.351562.070313-.1875.257813-.257813.445313-.234376.28125.023438.492187.257813.515625.585938.023438.1875.023438.375.046875.5625 0 .210938-.046875.421875-.1875.585938-.117187.117187-.234375.234374-.398437.328124-.1875.117188-.398438.210938-.609376.28125-.515624.164063-.914062.492188-1.195312.960938-.28125.445312-.5625.867188-.820312 1.289062-.234376.351563-.46875.703126-.796876.984376-.070312.09375-.164062.210937-.234374.328124-.046876.070313-.023438.164063.070312.1875.1875.070313.375.140626.585938.1875.09375-.09375.1875-.1875.28125-.304687.539062-.65625 1.03125-1.359375 1.453124-2.085937.164063-.304688.351563-.585938.585938-.84375.140625-.1875.351562-.28125.585938-.210938.210937.070312.28125.1875.28125.398438 0 .257812-.09375.445312-.257813.609374-.164063.164063-.328125.304688-.46875.445313-.117187.140625-.234375.28125-.304687.445313-.09375.164062 0 .351562.1875.46875.140624.070312.257812.023437.375-.140626.023437-.046874.023437-.09375.070312-.117187.117188-.164063.257812-.304687.375-.46875.140625-.210937.351562-.28125.5625-.328125.164062-.070312.304688.023438.351562.1875.023438.09375.023438.210938 0 .328125-.140624.585937-.445312 1.101563-.960937 1.453125-.398437.28125-.703125.65625-.867187 1.125-.140626.304688-.304688.585938-.492188.84375-.5625.820312-1.242188 1.546875-1.96875 2.226562-.234375.234376-.46875.445313-.703125.679688-.351563.398438-.539063.867188-.585937 1.40625-.140626 1.359375 1.148437 2.390625 2.414062 1.921875.28125-.09375.515625-.234375.726562-.445313.164063-.140624.304688-.28125.445313-.46875.28125-.375.5625-.773437.84375-1.171874.117187-.164063.234375-.328126.257813-.5625 0-.164063-.070313-.28125-.1875-.375-.140626-.09375-.28125-.070313-.398438.023437-.09375.070313-.210938.1875-.28125.304687-.117188.164063-.1875.351563-.28125.539063-.164062.28125-.304688.585937-.46875.84375s-.375.46875-.65625.609375c-.328125.210938-.679688.234375-1.054688.070312-.09375-.046874-.210937-.09375-.257812-.164062-.257812-.328125-.398438-.679688-.328125-1.101562.046875-.234376.117187-.445313.234375-.65625.1875-.375.445312-.703126.75-.984376.609375-.492187 1.054688-1.148437 1.617188-1.6875 0-.023437.046874-.046874.046874-.09375.304688-.421874.609376-.867187.914063-1.3125.117187-.1875.234375-.328124.421875-.421874.164062-.046876.28125-.164063.421875-.234376.234375-.140624.351563-.328124.492187-.5625.164063-.351562.257813-.726562.328126-1.125.046874-.1875.070312-.375.117187-.5625.023437-.210937.140625-.421874.257813-.585937.210937-.304687.421874-.328125.703124-.117187.09375.070312.164063.1875.304688.1875.1875.023437.234375.164062.234375.328124.023437.140626-.023437.28125-.09375.421876-.28125.539062-.539063 1.078124-.820313 1.59375-.1875.351562-.28125.75-.351562 1.148437-.046875.234375-.023438.46875.070312.703125.070313.117188.140626.1875.28125.1875.140626.023438.257813-.046875.328126-.1875.070312-.117188.070312-.257812.070312-.398438-.023438-.210937-.023438-.421874-.046875-.632812 0-.117188.023437-.257812.070313-.351562.140624-.304688.539062-.328126.703124-.046876.09375.117188.117188.257813.117188.375.046875.28125.046875.585938-.070312.84375-.117188.398438-.117188.773438-.046876 1.171876.140626.820312.140626 1.617187-.023437 2.4375-.234375 1.21875-.46875 2.414062-.84375 3.585937-.070313.234375-.140625.445313-.140625.65625-.046875.140625 0 .328125.023438.492187.070312.1875.257812.257813.445312.140626.140625-.09375.234375-.234376.28125-.398438s.09375-.328125.117188-.515625c.117187-1.078125.351562-2.132813.679687-3.1875.140625-.445313.210937-.914063.210937-1.382813 0-.515624 0-1.054687-.070312-1.570312-.046875-.164062-.046875-.351562-.046875-.515625 0-.703125.023437-1.40625.046875-2.085937 0-.164063.023438-.304688.023438-.445313.046874-.117187.070312-.234375.210937-.28125.023437-.046875.046875-.09375.117187-.164063-.304687-.28125-.398437-.65625-.351562-1.078124-.234375-.234376-.398438-.515626-.492188-.820313-.09375-.257813-.140624-.492187.070313-.703125.023437-.023438.046875-.09375.070313-.140625.164062-.28125.492187-.28125.679687 0 .046875.070313.09375.140625.164063.210937.164062.117188.257812.234376.257812.421876 0 .140624.046875.257812.046875.375 0 .09375.023437.1875.09375.257812.164063.117188.164063.304688.164063.46875-.023438.164062-.070313.328125-.09375.492188v.234374c.234374.09375.46875.140626.703124.070313.117188-.210937.257813-.421875.164063-.65625 0-.046875 0-.09375.023437-.140625.046876-.351562.023438-.679688-.210937-.984375-.023437-.023437-.046875-.046875-.046875-.070313-.140625-.375-.351562-.703124-.632812-1.007812-.117188-.140625-.210938-.28125-.234376-.46875-.023437-.117188-.046874-.210938-.070312-.328125-.046875-.234375-.117188-.445313-.09375-.65625.023438-.234375.046875-.46875.046875-.703125 0-.28125.1875-.492188.46875-.46875.257813.023438.445313-.046875.632813-.1875.070312-.046875.164062-.070312.257812-.117188.140625-.023437.328125.09375.398438.234376.070312.117187.023437.257812-.140626.375 0 .023437-.046874.023437-.046874.046874-.210938.257813-.5625.445313-.46875.890626v.070312c-.117188.257812 0 .421875.210937.539062.1875.09375.328125.234376.421875.421876.046875.070312.09375.140624.140625.210937.234375.351563.398437.726563.28125 1.171875-.070313.234375-.070313.46875.046875.703125.140625.28125.09375.5625-.070312.820313-.09375.164062-.28125.257812-.375.445312-.070313.164062-.070313.375-.1875.5625-.117188.140625-.210938.28125-.304688.421875-.070312.117187-.117188.234375-.117188.375 0 .28125 0 .539063-.023437.820313 0 .328124.023437.65625.070313.984374.046874.28125.070312.585938.09375.890626.023437.28125.023437.5625.046874.84375.046876.632812.234376 1.21875.515626 1.804687.351562.703125.609374 1.453125.773437 2.226563.046875.140624.09375.304687.164063.445312.070312.140625.140624.28125.257812.398438.257812.234374.492188.140624.539062-.210938 0-.140625 0-.257812-.023437-.421875-.023437-.09375-.046875-.210937-.09375-.328125-.328125-.796875-.585937-1.59375-.960937-2.34375-.421876-.796875-.632813-1.640625-.632813-2.554688 0-.515624-.046875-1.03125-.09375-1.523437-.046875-.445313.023437-.890625.117187-1.289063.023438-.117187.070313-.1875.117188-.28125.070312-.1875.257812-.257812.351562-.421874.09375-.164063.117188-.398438.257813-.539063l.070313-.070313c.09375-.117187.117187-.234374.117187-.398437.023437-.1875.046875-.351563.09375-.515625.023437-.140625.09375-.257812.234375-.328125.28125-.140625.445312-.351563.46875-.703125.023438-.210938.1875-.304688.398438-.28125.164062 0 .304687.09375.375.234375.046874.09375.09375.164063.140624.257813.09375.234374.09375.351562-.09375.515624-.210937.164063-.304687.375-.210937.632813 0 .023437 0 .070313.023437.117187.046876.328126-.09375.539063-.328124.679688-.117188.070312-.210938.140625-.28125.210938-.257813.1875-.46875.421874-.773438.445312zm-6.960938-3.914062c.1875-.1875.234376-.398438.234376-.632813-.023438-.421875.375-.75.75-.585937.164062.070312.328124.164062.492187.234374.164063.09375.257813.257813.234375.46875-.023438.304688-.117188.585938-.28125.84375-.09375.1875-.28125.28125-.46875.304688-.257812.023438-.492188-.046875-.703125-.140625-.1875-.09375-.1875-.304687-.257813-.492187zm6.820313-2.179688c.375-.023438.609375.234375.539063.585938 0 .046874-.023438.09375-.046876.117187-.09375.257813-.164062.539063-.304687.796875-.140625.28125-.539063.351562-.773437.117188-.1875-.164063-.304688-.398438-.304688-.679688 0-.09375.023438-.1875.070312-.257812.117188-.1875.234376-.351563.328126-.515626.140624-.164062.328124-.140624.492187-.164062zm-4.03125-.773438c-.234375 0-.375-.070312-.492187-.1875-.164063-.1875-.304688-.375-.445313-.5625-.09375-.117187-.046875-.234375.046875-.304687.117188-.117188.257812-.1875.421875-.234375.1875-.023438.351563 0 .46875.1875s.210937.328125.351563.46875c.164062.164062.09375.375-.046876.492187-.09375.070313-.234374.093751-.304687.140625zm-5.085937-2.976562c0-.210938 0-.398438 0-.5625.023437-.1875.140624-.28125.304687-.304688.375-.046875.515625.070313.515625.46875.023438.1875 0 .398438-.09375.585938-.140625.351562-.539062.46875-.867188.257812-.09375-.070312-.117187-.1875-.023437-.28125.046875-.070312.117187-.117187.164063-.164062zm7.6875-2.085938c-.09375.28125-.28125.492188-.492188.679688-.28125.234375-.796875.117187-.914062-.234375-.070313-.1875 0-.304688.1875-.375.234374-.09375.46875-.164063.703124-.234375.210938-.046875.375-.046875.515626.164062zm1.3125 1.992188c.28125-.023438.445312.1875.585937.398437.070313.070313.023437.1875-.023437.257813-.140626.210937-.351563.28125-.585938.257812-.234375-.046875-.421875-.164062-.492188-.421875-.046874-.234375.070313-.421875.304688-.46875.070312-.023437.140625-.023437.210938-.023437zm-.585938-.445313c-.070312.046875-.117188.117188-.1875.117188-.234375.023437-.492188.046875-.726562-.023438-.140626-.046875-.257813-.140625-.257813-.351562.1875-.140625.398437-.28125.609375-.398438.210938-.117187.445312 0 .492188.257813.023437.117187.046874.234375.070312.398437zm-5.203125 4.031251c.117187 0 .234375 0 .328125.046874.117188.023438.210938.09375.257812.164063.140626.234375.046876.46875-.210937.539063-.234375.070312-.632813-.070313-.773437-.257813-.046876-.09375-.070313-.1875-.023438-.304687.023438-.117188.117188-.1875.234375-.1875zm2.8125-4.500001c-.070313.210938-.210937.304688-.398437.304688-.1875.023437-.351563-.046875-.46875-.1875-.046876-.070313-.117188-.140625-.140626-.234375-.070312-.117188-.046874-.210938.070313-.304688.023437-.023437.046875-.023437.070313-.046875.234374-.234375.539062-.140625.703124.1875.046876.09375.09375.1875.164063.28125zm3-1.359375c.09375.117188.1875.210938.257813.328125-.257813.398438-.585938.515625-.914063.304688-.070313-.046875-.140625-.117188-.164063-.210938-.09375-.140625-.023437-.28125.09375-.328125.234376-.09375.445313-.140625.726563-.09375zm-4.96875-1.5c-.304687 0-.515625-.140625-.585937-.375-.023438-.117187 0-.234375.117187-.28125.164063-.117187.328125-.140625.515625-.070312.046875 0 .09375 0 .117188.023437.09375.070313.257812.070313.28125.210938.023437.1875-.070313.304687-.210938.398437-.09375.046875-.1875.070313-.234375.09375zm5.34375 10.898438c-.328125 0-.46875-.1875-.445313-.515625.046876-.351563.257813-.46875.5625-.28125.09375.070313.1875.164063.28125.257813.070313.070312.070313.164062.046876.257812-.070313.164062-.257813.28125-.445313.28125zm-3-3.796875c-.046875-.023437-.140625-.046875-.210937-.070313-.164063-.046874-.234376-.1875-.117188-.375.117188-.257812.28125-.375.539062-.375.164063-.023437.257813.046875.328126.164063.09375.140625.070312.257812-.023438.375-.117188.1875-.28125.28125-.515625.28125zm-2.25 1.5c.09375-.117187.164063-.234375.234375-.328125.234375-.1875.492188-.117188.585938.140625 0 .09375.023437.1875.023437.28125-.023437.257813-.164063.398437-.421875.375-.070312-.023437-.140625-.046875-.210938-.070313-.046874-.046874-.117187-.070312-.117187-.117187-.046875-.09375-.070313-.1875-.09375-.28125zm1.476563-.398437c-.210938 0-.328126-.09375-.351563-.257813-.046875-.164063 0-.304687.117187-.445313.140626-.140624.28125-.140624.46875-.046874.328126.210937.328126.421874 0 .632812-.09375.046875-.1875.09375-.234374.117188zm4.476562-.679688c-.046875 0-.117188-.023438-.1875-.070312-.1875-.070313-.257812-.210938-.210938-.398438.023438-.1875.117188-.28125.28125-.328125.140626-.023438.351563.046875.445313.210937.023437.046876.023437.117188.046875.1875.09375.234376-.117188.445313-.375.398438zm-4.453125 2.226562c-.210937-.023437-.304687-.09375-.375-.210937-.046875-.140625 0-.28125.09375-.375.140625-.140625.304687-.164063.492187-.140625.140626 0 .234376.117188.257813.257812.023437.140626-.023437.28125-.164063.328126-.09375.09375-.234374.117187-.304687.140624zm-.914063-7.382812c-.023437.210937-.140624.421875-.328124.492187-.1875.046875-.351563-.023437-.492188-.164062-.09375-.09375-.09375-.210938 0-.328125.09375-.070313.164062-.117188.257812-.164063.140626-.09375.28125-.09375.421876-.046875.09375.046875.140624.117188.140624.210938zm.351563 1.335937c.257813.023438.375.09375.421875.328125.023438.117188-.023438.234375-.140625.28125-.257813.117188-.539063-.023437-.632813-.304687-.046874-.140625.023438-.210938.117188-.257813.046875-.023437.09375-.023437.117188-.023437.046874-.023438.09375-.023438.117187-.023438zm4.429687-.5625c-.234374 0-.351562-.023437-.445312-.1875-.046875-.070312-.023438-.1875.046875-.257812.140625-.117188.421875-.140625.585937-.046875.164063.09375.164063.28125.023438.375-.070312.070312-.1875.09375-.210938.117187zm1.898438 3.164063c0 .1875-.070312.28125-.1875.304687-.140625.070313-.257812.046875-.398438 0-.117187-.070312-.1875-.210937-.140624-.351562.046874-.140625.210937-.210938.351562-.1875.046875.023437.070312.046875.117188.070312.09375.046875.1875.117188.257812.164063zm-6.5625 6.867188c.023438-.1875.023438-.328126.070312-.445313.046876-.1875.234376-.234375.375-.164063.140626.070313.1875.210938.164063.375-.023437.1875-.140625.28125-.304687.28125-.070313 0-.164063-.023437-.304688-.046874zm-3.726562-9.117188c.117187-.070313.210937-.1875.328124-.257813.1875-.09375.398438.046875.398438.28125-.023438.117188-.070312.1875-.164062.210938-.117188.070312-.234376.070312-.375.023437-.09375-.023437-.164063-.09375-.1875-.257812zm3.304687 6.234375c0-.09375 0-.1875 0-.257813.023437-.1875.210937-.304687.351563-.1875.117187.046876.164062.164063.1875.28125 0 .046876-.023438.117188-.046876.140626-.164062.117187-.304687.164062-.492187.023437zm1.6875-6.234375c0-.070313 0-.117188.023437-.1875.117188-.257813.328126-.28125.5625-.09375.070313.070312.070313.1875 0 .257812-.09375.046875-.1875.09375-.28125.140625-.09375.023438-.09375 0-.304687-.117187zm4.734375 3.257812c.117188-.023437.234375-.046874.328125-.046874s.164063.023437.234375.09375c.023438.023437.070312.09375.070312.140624-.023437.070313-.070312.117188-.117187.164063-.09375.046875-.210937.023437-.328125-.023437-.09375-.070313-.09375-.070313-.1875-.328126zm-9.867188-4.382812c.117188-.234375.304688-.257813.515626-.1875.117187.023437.140624.164062.070312.257812-.070312.046875-.140625.117188-.234375.117188-.140625.023437-.257813-.023438-.351563-.1875zm10.921876 3.585937c-.023438 0-.023438-.023437-.023438-.023437.046875-.09375.070312-.164063.164062-.117188.023438 0 .070313.070313.070313.070313-.046875.117187-.117187.140625-.210937.070312zm2.835937.445313c-.375-.140625-.65625-.070313-.9375.164062-.1875.1875-.398437.375-.632813.492188-.046874.023438-.046874.023438-.070312.046875-.070312.046875-.070312.164063-.023438.234375.09375.117188.234376.257812.421876.28125.164062.023438.28125.117188.328124.28125.046876.140625.140626.210938.257813.257812.210937.117188.445313.140626.65625-.046874.1875-.1875.398437-.257813.65625-.304688.28125-.070312.585937-.09375.914063-.046875.117187.023437.210937.023437.351562.023437.28125 0 .492188-.140624.65625-.375-.140625-.28125-.351562-.398437-.609375-.398437-.140625-.023438-.28125 0-.398437.046875-.1875 0-.375.070312-.539063.070312-.421875.046876-.890625-.070312-1.007813-.65625 0 0 0-.023437-.023437-.070312zm-16.3125-5.648438c-.046875-.375-.117187-.703125-.328125-.984375-.117188-.117187-.234375-.1875-.351562-.257812-.140626-.070313-.257813-.023438-.304688.140625-.023438.046875-.023438.117187-.046875.164062-.070313.492188.117187.890625.445313 1.242188.140624.164062.351562.140625.492187-.046875.046875-.09375.070313-.1875.09375-.257813zm3.210937-4.96875c.023438-.046875.046876-.117187.046876-.1875.023437-.140625 0-.28125-.117188-.398437-.046875-.046875-.117188-.046875-.140625-.046875-.046875 0-.09375.070312-.117187.117187-.023438.140625 0 .28125.070312.398438.070312.070312.117188.140625.1875.234375-.09375.210937-.070312.421875 0 .65625.046875.234375.070312.257812.328125.304687.1875.046875.28125-.046875.257813-.234375-.046876-.304687-.117188-.585937-.398438-.75-.046875-.023437-.070312-.070312-.117188-.09375zm-4.195312 2.015625c-.164062 0-.328125.140625-.304688.257813.023438.28125.140626.539062.375.679687.046876.046875.164063.046875.210938.023438.1875-.070313.28125-.28125.210938-.46875-.070313-.210938-.164063-.351563-.351563-.46875-.046875 0-.117187-.023438-.140625-.023438zm13.03125 16.078125c-.140625.09375-.164062.234376-.140625.375.023437.117188.046875.210938.117187.304688.046876.09375.164063.164062.28125.1875.164063.023438.304688-.023438.375-.164062.09375-.140626.09375-.28125 0-.421876-.070312-.070312-.164062-.140624-.257812-.1875-.117188-.046874-.234375-.046874-.375-.09375zm-7.617188-17.226562c.023438.234375.023438.46875.164063.65625.117187.164062.257813.164062.351563 0 .164062-.257813.140624-.75-.09375-.984375-.140626-.164063-.304688-.117188-.375.09375-.023438.09375-.046876.164062-.046876.234375zm-2.742187.726562c0-.257812-.046875-.46875-.1875-.65625-.070313-.070312-.140625-.140625-.257813-.09375-.140624.023438-.1875.09375-.210937.210938-.046875.257812.023437.46875.117187.679687.023438.09375.09375.210938.210938.210938.140625-.023438.234375-.09375.28125-.1875.046875-.070313.046875-.140625.046875-.164063zm6.609375-1.734375c-.046875.023438-.09375.046875-.117188.070313-.28125.257812-.210937.84375.09375 1.007812.046876.046875.140626.046875.164063 0 .09375-.070312.1875-.164062.1875-.28125.023437-.234375-.023437-.46875-.1875-.679687-.023437-.046875-.09375-.070313-.140625-.117188zm-8.25 18.585938c.257812 0 .421875-.164063.46875-.375 0-.140625-.070312-.257813-.28125-.351563-.023438 0-.046875-.023437-.070312-.023437-.210938-.070313-.421876.023437-.539063.234375-.070313.164062 0 .375.1875.445312.09375.023438.1875.046876.234375.070313zm-1.921875-12.46875c-.070313-.117188-.09375-.28125-.164063-.398438-.117187-.234375-.328124-.304687-.5625-.28125-.140624.046875-.1875.117188-.164062.257813.09375.257812.234375.445312.445312.609375.046876.046875.117188.046875.1875.09375.070313.023437.140626-.023438.1875-.117188.023438-.023437.046876-.09375.070313-.164062zm7.289063-5.90625s-.023438.117187 0 .210937c.023437.070313.09375.140625.140624.1875.070313.046875.164063 0 .210938-.070312.210938-.210938.234375-.703125 0-.914063-.09375-.140625-.28125-.117187-.351562.046875-.070313.140625-.046876.28125 0 .539063zm1.921874.070312c-.023437-.164062-.046874-.328125-.164062-.46875-.09375-.140625-.257812-.117187-.351562.023438-.140626.257812-.09375.515625.023437.773437.046875.09375.164063.117188.28125.070313.140625-.070313.210937-.1875.210937-.398438zm-9.328124 4.054688c-.164063 0-.257813.117187-.234376.210937.070313.28125.1875.492188.398438.65625.023438.023438.070312.046875.117188.046875.164062.023438.28125-.117187.234374-.28125-.046874-.1875-.140624-.398437-.328124-.515625-.046876-.070312-.140626-.09375-.1875-.117187zm17.179687-4.242188c-.023437-.023437-.046875-.140625-.117187-.1875-.09375-.070312-.210938-.023437-.304688.023438-.1875.140625-.28125.46875-.210938.679687.046876.140625.1875.1875.28125.140625.234376-.140625.328126-.351562.351563-.65625zm4.195313 11.085938c.257812 0 .421874-.117187.515624-.328125.070313-.09375.023438-.1875-.046874-.257812-.070313-.093751-.164063-.140626-.28125-.093751-.234376.023438-.375.164063-.445313.398438-.023437.09375 0 .1875.09375.234375.046875.023438.117187.046875.164063.046875zm-22.6875-1.546875c-.023438.023437-.140626.070312-.164063.140625-.023437.046875 0 .164062.046875.210937.046875.09375.140625.1875.234375.28125.070313.070313.1875.117188.304687.09375.140626-.023437.234376-.140625.210938-.28125-.070312-.210937-.375-.445312-.632812-.445312zm24.960937 1.382812c.164063 0 .28125-.070312.398437-.1875.09375-.117187.117188-.257812.070313-.328125-.070313-.140625-.210937-.1875-.351563-.1875-.140624.023438-.257812.09375-.351562.234375-.070312.09375-.09375.1875-.070312.304688.070312.117188.164062.164062.304687.164062zm-1.171875-6.867187c0-.140625-.140625-.234375-.28125-.234375-.234375.023437-.445312.328125-.421875.5625 0 .117187.117187.234375.234375.210937.234375-.023437.492188-.304687.46875-.539062zm-23.15625 10.101563c.046875 0 .070312-.023438.09375-.023438.09375-.046875.210938-.070312.234375-.1875s-.046875-.210938-.117187-.28125c-.09375-.046875-.1875-.117188-.28125-.164062-.117188-.070313-.234376-.023438-.328126.09375-.070312.070312-.09375.1875-.023437.257812.09375.09375.1875.164062.28125.257812.046875.023438.09375.023438.140625.046876zm7.3125-14.179688c-.046875-.164063-.09375-.328125-.164062-.492188-.023438-.046875-.09375-.09375-.117188-.140625-.117188-.046875-.234375 0-.257812.117188-.046876.234375-.046876.445312.070312.65625.023438.046875.046875.070312.070312.117187.117188.09375.28125.070313.328126-.070312.023437-.046875.023437-.117188.070312-.1875zm-9.351562 9.796875c-.070313-.234375-.234376-.375-.421876-.46875-.070312-.046875-.1875-.046875-.28125 0-.140624.046875-.1875.1875-.117187.28125.09375.140625.210937.257812.351563.328125.1875.070312.351562.046875.46875-.140625zm12.070312-10.875c0 .210937.023438.375.140625.492187.070313.070313.140625.070313.210937.023438.210938-.164063.210938-.609375.023438-.796875-.117188-.070313-.28125-.046875-.351562.09375-.023438.070312-.023438.164062-.023438.1875zm13.640625 12.914063c-.164063 0-.328125.09375-.398437.257812-.046876.164062.023437.304688.1875.328125.164062.046875.304687-.023437.421874-.140625.070313-.09375.117188-.210938.070313-.28125-.070313-.117188-.140625-.164062-.28125-.164062zm-20.578125-11.554688c.046875.210937.09375.398437.164062.5625.023438.09375.09375.117187.1875.09375.117188-.023438.1875-.117188.164063-.234375-.023437-.1875-.070313-.398438-.210937-.539063-.046876-.023437-.140626-.070312-.1875-.046875-.046876.023438-.070313.117188-.117188.164063zm12.75 2.859375c.023438-.046875.09375-.070313.164062-.117188.164063-.140625.234376-.328125.210938-.539062 0-.046875-.046875-.117188-.09375-.140625-.070312-.023438-.140625 0-.1875.023437-.117188.140625-.210938.304688-.328125.46875-.070313.117188.070313.304688.234375.304688zm-2.085938-5.085938c0-.046875 0-.117187-.046874-.164062-.023438-.070313-.09375-.117188-.164063-.164063-.070313 0-.140625.046875-.1875.117188-.117187.210937-.117187.421875-.023437.609375.046874.117187.164062.140625.257812.046875.117188-.117188.164062-.257813.164062-.445313zm-12.046874 2.8125c-.070313.09375-.140626.140625-.140626.234375 0 .1875.070313.375.210938.539063.046875.070312.164062.09375.234375.046875.09375-.046875.117187-.117188.09375-.1875 0-.1875-.070313-.375-.1875-.492188-.046875-.070312-.140625-.070312-.210937-.140625zm5.882812 22.968751c.023438-.117188-.164062-.28125-.304688-.28125-.164062 0-.304687.140624-.304687.304687 0 .1875.117187.328125.28125.304687.1875 0 .328125-.140624.328125-.328124zm8.203125-3.820313c-.140625 0-.28125.164063-.257813.328125 0 .164062.140626.28125.328126.28125.164062 0 .304687-.140625.304687-.28125-.023437-.1875-.1875-.351562-.375-.328125zm-15.164063-16.898438c-.09375.164063-.023437.304688.046876.445313.09375.140625.1875.28125.375.304687.046874 0 .09375 0 .140624-.023437.023438-.046875.046876-.117188.023438-.164063-.09375-.164062-.164062-.328125-.28125-.46875-.070312-.09375-.164062-.140625-.304688-.09375zm17.390626-4.640625c0-.117187-.070313-.234375-.140626-.257812-.117187-.046875-.257812 0-.28125.117187-.070312.117188-.09375.257813-.117187.375 0 .070313.070313.164063.140625.1875.046875.023438.140625 0 .210938-.046875.117187-.070312.164062-.210937.1875-.375zm-18.46875 8.296875c0-.1875-.140626-.421875-.328126-.492187-.09375-.023438-.1875-.023438-.210937.046875-.046875.046875-.070313.140625-.046875.1875.070312.140625.164062.28125.257812.398437.046876.070313.117188.09375.1875.070313.09375 0 .140626-.117188.140626-.210938zm-3.703126 8.320313c-.164062 0-.28125.046875-.328124.140625-.023438.09375 0 .210937.09375.28125.117187.117187.257812.164063.421874.117187.164063-.046874.210938-.304687.070313-.398437-.09375-.070313-.210937-.09375-.257813-.140625zm23.601563 1.078125c-.023437 0-.070313 0-.09375 0-.140625.046875-.234375.1875-.234375.328125.046875.117188.1875.234375.351562.210938.023438 0 .070313-.023438.09375-.046876.140626-.046874.210938-.164062.1875-.28125-.023437-.117187-.140624-.210937-.304687-.210937zm-11.414063-17.25c-.023437-.09375-.046874-.210938-.070312-.28125-.046875-.070313-.117188-.117188-.210938-.117188-.070312 0-.140624.070313-.164062.164063-.023438.1875 0 .375.117188.539062.046874.070313.1875.070313.234374-.023437.046876-.09375.070313-.1875.09375-.28125zm8.742188 23.203125c-.023438-.140625-.210938-.28125-.351562-.28125-.140626.023438-.257813.164062-.234376.328125 0 .140625.164063.257813.304688.257813.164062-.023438.28125-.164063.28125-.304688zm-3.867188-26.4375c0-.09375 0-.140625-.023437-.1875-.023437-.09375-.09375-.1875-.1875-.1875s-.164063.070312-.210937.164062c-.070313.164063-.070313.304688.023437.445313.046875.164062.210937.164062.304687.046875.046876-.117188.070313-.210938.09375-.28125zm-12.820312 12.023437c-.023438-.1875-.070312-.328125-.1875-.445312-.070312-.070313-.164062-.09375-.234375-.070313-.070313.046875-.117187.140625-.070313.257813.046876.117187.140626.257812.210938.375.046875.023437.117188.070312.1875.023437.046875-.023437.070312-.09375.09375-.140625zm8.15625 13.359375c.1875 0 .351562-.140624.328125-.328124-.023437-.117188-.1875-.257813-.304687-.257813-.164063 0-.28125.140625-.304688.28125 0 .164063.140625.304687.28125.304687zm11.601562-22.101562h.046876c.210937-.046875.375-.375.28125-.539063-.046876-.09375-.164063-.140625-.234376-.09375-.164062.09375-.257812.304688-.234374.46875.023437.070313.09375.117188.140624.164063zm-17.203124 16.429688c-.023438-.046876-.023438-.09375-.046876-.117188-.117187-.046875-.257812-.117188-.398437-.140625-.09375-.046875-.1875.046875-.210937.140625 0 .070312.023437.140625.046874.1875.070313.070312.140626.117188.234376.164062.140624.09375.351562-.046874.375-.234374zm18.703124 2.742187c.070313-.046875.140626-.046875.210938-.070313.140625-.117187.117188-.328124-.023438-.421874-.164062-.09375-.421874 0-.46875.1875-.023437.09375 0 .164062.070313.234374.070313.023438.140625.023438.210937.070313zm-23.8125-12.070313c0-.257812-.117187-.46875-.328124-.585937-.046876 0-.117188 0-.140626.023437-.046874 0-.070312.09375-.070312.117188.023438.257812.164062.398437.351562.539062.023438.023438.09375.023438.117188.023438.023438-.046875.046875-.09375.070312-.117188zm26.0625 1.171875c.164063-.023437.328126-.1875.375-.351562.023438-.140625-.09375-.257813-.210937-.234375-.1875 0-.351563.1875-.351563.398437 0 .070313.09375.1875.1875.1875zm-20.625-5.132812c.046876-.070313.09375-.070313.117188-.09375.09375-.257813-.023438-.515625-.234375-.65625-.070313-.046875-.164063.023437-.1875.09375-.046875.28125.070313.46875.304687.65625zm-4.289062 8.8125c-.140625-.140625-.257812-.257813-.375-.375-.046875-.046875-.09375-.070313-.164062-.09375-.046876 0-.09375.046875-.117188.070313-.046875.023437-.046875.117187-.046875.140624.046875.09375.117187.1875.1875.257813.140625.140625.28125.164063.515625 0zm22.265625 9.75c-.023437-.1875-.210937-.351563-.398437-.304687-.117188.046874-.210938.140624-.1875.257812 0 .09375.070312.1875.1875.234375.117187.046875.234374.023437.328124-.09375.046876-.023437.046876-.070313.070313-.09375zm-16.828125-3.28125c-.117188 0-.210938.140625-.164062.257813.046874.09375.117187.164062.1875.234374.09375.09375.1875.09375.257812.046876.09375-.09375.117188-.210938.09375-.328126-.070312-.117187-.234375-.234374-.375-.210937zm17.203125-16.195313c.023437.046875.023437.117188.09375.140625.046875.046875.117187.046875.1875 0 .164063-.070312.234375-.234375.210937-.421875-.023437-.117187-.140624-.1875-.257812-.117187-.140625.070312-.210938.210937-.234375.398437zm.140625 3.773438c-.210938 0-.421875.234375-.375.46875 0 .023437.023438.070312.046875.070312.070313.023438.140625.046875.210937 0 .140626-.070312.234376-.210937.257813-.351562.023437-.070313-.046875-.164063-.140625-.1875zm-22.429688 8.53125c0-.023438 0-.046875-.023437-.046875-.070313-.140625-.328125-.257813-.46875-.210937-.070313.023437-.117187.09375-.09375.1875 0 .140624.117187.210937.210937.234374.117188.046876.234376.023438.328126-.070312.023437-.023438.023437-.070312.046874-.09375zm10.289063-14.71875c-.023437-.046875-.046875-.117188-.046875-.1875-.023438-.09375-.140625-.164063-.210938-.140625-.09375.023437-.140624.09375-.140624.1875 0 .117187.023437.257812.070312.375.023438.070312.070312.140625.140625.117187.046875-.023437.117187-.09375.140625-.140625.023438-.070312.023438-.140625.046875-.210937zm-3.140625 20.789062c-.117188 0-.234375.09375-.234375.234376-.023437.140624.117187.28125.257813.28125.140624 0 .257812-.117188.257812-.234376.023438-.117187-.140625-.257812-.28125-.28125zm-6.1875-6.375c.046875-.023437.09375-.023437.117188-.046874.164062-.117188.164062-.304688 0-.421876-.140626-.117187-.304688-.117187-.375-.023437-.070313.070313-.046876.1875.070312.328125.046875.070312.117188.117188.1875.164062zm5.109375-12.1875c-.117187.046875-.117187.164063-.09375.28125 0 .117188.023437.234375.117187.328125.046876.070313.164063.046875.210938-.023437.046875-.117188.023438-.257813 0-.351563-.046875-.117187-.09375-.234375-.234375-.234375zm9.445313-4.242187c-.023438-.023438 0-.070313-.023438-.09375-.046875-.046875-.09375-.117188-.117188-.117188-.070312-.023437-.140624.023438-.1875.070313-.023437.070312-.046874.140625-.046874.210937-.023438.210938.046874.351563.140624.351563.09375-.023438.1875-.164063.210938-.304688.023438-.046875.023438-.070312.023438-.117187zm-9.960938 3.585937c.023438.164063.023438.28125.117188.375.070312.070313.164062.070313.210937 0 .09375-.1875.046875-.421875-.117187-.539062-.046876-.070313-.164063-.023438-.1875.070312 0 .023438 0 .070313-.023438.09375zm-5.859375 5.4375c-.023437-.210937-.117187-.375-.257813-.445312-.023437-.023438-.09375-.023438-.117187 0-.023437.023437-.070313.070312-.070313.117187.023438.1875.09375.328125.257813.421875.023437.023438.09375.023438.117187 0 .046876-.023437.046876-.070312.070313-.09375zm23.953125.328125c.1875 0 .328125-.117187.351562-.304687.023438-.070313-.023437-.164063-.117187-.1875-.117187-.023438-.234375.046875-.304687.1875-.023438.046875-.046876.117187-.023438.140625 0 .070312.070312.117187.09375.164062zm.820312-3.515625h.070313c.164063-.023437.304687-.210937.304687-.375 0-.09375-.117187-.1875-.210937-.140625-.164063.070313-.257813.210938-.257813.375 0 .046875.070313.09375.09375.140625zm-26.226562 11.953126c0 .023437-.070312.023437-.09375.070312v.164062c.070312.140626.164062.210938.328125.210938.046875 0 .117187-.070312.140625-.117188.023438-.046874 0-.117187-.023438-.1875-.070312-.09375-.1875-.140624-.351562-.140624zm2.859375-10.101563c.046875-.070313.117187-.117188.117187-.1875-.023437-.164063-.117187-.28125-.28125-.351563-.070312-.046875-.164062.023438-.164062.09375 0 .1875.09375.304688.210938.421875.046874 0 .070312 0 .117187.023438zm.117187 2.34375c.023438.117187.070313.210937.117188.304687.070312.070313.140625.09375.210938.046875.070312-.046875.09375-.117187.09375-.210937s-.046876-.1875-.140626-.257813c-.046874-.023437-.117187-.070312-.1875-.023437-.023437 0-.070312.070312-.09375.140625zm-.539062-1.570313c0-.164062-.117188-.328125-.28125-.398437-.070312-.023438-.140625.023437-.164062.09375 0 .1875.117187.375.28125.445312.070312 0 .164062-.070312.164062-.140625zm25.921875 9.726563c-.046875-.046875-.046875-.09375-.070313-.117187-.140624-.140626-.375-.070313-.445312.117187 0 .046875 0 .117187.046875.140625.070313.09375.1875.09375.28125.046875.070313-.046875.117187-.117187.1875-.1875zm-1.101563-1.335937c-.023437-.046876-.070312-.117188-.117187-.140626-.070313-.023437-.140625-.023437-.210937 0-.140626.046876-.234376.1875-.1875.304688.046874.09375.234374.140625.351562.046875.070312-.046875.117188-.140625.164062-.210937zm-25.6875.726562c-.070312.046875-.140624.070312-.164062.117188 0 .046874.023438.140624.070312.1875.046876.046874.117188.09375.210938.09375.046875 0 .117188-.046876.140625-.09375.023437-.046876 0-.140626-.023437-.1875-.070313-.046876-.140626-.09375-.234376-.117188zm27.09375-6.9375c-.023437-.023438-.070312-.09375-.117187-.09375-.140625-.046875-.304687.117187-.304687.28125 0 .046875.046874.09375.09375.117187.140624.023438.304687-.117187.328124-.304687zm-28.5 3.773438c.023438-.023438.09375-.023438.09375-.070313.023438-.046875 0-.117187-.023437-.164063-.046875-.09375-.140625-.140624-.257813-.164062-.070312 0-.140624.09375-.140624.164062.070312.164063.140624.234376.328124.234376zm9.914063 9c.117187 0 .210937-.09375.210937-.1875s-.117187-.210938-.234374-.210938c-.09375 0-.210938.09375-.1875.210938 0 .117187.09375.1875.210937.1875zm-7.054687-2.109376c-.023438-.046874-.023438-.070312-.023438-.117187-.09375-.070313-.1875-.117187-.328125-.117187-.070313.023437-.140625.164062-.070313.234374.070313.117188.234376.164063.328126.09375.046874-.023437.070312-.070312.09375-.09375zm-4.59375-14.296875c0 .023438-.046876.070313-.046876.117188-.023437.117187.046876.210937.117188.28125.070312.070312.1875.070312.234375.023437.046875-.070312.046875-.140625 0-.234375-.046875-.117187-.140625-.1875-.304687-.1875zm20.273437 20.156251c-.117187 0-.1875.09375-.164063.1875.023438.09375.117188.1875.210938.1875s.1875-.09375.1875-.164063c-.023438-.117187-.140625-.210937-.234375-.210937zm-15.46875-7.101563c.09375 0 .164063-.070313.164063-.164063.023437-.09375-.023438-.140624-.09375-.164062-.046876-.023438-.117188-.046875-.1875-.046875-.070313-.023437-.140626.09375-.117188.1875.046875.117187.117188.1875.234375.1875zm.796875.28125c-.023438-.023437-.046875-.09375-.09375-.140625-.09375-.070312-.1875-.09375-.28125 0-.046875.023438-.070312.09375-.070312.140625.046874.09375.117187.164063.234374.1875.09375 0 .1875-.070313.210938-.1875zm-.65625-14.882813c.023438 0 .070312-.023437.070312-.070312.070313-.140625-.046874-.328125-.210937-.351563-.046875-.023437-.117187.046875-.117187.117188-.023438.140625.046874.257812.1875.304687.023437.023438.046874 0 .070312 0zm2.53125 17.273438c-.046875.023438-.117188.046875-.117188.09375-.023437.046875 0 .140625.046876.1875.070312.09375.210937.117188.304687.046875.046875-.023437.09375-.070313.070313-.117187-.023438-.140626-.117188-.210938-.234376-.210938-.023437 0-.046874 0-.070312 0zm-1.78125-1.617188c.023438.117188.117188.210938.234375.210938.09375-.023438.1875-.09375.1875-.1875-.023437-.09375-.140625-.1875-.28125-.164062-.09375 0-.164063.070312-.140625.140624zm.820312 2.226563c0-.023437 0-.046875-.023437-.070313-.117187-.117187-.28125-.140624-.375-.070312-.046875.023438-.046875.09375-.046875.117188.046875.140624.1875.1875.375.140624.023438 0 .046875-.023437.070312-.046874 0 0 0-.023438 0-.070313zm-3.398437-9.867188c0-.117187-.023437-.164062-.117187-.234375-.070313-.023437-.164063-.070312-.210938 0-.070312.046875-.070312.140625-.046875.234375.046875.070313.117187.140625.234375.140625.070312.023438.140625-.046875.140625-.140625zm-3.890625-.328125c0-.164062-.09375-.257812-.234375-.257812-.046875 0-.117187.023437-.117187.070312-.046876.09375 0 .1875.117187.257813.046875.023437.09375.023437.117187.023437.046876-.023437.09375-.070312.117188-.09375zm16.40625 14.554688c0-.117188-.09375-.1875-.1875-.1875-.117188 0-.1875.070312-.1875.1875.023438.117188.117188.1875.210938.1875s.1875-.09375.164062-.1875zm12.84375-19.3125c-.140625 0-.234375.070312-.257812.1875-.023438.023437 0 .117187.023437.164062.046875.070313.117187.046875.164063 0 .070312-.070312.117187-.140625.140624-.210937.023438-.046875-.046874-.117188-.070312-.140625zm-21.960938 14.15625c.117188 0 .1875-.070312.210938-.140625 0-.117187-.09375-.210937-.210938-.210937-.09375-.023438-.1875.046874-.1875.140624 0 .117188.09375.210938.1875.210938zm1.359376-.890625c-.023438.023437-.070313.09375-.09375.164063-.023438.09375.070312.210937.164062.1875.117188 0 .1875-.09375.164062-.1875 0-.09375-.09375-.164063-.234374-.164063zm-2.25-2.296875c.046874.1875.1875.304688.351562.28125.023438-.023438.070312-.070312.070312-.117188.023438-.023437 0-.09375-.046874-.09375-.09375-.09375-.234376-.140624-.375-.070312zm9.773437 4.21875c-.023437-.046875-.070313-.117188-.140625-.1875-.070312-.046875-.1875 0-.210938.09375 0 .09375.023438.164062.117188.1875.070312.046875.140625.046875.210938-.023438.023437 0 .023437-.023437.023437-.070312zm-5.953125.023438c-.023438.046874-.070312.117187-.070312.1875 0 .117187.09375.1875.210937.164062.070313-.023438.140625-.09375.117187-.164062 0-.09375-.140624-.1875-.257812-.1875zm-4.148438-1.664063c-.046874.023437-.117187.070313-.140624.140625-.023438.023438.046874.09375.070312.164062.023438 0 .046875 0 .09375.023438.09375.023438.1875-.023438.210938-.09375.023437-.09375-.023438-.1875-.140626-.210938 0 0-.046874 0-.09375-.023437zm-1.851562-14.90625c0-.140625-.070312-.257813-.210938-.28125-.023437 0-.09375.023437-.09375.070312-.046874.09375 0 .210938.09375.28125.023438.023438.09375.023438.140626 0 .023437 0 .046874-.070312.070312-.070312zm7.78125 17.15625c-.046875-.046875-.09375-.117187-.164062-.140625-.046876 0-.09375 0-.140626.023438-.070312.046874-.046874.117187-.023437.1875.046875.117187.1875.140624.28125.046874.023437-.023437.046875-.070312.046875-.117187zm15.515625-1.078125c-.023437-.023438-.070313-.09375-.140625-.117188-.09375-.046874-.210938.070313-.210938.140626.023438.09375.070313.140624.164063.140624.09375.023438.1875-.046874.1875-.164062zm-24-13.148438c-.070313-.09375-.09375-.164062-.164063-.234375-.023437-.023437-.117187-.023437-.140624 0-.023438.023438-.046876.09375-.023438.117188.023438.070312.070312.140625.117188.1875.023437.046875.070312.046875.117187.023437.023437-.023437.046875-.070312.09375-.09375zm-.796875 1.96875c0-.070312-.09375-.164062-.1875-.1875-.070312 0-.140625.023438-.164062.09375-.046876.070313-.023438.140625.046874.164063.070313.070312.164063.070312.257813.023437.023437-.023437.023437-.070312.046875-.09375zm-1.382812 1.898438c.023437 0 .070312-.023438.070312-.070312.023438-.093751-.023438-.140626-.09375-.187501-.046875-.070312-.140625-.070312-.210938-.023437-.023437 0-.023437.023437-.023437.070312 0 .140626.09375.234376.257813.210938zm11.4375 11.414062c-.046876.023438-.117188.070313-.140626.140626-.023437.09375.070313.164062.164063.1875.070313 0 .164063-.070313.164063-.140626 0-.09375-.070313-.1875-.1875-.1875zm-10.59375-8.625c-.023438.046876-.070313.070313-.09375.117188-.023438.070312.09375.164062.1875.164062.046874 0 .117187-.070312.117187-.140624-.023437-.070313-.09375-.140626-.210937-.140626zm1.851562-9.046875s-.046875.046875-.046875.070313c-.023437.09375.046875.1875.164063.1875 0 0 .046874-.046875.070312-.070313 0-.09375-.070312-.1875-.1875-.1875zm.984375-1.546875c-.09375.140625-.070313.210938.046875.28125 0 0 .070312 0 .070312-.023437.070313-.09375.046876-.117188-.117187-.257813zm.164063 17.203126c.023437-.023438.046874-.023438.070312-.046876-.023438-.023437-.046875-.046874-.070312-.070312 0-.023438-.046876.023438-.046876.023438 0 .023437.023438.070312.046876.09375z" fill="#262626" transform="translate(-338 -112)"/></svg>