<svg height="33" viewBox="0 0 37 33" width="37" xmlns="http://www.w3.org/2000/svg"><path d="m347.726562 179.226562h.023438c-.234375-.117187-.445312-.234374-.5625-.445312-.046875-.023438-.070312-.046875-.117188-.046875-.023437-.046875-.023437-.09375-.070312-.117187-.234375-.210938-.46875-.421876-.703125-.609376-.140625-.09375-.28125-.1875-.445313-.257812-.210937-.09375-.375-.234375-.5625-.398438-.445312-.421874-1.101562-.5625-1.664062-.351562-.210938.09375-.398438.234375-.492188.46875-.117187.1875-.140624.398438-.117187.632812.046875.210938.117187.398438.234375.585938.1875.234375.421875.398438.679688.515625.304687.164063.65625.257813.984374.304687.09375.023438.1875.046876.304688.023438.070312 0 .140625-.046875.234375-.070312 0 .09375.046875.140624.140625.164062.234375.023438.46875.046875.726562.117188.492188.117187.984376.257812 1.453126.492187.351562.1875.679687.421875.960937.726563.117187.164062.210937.328124.28125.515624.117187.421876-.070313.773438-.445313.9375-.1875.09375-.375.117188-.5625.09375-.1875-.023437-.375-.046874-.5625-.070312-.257812-.023438-.515624-.023438-.773437.046875-.539063.1875-.679687.703125-.539063 1.101563.070313.210937.1875.398437.351563.539062.070313.070312.117187.117188.164063.164062.046874.046876.046874.117188.09375.210938.070312-.09375.164062-.117188.28125-.117188.257812.023438.515624.046876.773437.070313.117187 0 .210937.046875.304687.070313.164063.046874.257813.117187.328126.257812 0 .046875.046874.046875.09375.09375.09375-.046875.210937-.070312.304687-.117188.515625-.28125 1.03125-.609374 1.476563-1.007812.117187-.09375.257812-.1875.375-.257812.164062-.09375.328124-.164063.46875-.234376.234374-.09375.46875-.140624.679687.09375.046875.070313.140625.070313.210937-.023437.09375-.09375.210938-.09375.328126-.070313.257812.09375.398437.375.304687.65625-.070313.1875-.1875.328126-.351563.398438-.117187.046875-.234374.070312-.351562.070312-.117188.046876-.257812.023438-.375.046876-.304688 0-.585938.046874-.867188.1875-.1875.09375-.398437.1875-.585937.28125-.234375.09375-.445313.210937-.679687.328124-.820313.351563-1.6875.46875-2.578126.28125-.398437-.070312-.796874-.210937-1.171874-.351562-.257813-.09375-.515626-.164062-.75-.257812-.28125-.070313-.539063-.09375-.820313-.046876-.28125.023438-.539063.164063-.726563.375-.257812.28125-.328124.65625-.140624 1.007813.117187.210937.28125.375.492187.492187.234375.140626.492187.210938.75.234376.234375 0 .46875 0 .703125-.046876.304688-.023437.585938-.09375.890625-.140624.257813-.046876.515625-.117188.773437-.140626.703126-.070312 1.359376-.234374 1.96875-.515624.117188-.046876.234376-.09375.351563-.140626.046875 0 .070313-.023437.09375-.046874.257813-.164063.5625-.257813.84375-.351563.257813-.117187.539063-.140625.820313-.117187.515624 0 .960937.304687 1.101562.84375.070312.210937.09375.421874.070312.65625 0 .210937-.046874.445312-.140624.65625-.210938.679687-.585938 1.265624-1.101563 1.734374-.796875.726563-1.734375 1.03125-2.789063.796876-.234374-.046876-.445312-.117188-.632812-.1875-.375-.117188-.726562-.1875-1.101562-.140626-.492188.070313-.984376.1875-1.429688.398438-.304688.140625-.585938.328125-.84375.5625-.1875.164062-.328125.398438-.421875.632812-.046875.140626-.09375.257813-.09375.398438-.023437.398438.070313.75.398437 1.007812.28125.257813.609376.351563.984376.328126.164062 0 .328124-.046876.492187-.09375.257813-.09375.492187-.234376.726563-.375.375-.257813.726562-.492188 1.125-.75.140624-.09375.304687-.1875.492187-.257813.164063-.070313.304687-.140625.492187-.1875.1875-.023437.351563-.117187.539063-.117187.304687-.023438.609375-.070313.914063-.09375.351562-.046876.65625-.164063.960937-.328126.398437-.257812.726563-.5625 1.03125-.890624.1875-.210938.375-.421876.515625-.679688.210938-.445312.421875-.867188.585938-1.335938.070312-.164062.117187-.351562.140624-.539062.023438-.210938.023438-.445312.023438-.679688 0-.351562.023438-.703124.117188-1.054687.140624-.46875.398437-.867187.820312-1.148437.09375-.070313.210938-.117188.304688-.1875.117187-.09375.234374-.164063.351562-.257813.164062-.117187.257812-.28125.257812-.492187 0-.140626-.023437-.257813-.164062-.351563-.117188-.070313-.257812-.140625-.421875-.140625-.09375-.023438-.1875-.023438-.28125-.046875s-.1875-.046875-.28125.046875c0 0-.046875-.023438-.046875-.046875-.023438 0 0-.046875 0-.070313 0-.023437.023438-.023437.046875-.046874-.023437-.046876-.023437-.070313-.046875-.09375-.140625-.234376-.140625-.46875 0-.726563.046875-.046875.070312-.140625.117188-.1875.070312-.117187.1875-.234375.234374-.375.09375-.398437.28125-.75.46875-1.125.117188-.257813.28125-.492187.515626-.65625.140624-.117187.28125-.210937.421874-.328125.210938-.164062.375-.328125.539063-.5625.1875-.210938.351563-.445312.5625-.65625.117187-.140625.234375-.257812.351563-.398438.140624-.210937.304687-.398437.492187-.5625.117187-.117187.210937-.210937.304687-.351562.257813-.28125.445313-.609375.539063-.984375.046875-.1875.117187-.398437.164063-.609375.117187-.445312.234374-.914062.351562-1.359375.09375-.304687.210938-.5625.375-.820313.070312-.046874.09375-.140624.117188-.210937.046874-.023437.117187-.046875.1875-.09375.257812-.210937.46875-.46875.65625-.773437.09375-.140626.117187-.304688.09375-.445313-.023438-.1875-.117188-.304687-.28125-.351563-.28125-.070312-.539063-.023437-.75.210938-.210938.234375-.375.492188-.492188.773438-.117188.351562-.234375.703124-.351562 1.054687-.140626.46875-.257813.9375-.28125 1.429687 0 .09375-.023438.1875-.046876.28125-.046874.210938-.1875.328126-.375.375-.09375.023438-.234374.023438-.328124.046876-.023438-.09375-.023438-.164063-.046876-.210938-.070312-.234375-.164062-.445312-.257812-.65625-.140625-.445312-.257812-.914062-.421875-1.359375-.09375-.210937-.164063-.445313-.28125-.632813-.164063-.234374-.328125-.46875-.492187-.703124-.070313-.09375-.1875-.164063-.257813-.234376-.09375-.070312-.1875-.117187-.257813-.164062-.210937-.140625-.398437-.1875-.609374-.09375-.140626.070312-.257813.164062-.328126.304688-.070312.09375-.09375.1875-.140624.304687-.117188.304687-.304688.515625-.632813.585937-.140625.023438-.304687.070313-.46875.070313-.140625 0-.28125.023437-.421875.09375-.210938.09375-.375.257813-.398438.515625-.023437.1875-.046874.351562-.046874.515625 0 .117187.023437.210937.070312.304687.234375-.210937.328125-.234374.632812-.234374.304688 0 .585938.09375.820313.257812.117187.070312.210937.140625.328125.1875.257812.140625.492188.070312.632812-.210938.09375-.164062.164063-.351562.164063-.5625 0-.117187 0-.234374.046875-.351562.070312-.210938.257812-.351562.492188-.351562.140624 0 .257812.046874.375.164062.140624.09375.234374.234375.28125.375.070312.1875.140624.375.1875.5625.117187.445312.257812.867188.46875 1.289062.164062.351563.257812.703126.304687 1.078126.070313.445312-.023437.84375-.328125 1.195312-.234375.28125-.492188.539062-.773438.773438-.140624.117187-.304687.1875-.492187.1875-.046875.023437-.117187.046874-.164063.070312-.023437-.023438-.023437-.070312-.046874-.09375-.140626-.140625-.234376-.304688-.304688-.492188-.023438-.046874-.070312-.09375-.117188-.140624-.070312 0-.164062.023437-.210937 0-.09375-.023438-.140625.023437-.1875.023437-.023437 0-.070313-.023437-.070313-.046875.046876-.117188-.046874-.1875-.09375-.28125-.070312-.09375-.117187-.1875-.164062-.304688-.046875-.09375-.117188-.164062-.210938-.1875-.09375-.023437-.164062-.023437-.257812-.046874 0-.164063-.09375-.234376-.1875-.351563-.046875-.046875-.070312-.09375-.140625-.117187-.257813-.28125-.492187-.585938-.632813-.9375-.140624-.257813-.304687-.515626-.515624-.726563-.164063-.1875-.328126-.375-.492188-.5625-.1875-.210937-.375-.421875-.632812-.539063-.1875-.117187-.375-.070312-.46875.140626-.070313.140624-.09375.304687-.046876.445312.023438.164062.070313.328125.117188.46875.140625.328125.304688.632812.515625.9375.09375.140625.1875.257812.375.28125.023437 0 .070313 0 .09375.023438.257813.140624.515625.257812.75.421874.515625.351563.960937.796876 1.382813 1.242188.304687.351562.539062.726562.632812 1.195312.070312.304688.09375.609376-.023438.914063-.210937.632813-.515624 1.195313-.914062 1.710937-.023438.023438-.023438.023438-.046875.046876-.445313.46875-.984375.65625-1.617187.46875-.117188-.023438-.234376-.117188-.375-.023438 0 .023438-.023438 0-.046876 0-.09375-.046875-.1875-.070312-.210937-.164062-.070313-.164063-.1875-.210938-.304687-.234376-.140626-.023437-.234376-.046874-.351563-.117187-.09375-.046875-.1875-.046875-.28125-.070313-.046875-.023437-.09375-.023437-.140625-.023437-.023438-.023437-.070312-.046875-.070312-.070313 0-.117187-.070313-.1875-.140626-.257812-.28125-.257812-.515624-.585938-.75-.890625-.1875-.234375-.398437-.46875-.65625-.632813-.070312-.070312-.140624-.140624-.234374-.140624-.1875-.023438-.304688-.117188-.421876-.234376zm9.632813 13.382813c.023437-.023437.046875-.023437.09375-.046875.257813-.1875.539063-.351562.796875-.585938.328125-.28125.679688-.539062 1.03125-.796874.445312-.351563.75-.820313.9375-1.359376.023438-.09375 0-.140624-.070312-.164062-.09375-.046875-.1875-.070312-.28125-.09375-.164063-.046875-.328126 0-.492188.09375-.234375.164062-.492188.304688-.726562.46875-.65625.421875-1.382813.632812-2.132813.679688-.445313.023437-.867187-.023438-1.3125-.023438-.164063 0-.328125-.023438-.492187-.023438-.445313-.046874-.820313.070313-1.171876.351563-.304687.210937-.609374.421875-.890624.609375-.820313.585938-1.664063 1.054688-2.554688 1.429688-.398438.1875-.796875.328124-1.195312.492187-.257813.117187-.515626.257813-.75.421875-.257813.164062-.445313.351562-.609376.609375-.234374.375-.304687.773437-.210937 1.21875.1875.703125.890625 1.125 1.429687 1.148437.515626.023438.960938-.140624 1.359376-.46875.28125-.257812.515624-.5625.703124-.890624.164063-.257813.304688-.539063.46875-.820313.210938-.375.421876-.773437.65625-1.148437.28125-.398438.632813-.773438 1.03125-1.03125.796876-.515626 1.640626-.679688 2.554688-.5625.421875.070312.84375.1875 1.265625.304687.164063.046875.351563.117187.5625.1875zm-8.132813 2.0625c.070313.09375.140626.210937.1875.304687.164063.304688.140626.703126-.070312.9375-.210938.234376-.5625.328126-.867188.210938-.304687-.140625-.46875-.492188-.351562-.84375.117188-.28125.304688-.492188.632812-.5625.140626-.023438.28125-.023438.46875-.046875zm13.382813-11.882813c-.117187-.023437-.210937 0-.257813.046876-.140624.070312-.304687.09375-.445312.09375-.28125.023437-.585938.023437-.867188.046874-.375 0-.75-.023437-1.125 0-.585937 0-1.148437.023438-1.734374.046876-.304688.023437-.585938.023437-.890626.046874-.234374.023438-.46875.117188-.679687.234376-.351563.1875-.609375.445312-.726563.84375-.070312.140624-.09375.304687-.070312.445312.046875.210938.117188.398438.140625.609375.09375.046875.1875.070313.257813.117187.304687.210938.632812.210938.960937.070313.164063-.070313.328125-.1875.46875-.304687.234375-.164063.421875-.351563.65625-.515626.234375-.234374.515625-.398437.820313-.539062.5625-.257812 1.125-.28125 1.6875-.046875.398437.1875.65625.445313.796874.84375.046876.09375.09375.1875.117188.28125.070312.351563.234375.632813.421875.890625.117187.164062.257813.28125.421875.328125.328125.164063.679688.210937 1.03125.1875.210938-.023437.398438-.09375.539062-.234375.375-.328125.492188-.867188.328126-1.335938-.117188-.375-.375-.632812-.632813-.867187-.070313-.023437-.140625-.046875-.210937-.070313-.046876-.023437-.117188-.046874-.1875-.070312-.09375-.070312-.1875-.140625-.28125-.210938-.046876-.023437-.09375-.070312-.09375-.117187 0-.140625-.09375-.1875-.1875-.257813-.09375-.046874-.140626-.117187-.1875-.210937-.070313-.117187-.070313-.210937-.070313-.351563zm-1.828125 4.570313c.023438-.164063.023438-.304687.023438-.421875.046874-.234375.070312-.492188.023437-.726562-.070313-.492188-.140625-.984376-.234375-1.476563-.023438-.140625-.09375-.28125-.140625-.421875-.046875-.09375-.117187-.140625-.210937-.140625-.210938-.070313-.421876 0-.609376.09375-.703124.375-1.359374.820313-1.851562 1.5.117188.140625.117188.140625.140625.328125.023437.257812.046875.515625.09375.796875.046875.328125.164063.609375.398437.867187.351563.398438.796876.539063 1.335938.421876.304688-.070313.515625-.28125.773438-.445313 0-.023437.023437-.046875.023437-.070313.023437-.140624.140625-.234374.234375-.304687zm-8.789062-7.453125c.023437-.09375.046874-.140625.046874-.210938 0-.117187-.046874-.234374-.09375-.328124-.023437-.09375-.09375-.1875-.09375-.28125-.023437-.164063-.070312-.304688-.1875-.421876-.09375-.164062-.210937-.328124-.351562-.46875-.234375-.28125-.492188-.539062-.75-.796874-.351562-.351563-.679688-.726563-.984375-1.125-.1875-.234376-.351563-.46875-.539063-.703126-.117187-.164062-.28125-.28125-.445312-.375-.046875-.023437-.117188-.023437-.140625-.070312-.117187-.164062-.304687-.1875-.445313-.1875-.445312-.070312-.796874.234375-.914062.679688-.046875.28125 0 .5625.140625.820312s.328125.46875.539063.65625c.28125.210938.5625.421875.84375.632812.257812.1875.515624.375.773437.539063.375.28125.75.5625 1.125.820313.28125.164062.609375.328124.914063.398437.1875.046875.351562.140625.421874.304687.023438.046876.070313.070313.140626.117188zm7.429687-.609375c.023437-.117187 0-.304687-.070313-.46875-.046874-.164063-.117187-.328125-.257812-.421875-.046875-.046875-.117188-.046875-.164062-.070312-.070313 0-.117188-.09375-.164063-.140626-.023437-.023437-.070313-.023437-.117187-.046874-.210938-.023438-.398438 0-.585938.09375-.1875.117187-.375.1875-.539062.304687-.398438.28125-.75.632813-1.03125 1.054687-.164063.257813-.28125.539063-.328126.84375-.046874.492188.1875.890626.609376 1.101563.351562.164063.703124.164063 1.054687.023437.796875-.257812 1.570313-1.078124 1.59375-2.273437zm5.179687-5.203125c0-.257812-.023437-.539062-.09375-.796875-.140624-.375-.210937-.75-.351562-1.125-.023438-.023437-.023438-.046875-.023438-.070313 0-.210937-.070312-.398437-.117187-.585937-.023437-.070313-.070313-.140625-.140625-.210937-.164062-.1875-.398438-.1875-.5625 0-.1875.210937-.234375.445312-.140625.679687.046875.140625.117187.257813.1875.351563.09375.164062.210937.304687.328125.445312.1875.28125.304688.609375.257812.984375 0 .210937-.046874.445313-.117187.65625-.023437.09375-.023437.164063-.023437.234375.046874.210938 0 .375-.117188.539062-.046875.09375-.09375.164063-.140625.234376-.257813.398437-.46875.820312-.679687 1.242187-.023438.070313-.023438.164063-.070313.234375-.023437.046875-.09375.09375-.140625.164062-.023438.023438-.046875.070313-.070312.117188-.234376.445312-.328126.914062-.421876 1.40625-.046874.234375-.070312.492188-.117187.726562-.070313.351563-.09375.703126-.117187 1.054688-.046876.492188.46875.960938.984374.890625.375-.046875.679688-.351563.726563-.703125 0-.09375-.023437-.164062-.09375-.210938-.140625-.070312-.28125-.117187-.421875-.164062-.070312-.023438-.1875-.023438-.257812-.070312-.070313-.046876-.09375-.164063-.140626-.234376-.023437-.046874-.046874-.070312-.070312-.09375-.046875-.117187-.09375-.257812-.09375-.398437-.046875-.421875 0-.867187.117188-1.265625.09375-.421875.304687-.75.5625-1.078125.046874-.046875.09375-.09375.09375-.140625.046874-.1875.140624-.351562.234374-.492188.164063-.28125.351563-.539062.539063-.820312.28125-.445312.492187-.914062.492187-1.5zm-4.21875 20.625c-.070312-.164062-.1875-.210938-.328124-.257812-.234376-.070313-.46875-.070313-.703126.023437-.492187.164063-.820312.46875-.914062.984375-.164062.84375.375 1.617188 1.21875 1.757812.585938.070313 1.148438-.257812 1.382812-.820312.164063-.46875.117188-.914062-.140624-1.3125-.117188-.210938-.257813-.351562-.515626-.375zm3.796876-5.953125c-.421876-.023437-.796876.09375-1.101563.375-.375.328125-.539063.773437-.421875 1.265625.140625.515625.46875.820312.960938.914062.726562.140626 1.476562-.328124 1.6875-1.125.023437-.140624.023437-.328124-.023438-.492187-.070312-.234375-.1875-.421875-.351562-.632813-.140626-.1875-.328126-.304687-.5625-.304687-.070313 0-.140626 0-.1875 0zm-25.078126 3.257813c.5625-.023438.9375-.1875 1.242188-.539063.1875-.257813.304688-.539063.28125-.867187-.046875-.375-.210938-.679688-.5625-.820313-.046875-.023437-.09375-.070313-.140625-.09375-.164063-.164063-.398437-.1875-.609375-.1875-.351562 0-.679688.117187-.9375.375-.492188.375-.703125 1.3125.046875 1.875.234375.164063.515625.257813.679687.257813zm23.085938-17.109376c-.070312 0-.09375-.023437-.117188-.023437-.1875.023437-.351562.09375-.46875.257813-.070312.09375-.117187.1875-.164062.28125-.046875.070312-.070312.140624-.117188.210937-.117187.1875-.257812.375-.375.5625-.09375.140625-.164062.257813-.234374.398437-.304688.726563-.492188 1.5-.351563 2.296876.140625.796874-.070313 1.5-.539063 2.109374-.117187.1875-.28125.328126-.46875.445313s-.398437.257813-.609374.375c-.1875.09375-.351563.210937-.445313.421875-.023437.070312-.070313.117188-.046875.210938.070312.070312.140625.046874.210938.023437.117187-.023437.234374-.046875.328124-.117187.304688-.1875.609376-.375.890626-.585938.304687-.234375.585937-.515625.75-.867188.140624-.28125.257812-.5625.328124-.890624.070313-.304688.070313-.609376.046876-.914063 0-.421875-.023438-.820313.023437-1.21875.070313-.445313.1875-.914063.421875-1.289063s.445312-.726562.679688-1.078124c.117187-.1875.210937-.375.257812-.609376zm-13.335938 11.929688c-.421874.023438-.84375.140625-1.171874.492188-.1875.234374-.257813.46875-.1875.773437.023437.140625.09375.28125.1875.398437.5625.679688 1.710937.5625 2.085937-.257812.046875-.117188.09375-.257812.09375-.398438 0-.210937-.023437-.421874-.164063-.609374-.070312-.09375-.1875-.140626-.28125-.210938-.140624-.140625-.328124-.164062-.5625-.1875zm-2.203124-16.171875c-.023438.5625.351562 1.007813.867187 1.125.46875.09375.914063-.1875 1.078125-.65625.070312-.257813.070312-.515625-.023438-.75-.09375-.210937-.210937-.398437-.445312-.46875-.046875-.023437-.070312-.070313-.117188-.09375-.046874-.070313-.117187-.09375-.210937-.117187-.492187-.140626-1.148437.210937-1.148437.960937zm.328124.117187c-.070312.023438-.09375.046876-.117187.023438s-.023437-.046875-.023437-.09375h.070312c.023438 0 .046875.046875.070312.070312zm21.726563 16.007813c0-.257813-.046875-.492187-.257813-.632813-.117187-.117187-.28125-.210937-.46875-.257812-.257812-.070312-.515624-.023438-.773437.117188-.234375.09375-.398437.304687-.492187.5625-.164063.492187.023437.9375.515624 1.171874.28125.140626.585938.117188.890626-.023437.375-.1875.5625-.515625.585937-.9375zm-13.125-10.851563c-.09375-.164062-.09375-.164062-.210937-.1875-.234376-.070312-.445313-.023437-.65625.140626-.257813.1875-.445313.585937-.304688.984374.117188.398438.46875.679688.84375.703126.328125.023437.703125-.210938.820312-.585938.117188-.351562 0-.796875-.257812-1.007812-.070312-.070313-.140625-.046876-.234375-.046876zm9.328125 2.226563c0-.164063-.046875-.351563-.140625-.445313-.210937-.1875-.445313-.328124-.75-.210937-.117187.046875-.257813.117187-.375.210937-.28125.234376-.445313.515626-.398437.914063.046874.328125.328124.585937.65625.585937.515624 0 1.03125-.515624 1.007812-1.054687zm-4.664062-4.242187c-.257813 0-.46875.117187-.609376.328124-.234374.375-.09375.867188.210938 1.03125.234375.140626.539062.140626.75-.046874.257812-.1875.375-.445313.304688-.773438-.046876-.164062-.117188-.351562-.328126-.375-.023437 0-.046874-.023438-.070312-.046875-.046875-.117187-.164062-.117187-.257812-.117187zm4.59375 19.265624c0 .304688.1875.5625.492187.703126.234375.070312.609375-.023438.773437-.257813.164063-.234375.164063-.632813-.023437-.796875-.117187-.117188-.257813-.210938-.398437-.257812-.421876-.140626-.84375.164062-.84375.609374zm1.054687-9.210937v.046875h.070313c.140624 0 .257812-.023438.398437-.046875h.046875s.023438 0 .023438-.023437c.117187-.070313.234374-.140626.351562-.210938.1875-.164062.28125-.46875.164062-.703125-.023437-.070313-.070312-.140625-.140624-.140625-.09375 0-.140626-.046875-.1875-.09375-.023438-.046875-.09375-.09375-.164063-.09375-.304687-.023438-.5625.210938-.609375.492188-.023438.234374.046875.398437.210938.5625.046874.046874.117187.046874.117187.140624-.09375.023438-.1875.046876-.28125.070313zm-14.8125 16.59375c.117187 0 .234375-.023437.328125-.117187.1875-.140626.257812-.304688.257812-.515626-.023437-.210937-.09375-.375-.304687-.445312-.023437 0-.046875-.023438-.070313-.046875-.140624-.117187-.304687-.09375-.46875-.023437-.257812.117187-.398437.421874-.328124.679687.046874.257813.304687.46875.585937.46875zm16.265625-18.84375c.09375-.023437.164062-.023437.257812-.023437.304688-.070313.539063-.328126.539063-.632813 0-.164063-.046875-.328125-.234375-.398437-.046875-.023438-.070312-.070313-.117188-.070313-.070312-.046875-.140624-.09375-.210937-.09375-.234375 0-.492187.164063-.585937.421875-.09375.234375-.023438.515625.1875.679688.046874.046874.117187.070312.164062.117187zm-.421875-4.148437s0-.046876 0-.09375c-.023437-.140626-.070313-.257813-.234375-.257813-.070312 0-.140625-.046875-.164062-.117187-.046876-.070313-.117188-.09375-.1875-.070313-.046876 0-.117188 0-.164063.023437-.234375.070313-.398437.328126-.398437.609376.023437.257812.1875.445312.445312.492187.304688.070313.679688-.164063.703125-.585937zm1.195313 1.382812c.023437 0 .046874.023438.070312 0 .234375 0 .421875-.164062.492188-.398438.070312-.210937 0-.398437-.210938-.585937-.210938-.164063-.492188-.117187-.703125.070313-.164063.164062-.234375.421874-.140625.632812s.257812.304688.492188.28125zm-5.789063-5.507812c-.046875-.070313-.117187-.140626-.164063-.210938-.046874-.070312-.09375-.140625-.09375-.1875-.023437-.234375-.046874-.46875.070313-.679688.046875-.070312.070313-.164062.070313-.257812.023437-.070312 0-.117188-.046876-.164062-.046874-.046876-.09375-.046876-.117187-.023438-.046875.046875-.070313.070312-.09375.09375-.117187.140625-.140625.328125-.164063.492188-.023437.164062-.046874.328124-.070312.492187-.023438.234375 0 .46875.070312.679687.09375.046876.1875.070313.28125.117188.070313.046875.164063.117188.234376.1875.1875-.117188.375-.210938.46875-.421875-.140626-.117187-.328126-.046875-.445313-.117187zm3.585937 2.085937c0 .257813.210938.492187.46875.492187.164063 0 .304688-.070312.421876-.1875.117187-.117187.164062-.257812.140624-.421874-.023437-.140626-.09375-.234376-.210937-.304688-.046875-.023438-.070313-.046875-.117187-.070312-.070313-.023438-.140626-.070313-.1875-.046876-.28125 0-.539063.210938-.515626.539063zm-23.671874 6.726563c-.210938.023437-.351563.09375-.445313.28125-.09375.164062-.070313.328124.070313.46875 0 .023437 0 .023437.023437.046874.140625.28125.539063.28125.75.070313.210937-.234375.140625-.632813-.117187-.75-.046876-.023437-.09375-.070313-.164063-.09375-.046875 0-.09375-.023437-.117187-.023437zm-1.804688.65625c-.023438-.023438-.023438-.117188-.070312-.210938-.046876-.09375-.351563-.28125-.46875-.28125-.1875 0-.421876.164062-.445313.375-.023437.234375.070313.421875.28125.539062.1875.09375.46875.046876.585937-.09375.070313-.070312.117188-.164062.117188-.328124zm23.976562-.46875c-.023437-.140626-.046874-.257813-.1875-.328126-.046874 0-.070312-.046874-.117187-.070312-.070313-.046875-.164063-.070312-.234375-.046875-.257812.046875-.445312.28125-.398438.539063.023438.257812.257813.445312.515626.421874.234374-.023437.421874-.257812.421874-.515624zm.257813-1.757813c.140625-.023437.257813-.046875.375-.09375.210937-.070313.375-.1875.445313-.398437.117187-.304688-.046876-.492188-.328126-.515626-.046874 0-.117187.023438-.164062.046876-.09375.046874-.1875.09375-.234375.164062-.210937.234375-.234375.515625-.09375.796875zm.445313.609375c-.210938 0-.398438.1875-.398438.445312 0 .09375.023438.164063.070312.234376.117188.140624.28125.210937.46875.164062.164063-.023438.28125-.140625.351563-.328125.046875-.117187.046875-.257813-.046875-.328125-.117188-.09375-.210938-.210938-.445312-.1875zm-10.054688 14.15625c0-.210938-.1875-.421875-.398438-.445312-.210937 0-.421874.1875-.421874.398437 0 .234375.1875.445313.421874.445313.210938 0 .398438-.1875.398438-.398438zm-7.242188 3.09375c0-.09375-.023437-.210938-.117187-.257812-.046875-.046876-.09375-.070313-.164063-.117188-.140624-.09375-.304687-.046875-.445312.09375-.117188.140625-.140625.328125-.070312.46875.09375.164062.28125.234375.445312.1875.046875 0 .09375-.046875.164062-.070312.140626-.046876.164063-.164063.1875-.304688zm21.375-16.523438c0-.023437-.023437-.117187-.070312-.140624-.117188-.046876-.1875-.164063-.304688-.164063-.234374.023437-.398437.210937-.398437.445313.023437.1875.210937.351562.398437.328124.210938 0 .375-.1875.375-.46875zm-.328124-6.070312c0-.023438 0-.117188-.046876-.140625-.09375-.070313-.164062-.1875-.304687-.1875-.1875 0-.375.210937-.375.421875 0 .1875.164063.351562.351563.351562.210937 0 .375-.1875.375-.445312zm.84375 7.78125c-.210938.023438-.328126.09375-.398438.257812-.046875.09375-.046875.210938.023438.304688.070312.140625.257812.210938.398437.1875.1875-.046875.304687-.1875.304687-.351562.023438-.09375 0-.1875-.09375-.234376-.046874-.023437-.070312-.070312-.09375-.09375-.070312-.023437-.117187-.046874-.140624-.070312zm-12.515626-15.070312c0-.164063-.1875-.328126-.351562-.328126-.140625 0-.28125.164063-.28125.351563.023438.164063.164062.351563.328125.351563.164063-.023438.304687-.1875.304687-.375zm11.554688 14.625c0-.09375-.046875-.140626-.140625-.164063-.140625-.046875-.28125-.023437-.398437.070313-.117188.117187-.140626.257812-.070313.375.046875.117187.210937.164062.328125.140624.164062-.070312.28125-.234374.28125-.421874zm-25.875 11.8125c.023438-.164063-.09375-.304688-.257812-.328126-.140626 0-.28125.117188-.304688.257813-.023438.164063.117188.328125.304688.328125.140624.023438.257812-.117188.257812-.257812zm27.046875-14.859376c0 .140626.09375.257813.257813.28125.140624.023438.28125-.09375.304687-.257812 0-.140625-.140625-.304688-.28125-.304688s-.257813.117188-.28125.28125zm.375 1.40625c-.070313.046876-.140625.070313-.1875.09375-.070313.046876-.117187.140626-.09375.234376 0 .09375.070313.164062.140625.1875.1875.070312.328125 0 .375-.1875.023438-.09375 0-.164063-.09375-.234376-.023438-.023437-.070312-.046874-.140625-.09375zm.960937 4.523438c0-.117188-.140624-.234375-.28125-.234375-.117187-.023437-.257812.117187-.257812.28125 0 .117187.140625.234375.257812.234375.140626-.023438.28125-.140625.28125-.28125zm-2.203124-1.171875c-.09375 0-.164063.046875-.210938.117187-.023438.070313-.046875.140626-.023438.1875 0 .117188.09375.210938.1875.210938.140626.023438.257813-.070312.28125-.1875.046876-.140625 0-.210938-.234374-.328125zm-28.945313 10.875c.140625 0 .234375-.117187.234375-.257813 0-.140624-.117188-.234374-.28125-.234374-.117188 0-.234375.09375-.234375.234374 0 .140626.117187.257813.28125.257813zm14.71875 4.3125c.117187 0 .210937-.117187.210937-.234375s-.09375-.234375-.210937-.234375-.234375.09375-.234375.234375c0 .117188.117188.234375.234375.234375zm15.070313-17.25c0-.09375-.140626-.1875-.210938-.1875-.09375 0-.1875.117187-.1875.234375 0 .09375.09375.164062.1875.164062.117188 0 .210938-.117187.210938-.210937zm.75 2.179687c0-.070312-.117188-.1875-.1875-.164062-.09375 0-.1875.09375-.210938.210938 0 .09375.09375.164062.1875.164062s.210938-.09375.210938-.210938zm.234374-2.179687c-.023437-.023437-.023437-.046875-.070312-.070313-.023438-.046874-.070312-.046874-.09375-.070312-.117188-.046875-.210938 0-.234375.117188-.023437.070312-.023437.140624.046875.1875.046875.070312.140625.09375.210938.046874.070312-.023437.117187-.09375.140624-.210937zm.46875-1.710937c0-.070313-.117187-.164063-.1875-.164063-.09375-.023437-.1875.09375-.1875.1875s.070313.1875.164063.1875.210937-.09375.210937-.210937zm-1.546874 4.898437c.09375 0 .140624-.046875.1875-.117187.070312-.070313.023437-.1875-.070313-.210938-.09375-.046875-.210937 0-.257813.09375-.023437.117188.023438.210938.140626.234375zm1.804687-7.757813c.023437-.070312-.070313-.164062-.164063-.164062-.070312-.023438-.164062.070312-.1875.164062 0 .09375.070313.1875.164063.1875s.1875-.09375.1875-.1875zm-1.429687.679688c.09375 0 .164062-.09375.1875-.1875 0-.09375-.117188-.1875-.210938-.164062-.070312 0-.164062.09375-.164062.1875s.09375.164062.1875.164062zm-33.1875 7.546875c-.023438-.023437-.023438-.046875-.046876-.070313-.046874-.023437-.117187-.046874-.164062-.046874-.09375-.023438-.140625.070312-.140625.140624.023437.117188.140625.164063.234375.164063.070312-.023437.117188-.09375.117188-.1875zm30.679687-13.171875c-.070313 0-.140625.046875-.1875.140625-.023437.070313-.023437.140625.023437.1875.046876.046875.117188.070313.1875.023437.09375-.023437.117188-.140624.117188-.234374-.023438-.046876-.09375-.117188-.140625-.117188zm-.890625.257812c-.023438-.09375-.09375-.164062-.164062-.164062-.09375.023438-.1875.09375-.164063.210938 0 .09375.070313.140624.140625.140624.09375 0 .1875-.070312.1875-.1875zm-5.8125-.820312c0-.070312-.070312-.140625-.164062-.140625s-.164063.09375-.164063.234375c.023437.070312.070313.117188.140625.117188.09375 0 .1875-.09375.1875-.210938zm8.320312 7.546875c0-.070313-.09375-.164063-.164062-.164063-.09375-.023437-.164062.046876-.164062.140626-.023438.09375.046874.1875.140624.1875s.164063-.070313.1875-.164063zm2.132813 4.359375c.070313 0 .140625-.070312.140625-.164062.023438-.070313-.023438-.117188-.070312-.140626-.070313-.023437-.117188.023438-.164063.046876-.046875.046874-.070313.09375-.046875.164062 0 .046875.070312.09375.140625.09375zm-.375-7.5c0-.070312-.09375-.140625-.164063-.140625-.070312 0-.164062.09375-.140624.1875 0 .070313.09375.117187.1875.117187.070312 0 .117187-.09375.117187-.164062zm.679687 6.1875c0-.070312-.09375-.164062-.164062-.140625-.070312 0-.140625.117187-.117188.164063 0 .070312.070313.140624.140626.140624.09375 0 .140624-.09375.140624-.164062zm.070313-1.21875c.023437-.046875-.046875-.117188-.140625-.140625-.070312-.023437-.164062.046875-.164062.140625-.023438.070312.046874.164062.140624.164062.070313 0 .164063-.070312.164063-.164062zm-3.375-7.734375c-.09375.023437-.164063.117187-.140625.1875.023438.09375.09375.140625.140625.140625.09375-.023438.140625-.117188.140625-.210938-.023438-.070312-.09375-.117187-.140625-.117187zm-29.25 5.179687c0-.09375-.046875-.1875-.164063-.1875-.046874-.023437-.117187.023438-.117187.09375-.023437.070313.023437.140626.117187.164063.070313.023437.140626 0 .164063-.070313zm32.484375.585938c-.09375 0-.164062.070312-.164062.140625-.023438.070313.046874.140625.117187.140625s.140625-.070312.164063-.140625c0-.070313-.070313-.117187-.117188-.140625zm-1.40625-4.078125c-.070312 0-.117188.09375-.117188.1875.023438.046875.070313.117187.140626.09375.070312 0 .140624-.09375.117187-.164063 0-.070312-.070313-.117187-.140625-.117187zm-3.75 4.570313c0-.070313-.070312-.140626-.140625-.140626s-.117187.070313-.117187.140626c0 .070312.070312.140624.117187.140624.070313 0 .117187-.070312.140625-.140624zm3.210938-5.039063c-.023438-.023437-.023438-.070313-.070313-.09375s-.140625.023437-.164063.09375c0 .070313.023438.140625.09375.140625.070313.023438.117188-.046875.140626-.140625zm-3.234376-4.359375c-.023437-.070312-.070312-.117188-.117187-.117188-.070313.023438-.09375.070313-.117187.117188 0 .070312.070312.117188.117187.117188s.117187-.046876.117187-.117188zm5.859376 8.015625c.023437-.09375-.046876-.164063-.117188-.164063-.046875.023438-.070312.046876-.070312.09375-.023438.070313.023437.117188.070312.117188s.09375-.046875.117188-.046875zm-2.4375-5.625c-.046876-.023437-.070313-.070313-.117188-.09375-.046875 0-.09375.070313-.09375.140625 0 .046875.046875.09375.09375.070312.046875-.023437.070312-.070312.117188-.117187zm-.070313 3.632813c-.023437 0-.046875-.046876-.070313-.070313-.070312-.023437-.140624.070313-.140624.140625 0 .023438.046874.09375.09375.070312.070312 0 .117187-.046874.117187-.140624zm-.867187-4.851563c0-.070313-.046876-.117187-.09375-.117187-.046876 0-.117188.046874-.09375.117187 0 .046875.023437.070313.070312.070313s.09375-.046876.117188-.070313zm-1.242188-.726563c-.023438 0-.070312-.023437-.09375-.023437-.046875 0-.070312.023437-.070312.09375 0 .046875.046874.070313.070312.070313.070312 0 .09375-.070313.09375-.140626zm-29.53125 10.59375c-.023438.023438-.046875.046876-.046875.070313-.023437.070313.023437.09375.09375.09375.023437 0 .070313-.023437.070313-.046875.023437-.046875-.023438-.117188-.117188-.117188zm27.9375-12.421874c-.046875.046874-.070312.070312-.09375.117187-.023438.023437.023438.09375.070312.09375.046876 0 .070313-.023437.09375-.09375 0-.023437-.046874-.046875-.070312-.117187zm-4.546875 19.617187c-.070313-.023437-.09375-.046875-.117187-.046875-.023438 0-.023438.023438-.046876.046875.023438.023437.046876.046875.070313.070313 0 0 .046875-.046876.09375-.070313zm3.09375-7.242187c0-.070313 0-.09375 0-.117188s-.046875-.023438-.046875-.046875c0 .023437-.023438.046875-.023438.070313 0 .023437.023438.046874.070313.09375zm-17.601563-3.632813c.046876 0 .070313.023437.117188.046875-.023438-.046875-.070312-.070312-.117188-.046875z" fill="#262626" transform="translate(-336 -168)"/></svg>